<?xml version="1.0" encoding="UTF-8" standalone="no"?>
<!DOCTYPE svg PUBLIC "-//W3C//DTD SVG 1.1//EN" "http://www.w3.org/Graphics/SVG/1.1/DTD/svg11.dtd">
<svg xmlns="http://www.w3.org/2000/svg" version="1.1" viewBox="0.00 0.00 500.00 500.00">
<g stroke-width="2.00" fill="none" stroke-linecap="butt">
<path stroke="#408244" vector-effect="non-scaling-stroke" d="
  M 161.33 146.46
  L 152.99 164.03"
/>
<path stroke="#176a4c" vector-effect="non-scaling-stroke" d="
  M 152.99 164.03
  Q 152.33 163.72 152.56 163.68"
/>
<path stroke="#1b7956" vector-effect="non-scaling-stroke" d="
  M 152.56 163.68
  C 141.48 147.09 126.07 134.17 108.40 124.86
  C 105.25 123.20 98.84 121.73 95.70 124.10
  C 92.26 126.70 91.35 133.62 91.26 137.65
  Q 90.68 160.99 97.53 183.26"
/>
<path stroke="#176a4c" vector-effect="non-scaling-stroke" d="
  M 97.53 183.26
  L 101.01 192.24"
/>
<path stroke="#1b7956" vector-effect="non-scaling-stroke" d="
  M 101.01 192.24
  Q 101.13 192.38 100.70 193.03"
/>
<path stroke="#156665" vector-effect="non-scaling-stroke" d="
  M 100.70 193.03
  Q 73.95 191.12 49.74 203.69"
/>
<path stroke="#1b6067" vector-effect="non-scaling-stroke" d="
  M 49.74 203.69
  Q 48.93 204.02 49.37 203.94"
/>
<path stroke="#156665" vector-effect="non-scaling-stroke" d="
  M 49.37 203.94
  Q 44.22 206.40 42.81 211.19
  A 1.32 1.29 -49.4 0 0 42.87 212.10
  C 46.61 220.43 56.78 227.50 64.37 232.00
  A 1.34 1.34 0.0 0 1 64.46 234.24
  L 48.99 245.15"
/>
<path stroke="#104853" vector-effect="non-scaling-stroke" d="
  M 48.99 245.15
  Q 43.18 249.76 43.69 256.49"
/>
<path stroke="#0c3f4b" vector-effect="non-scaling-stroke" d="
  M 43.69 256.49
  Q 44.49 263.07 50.78 265.56
  Q 57.51 268.23 67.88 271.64
  Q 80.62 275.83 94.11 275.73"
/>
<path stroke="#5b8b52" vector-effect="non-scaling-stroke" d="
  M 94.11 275.73
  Q 93.32 279.82 92.56 283.76
  Q 89.05 301.92 93.66 320.84"
/>
<path stroke="#408244" vector-effect="non-scaling-stroke" d="
  M 93.66 320.84
  Q 95.99 331.87 101.48 342.66
  C 103.21 346.05 107.48 351.51 111.80 350.57
  Q 116.74 349.49 120.83 345.86
  Q 135.48 332.81 144.82 315.74
  C 146.88 311.96 148.90 306.59 151.36 302.00"
/>
<path stroke="#176a4c" vector-effect="non-scaling-stroke" d="
  M 151.36 302.00
  Q 162.73 318.91 178.72 330.28
  C 184.81 334.62 190.05 338.05 196.51 341.13
  Q 205.15 345.26 209.92 338.59
  C 211.00 337.08 212.09 333.88 212.14 332.26
  Q 212.61 318.46 211.91 304.72"
/>
<path stroke="#1b7956" vector-effect="non-scaling-stroke" d="
  M 211.91 304.72
  Q 210.39 289.22 205.43 274.32"
/>
<path stroke="#0c3f4b" vector-effect="non-scaling-stroke" d="
  M 205.43 274.32
  Q 214.39 275.51 223.53 274.85"
/>
<path stroke="#104853" vector-effect="non-scaling-stroke" d="
  M 223.53 274.85
  Q 241.49 273.05 257.73 265.00
  C 268.85 259.49 266.85 252.27 258.51 245.22
  Q 251.89 239.61 244.61 235.12
  A 0.90 0.90 0.0 0 1 244.68 233.56
  Q 256.55 227.43 264.55 216.56"
/>
<path stroke="#1b6067" vector-effect="non-scaling-stroke" d="
  M 264.55 216.56
  Q 266.66 212.72 266.19 210.10"
/>
<path stroke="#156665" vector-effect="non-scaling-stroke" d="
  M 266.19 210.10
  Q 260.86 202.29 251.31 198.95
  Q 241.84 195.65 234.22 194.00
  C 226.66 192.37 218.15 192.76 210.10 192.94"
/>
<path stroke="#5b8b52" vector-effect="non-scaling-stroke" d="
  M 210.10 192.94
  C 217.88 167.62 213.26 142.77 201.19 120.33
  C 199.07 116.39 194.88 113.45 190.37 115.60
  C 178.59 121.23 167.55 135.53 161.33 146.46"
/>
<path stroke="#6ad08f" vector-effect="non-scaling-stroke" d="
  M 210.10 192.94
  Q 206.46 204.68 199.23 215.48"
/>
<path stroke="#6bc089" vector-effect="non-scaling-stroke" d="
  M 199.23 215.48
  Q 190.39 228.43 178.27 238.26"
/>
<path stroke="#70e380" vector-effect="non-scaling-stroke" d="
  M 178.27 238.26
  Q 169.45 245.37 158.70 250.42"
/>
<path stroke="#94ec6e" vector-effect="non-scaling-stroke" d="
  M 158.70 250.42
  Q 159.89 248.27 162.21 246.66
  Q 165.59 244.31 166.27 243.67
  C 180.69 230.09 187.87 211.82 189.33 192.36
  Q 189.52 189.84 189.21 175.39
  Q 188.94 162.69 190.66 150.09
  C 190.82 148.85 191.75 147.25 191.29 145.71
  A 0.49 0.49 0.0 0 0 190.35 145.73
  L 188.32 153.56
  Q 188.22 153.95 187.95 154.26
  C 186.70 155.70 186.31 157.52 185.15 158.87
  Q 182.56 161.89 180.13 165.05
  Q 179.85 165.42 179.90 165.88
  Q 180.13 167.91 178.72 169.35
  Q 178.55 169.53 178.77 169.64
  Q 178.89 169.70 178.99 169.78
  Q 179.31 170.00 179.29 170.38
  Q 179.24 171.47 178.37 171.37
  Q 177.63 171.29 177.85 172.00
  Q 178.48 174.04 176.60 175.02
  A 0.62 0.61 62.8 0 0 176.34 175.85
  Q 177.56 178.22 175.62 179.78
  Q 175.41 179.94 175.26 180.16
  Q 175.02 180.50 175.14 180.67
  Q 175.62 181.33 175.41 181.45
  L 173.91 182.34
  Q 173.57 182.54 173.53 182.93
  L 172.97 188.51
  A 0.49 0.49 0.0 0 1 171.99 188.49
  Q 171.58 181.97 170.81 175.12
  Q 167.98 149.71 180.18 127.30
  A 0.25 0.25 0.0 0 0 179.79 127.01
  L 176.36 130.55
  Q 176.04 130.87 175.60 130.89
  Q 174.58 130.95 174.21 131.34
  Q 168.80 137.00 164.67 143.65
  Q 164.41 144.08 163.55 144.86
  Q 162.81 145.53 162.76 146.43
  A 0.76 0.76 0.0 0 1 161.87 147.14
  Q 161.36 147.05 161.33 146.46"
/>
<path stroke="#55da71" vector-effect="non-scaling-stroke" d="
  M 158.70 250.42
  L 157.29 251.28
  Q 156.86 251.54 157.14 251.95
  Q 157.94 253.15 157.83 254.37"
/>
<path stroke="#51cb67" vector-effect="non-scaling-stroke" d="
  M 157.83 254.37
  Q 158.34 269.95 155.96 285.03
  Q 155.79 286.10 155.04 287.82
  C 154.03 290.10 154.06 293.18 153.51 294.97
  Q 152.32 298.84 151.36 302.00"
/>
<path stroke="#94ec6e" vector-effect="non-scaling-stroke" d="
  M 93.66 320.84
  Q 97.54 316.80 100.15 310.88
  Q 104.46 301.13 106.93 291.50
  Q 106.93 291.48 109.57 277.44
  C 114.10 253.41 126.71 232.24 146.88 218.20
  Q 147.29 217.92 147.36 217.42
  Q 147.49 216.54 147.12 215.48"
/>
<path stroke="#acf193" vector-effect="non-scaling-stroke" d="
  M 147.12 215.48
  Q 147.53 213.85 147.15 213.73"
/>
<path stroke="#51cb67" vector-effect="non-scaling-stroke" d="
  M 147.15 213.73
  Q 144.23 187.84 152.99 164.03"
/>
<path stroke="#2cc279" vector-effect="non-scaling-stroke" d="
  M 211.91 304.72
  L 211.64 309.08
  Q 211.61 309.59 211.32 310.00
  Q 210.46 311.22 210.99 312.70
  Q 211.14 313.11 211.12 313.55
  L 210.61 330.29
  A 0.94 0.90 -23.2 0 1 210.35 330.90
  L 209.98 331.26
  Q 209.38 331.86 209.15 331.05
  C 204.51 315.22 195.56 299.19 181.18 290.33
  Q 175.56 286.86 175.55 286.85
  Q 166.79 280.65 161.46 271.11
  Q 160.17 268.81 161.03 265.02
  Q 161.64 262.37 160.12 258.65
  A 0.71 0.70 -52.0 0 1 160.08 258.32
  Q 160.36 256.20 159.08 254.57
  Q 158.87 254.31 158.87 253.98
  L 158.87 252.74
  A 0.20 0.20 0.0 0 0 158.47 252.70
  C 158.05 254.55 158.88 255.71 158.87 257.42
  Q 158.87 257.44 158.87 257.42
  Q 158.83 257.29 158.69 257.22
  Q 158.42 257.07 158.45 256.77
  Q 158.63 255.19 157.83 254.37"
/>
<path stroke="#1c7381" vector-effect="non-scaling-stroke" d="
  M 198.18 252.60
  L 193.08 252.95"
/>
<path stroke="#2bad8c" vector-effect="non-scaling-stroke" d="
  M 193.08 252.95
  Q 186.83 244.96 178.27 238.26"
/>
<path stroke="#2aa5a4" vector-effect="non-scaling-stroke" d="
  M 266.19 210.10
  L 248.30 209.99"
/>
<path stroke="#259b9c" vector-effect="non-scaling-stroke" d="
  M 248.30 209.99
  Q 234.47 212.02 223.48 219.26
  C 218.76 222.37 212.24 227.46 206.88 230.09
  Q 196.20 235.33 184.02 235.41
  Q 183.41 235.42 183.76 234.93
  Q 184.09 234.47 184.65 234.39
  Q 185.21 234.32 185.60 233.91
  Q 193.32 225.65 200.00 216.53
  Q 200.43 215.94 199.23 215.48"
/>
<path stroke="#61a975" vector-effect="non-scaling-stroke" d="
  M 94.11 275.73
  Q 97.62 262.68 104.83 251.00"
/>
<path stroke="#83d99b" vector-effect="non-scaling-stroke" d="
  M 147.15 213.73
  Q 135.93 218.82 126.30 226.57"
/>
<path stroke="#2ca98b" vector-effect="non-scaling-stroke" d="
  M 126.30 226.57
  Q 125.19 225.99 125.24 225.41"
/>
<path stroke="#c7faa2" vector-effect="non-scaling-stroke" d="
  M 147.12 215.48
  Q 137.98 219.73 129.80 225.79
  Q 129.12 226.29 127.31 227.21
  Q 125.98 227.89 124.90 228.98
  Q 124.53 229.35 124.23 228.92
  Q 124.06 228.67 124.14 228.44"
/>
<path stroke="#219678" vector-effect="non-scaling-stroke" d="
  M 205.43 274.32
  Q 200.92 263.00 193.08 252.95"
/>
<path stroke="#248792" vector-effect="non-scaling-stroke" d="
  M 264.55 216.56
  Q 262.93 217.38 261.53 218.72
  C 258.59 221.54 255.32 223.93 252.29 226.67
  Q 252.05 226.88 251.22 228.09
  Q 250.76 228.76 250.00 228.89
  Q 249.52 228.96 249.07 229.15
  Q 247.25 229.89 246.64 231.64
  Q 246.47 232.12 245.96 232.12
  L 244.29 232.12
  Q 243.74 232.12 243.84 232.66
  Q 244.31 235.21 241.99 235.65"
/>
<path stroke="#217d8a" vector-effect="non-scaling-stroke" d="
  M 241.99 235.65
  C 227.72 243.68 214.29 249.68 198.18 252.60"
/>
<path stroke="#2b949e" vector-effect="non-scaling-stroke" d="
  M 198.18 252.60
  Q 196.28 251.05 199.50 250.90
  A 0.48 0.48 0.0 0 0 199.54 249.95
  Q 198.42 249.81 197.89 249.02
  Q 197.48 248.41 197.69 247.36
  Q 198.08 245.39 198.99 243.57
  Q 199.23 243.10 199.71 242.90
  Q 200.58 242.54 200.19 241.83
  Q 199.91 241.33 200.32 240.93
  Q 204.77 236.58 206.17 235.54
  Q 208.53 233.77 210.05 232.02
  Q 212.02 229.75 213.44 228.70
  Q 215.73 227.01 217.83 225.08
  Q 218.41 224.55 220.18 224.05
  Q 220.62 223.93 220.87 223.53
  Q 221.66 222.25 223.08 221.89
  Q 223.64 221.75 223.95 221.27
  L 224.30 220.72
  Q 224.51 220.39 224.89 220.29
  Q 228.35 219.31 231.19 217.04
  Q 233.17 215.44 234.74 215.15
  Q 236.56 214.81 237.85 214.11
  Q 239.95 212.97 240.74 212.78
  Q 242.99 212.25 247.13 211.39
  Q 248.24 211.15 248.30 209.99"
/>
<path stroke="#87cfb7" vector-effect="non-scaling-stroke" d="
  M 126.30 226.57
  L 124.14 228.44"
/>
<path stroke="#6fca91" vector-effect="non-scaling-stroke" d="
  M 124.14 228.44
  Q 112.72 238.17 104.83 251.00"
/>
<path stroke="#217d8a" vector-effect="non-scaling-stroke" d="
  M 104.83 251.00
  Q 104.62 250.41 103.73 250.74"
/>
<path stroke="#2aa5a4" vector-effect="non-scaling-stroke" d="
  M 103.73 250.74
  Q 108.47 242.34 114.98 235.64
  A 0.70 0.70 0.0 0 0 114.72 234.49
  Q 100.21 229.26 85.39 224.07
  C 74.30 220.18 62.18 217.49 50.84 218.76
  Q 50.75 218.77 50.68 218.83
  Q 50.56 218.92 50.50 219.02
  Q 50.41 219.17 50.28 219.05
  Q 45.37 214.86 44.47 213.22
  Q 43.10 210.74 45.60 208.86
  Q 46.94 207.86 49.37 203.94"
/>
<path stroke="#2cc279" vector-effect="non-scaling-stroke" d="
  M 152.56 163.68
  L 151.72 164.32
  A 0.90 0.86 72.4 0 0 151.37 165.03
  Q 151.39 166.23 150.20 166.14
  Q 149.69 166.11 149.40 166.53
  L 146.10 171.35
  A 0.65 0.64 35.9 0 1 145.18 171.49
  Q 144.44 170.93 144.15 171.70
  A 0.63 0.59 37.7 0 0 144.24 172.27
  L 146.25 174.94
  A 0.51 0.51 0.0 0 1 145.57 175.67
  L 144.75 175.13
  A 0.47 0.47 0.0 0 0 144.03 175.45
  Q 143.68 177.86 141.12 177.60
  A 1.73 1.65 -54.5 0 0 140.18 177.78
  L 134.71 180.61
  Q 134.34 180.79 133.95 180.70
  C 130.76 179.96 128.68 179.35 125.91 177.65
  Q 119.59 173.80 113.49 169.66
  Q 113.10 169.40 112.74 169.69
  Q 112.42 169.95 112.74 170.21
  Q 117.09 173.95 122.04 176.88
  Q 127.20 179.93 129.39 181.91
  Q 140.10 191.61 145.28 205.42
  Q 145.46 205.90 145.36 206.40
  Q 144.81 208.99 145.35 211.60
  A 1.76 1.76 0.0 0 1 144.40 213.53
  Q 134.75 218.28 126.39 225.10
  Q 126.08 225.35 125.69 225.38
  L 125.24 225.41"
/>
<path stroke="#30b795" vector-effect="non-scaling-stroke" d="
  M 125.24 225.41
  Q 110.35 212.16 101.57 194.20"
/>
<path stroke="#2abe93" vector-effect="non-scaling-stroke" d="
  M 101.57 194.20
  Q 101.27 192.65 100.70 193.03"
/>
<path stroke="#2cc279" vector-effect="non-scaling-stroke" d="
  M 101.01 192.24
  L 101.30 190.75
  Q 101.40 190.28 101.12 189.88
  Q 99.59 187.66 98.63 183.88
  Q 98.30 182.59 97.53 183.26"
/>
<path stroke="#166676" vector-effect="non-scaling-stroke" d="
  M 223.53 274.85
  Q 217.89 273.69 212.09 274.23
  A 1.40 1.36 61.2 0 1 211.07 273.92
  Q 208.39 271.73 208.63 268.42
  A 1.06 1.05 -14.3 0 1 209.13 267.58
  Q 210.07 267.00 210.15 265.91
  Q 210.17 265.48 210.59 265.35
  L 211.56 265.04
  Q 212.06 264.88 212.40 264.49
  Q 213.10 263.69 212.78 263.11
  Q 212.41 262.44 213.11 262.14
  Q 215.87 260.98 217.76 258.75
  A 1.04 1.04 0.0 0 0 217.51 257.20
  L 213.28 254.56
  A 1.09 1.09 0.0 0 1 213.59 252.58
  Q 219.34 251.13 224.04 249.15
  Q 224.13 249.11 224.72 248.72
  Q 225.25 248.37 225.96 248.71
  Q 226.39 248.92 226.59 248.48
  Q 227.86 245.62 230.68 245.76
  Q 232.39 245.84 233.02 244.74
  A 0.43 0.43 0.0 0 1 233.77 244.75
  L 234.09 245.35
  A 0.40 0.39 40.9 0 0 234.81 245.30
  Q 235.57 243.15 237.77 243.35
  A 0.72 0.71 16.4 0 0 238.46 242.98
  Q 239.34 241.32 241.05 241.57
  Q 241.51 241.63 241.86 241.34
  L 243.77 239.74
  A 0.82 0.82 0.0 0 0 243.93 238.66
  L 241.99 235.65"
/>
<path stroke="#1b8488" vector-effect="non-scaling-stroke" d="
  M 103.73 250.74
  Q 103.53 251.04 102.88 250.86
  Q 84.37 245.88 67.74 235.92"
/>
<path stroke="#1f8d90" vector-effect="non-scaling-stroke" d="
  M 67.74 235.92
  Q 66.53 235.08 64.97 234.96
  Q 64.46 234.92 64.11 235.29
  C 63.41 236.04 63.02 236.78 62.16 237.36
  Q 56.48 241.16 51.27 245.58
  Q 50.69 246.07 50.16 246.27
  Q 48.22 247.02 48.99 245.15"
/>
<path stroke="#2aa5a4" vector-effect="non-scaling-stroke" d="
  M 101.57 194.20
  Q 101.41 194.34 101.37 194.52
  Q 101.33 194.78 101.07 194.76
  Q 83.18 193.33 65.96 198.37
  Q 61.61 199.64 58.87 201.35
  Q 54.51 204.06 51.11 205.36
  Q 50.21 205.70 49.86 205.33
  Q 49.44 204.89 49.74 203.69"
/>
<path stroke="#166676" vector-effect="non-scaling-stroke" d="
  M 67.74 235.92
  Q 65.28 236.21 66.85 238.37
  Q 67.15 238.79 67.68 238.84
  Q 70.87 239.14 72.42 241.79
  Q 72.68 242.25 73.14 242.50
  Q 77.12 244.74 78.42 249.15
  Q 78.54 249.57 78.34 249.95
  Q 75.46 255.25 71.93 260.09
  C 71.38 260.84 70.50 261.11 69.80 261.73
  Q 68.89 262.53 68.16 262.81
  C 65.18 263.94 60.84 265.91 57.63 265.39
  Q 55.99 265.13 54.35 265.09
  C 52.28 265.03 51.11 264.27 49.41 263.34
  Q 47.80 262.46 46.62 260.61
  Q 45.29 258.53 43.69 256.49"
/>
<path stroke="#5b8b52" vector-effect="non-scaling-stroke" d="
  M 292.53 244.74
  L 292.53 251.34
  Q 292.53 251.87 293.06 251.87
  L 302.44 251.85
  Q 302.97 251.84 302.97 251.31
  L 302.98 237.43"
/>
<path stroke="#729078" vector-effect="non-scaling-stroke" d="
  M 302.98 237.43
  L 303.04 228.66
  Q 303.05 228.08 303.63 228.07
  L 313.90 227.99"
/>
<path stroke="#5b8b52" vector-effect="non-scaling-stroke" d="
  M 313.90 227.99
  L 325.61 227.94"
/>
<path stroke="#408244" vector-effect="non-scaling-stroke" d="
  M 325.61 227.94
  Q 326.74 227.91 326.74 228.51
  Q 326.82 239.88 326.93 251.32
  Q 326.94 251.93 327.54 251.92
  L 336.71 251.84
  A 0.55 0.55 0.0 0 0 337.25 251.29
  L 337.21 214.69"
/>
<path stroke="#5b8b52" vector-effect="non-scaling-stroke" d="
  M 337.21 214.69
  L 337.18 205.16"
/>
<path stroke="#729078" vector-effect="non-scaling-stroke" d="
  M 337.18 205.16
  L 337.21 196.24
  Q 337.22 195.76 336.73 195.76
  L 327.49 195.75
  Q 326.94 195.75 326.94 196.31
  L 327.00 214.97"
/>
<path stroke="#5b8b52" vector-effect="non-scaling-stroke" d="
  M 327.00 214.97
  L 326.83 217.42
  Q 326.80 217.97 326.25 217.98
  L 323.48 218.03"
/>
<path stroke="#729078" vector-effect="non-scaling-stroke" d="
  M 323.48 218.03
  L 303.49 217.99
  Q 302.99 217.99 302.99 217.48
  L 303.00 196.39
  A 0.62 0.61 90.0 0 0 302.39 195.77
  L 293.04 195.75
  A 0.53 0.52 -90.0 0 0 292.52 196.28
  L 292.53 244.74"
/>
<path stroke="#c7faa2" vector-effect="non-scaling-stroke" d="
  M 323.48 218.03
  L 313.90 227.99"
/>
<path stroke="#c7faa2" vector-effect="non-scaling-stroke" d="
  M 302.98 237.43
  L 292.53 244.74"
/>
<path stroke="#94ec6e" vector-effect="non-scaling-stroke" d="
  M 337.21 214.69
  Q 329.98 220.42 325.61 227.94"
/>
<path stroke="#c7faa2" vector-effect="non-scaling-stroke" d="
  M 337.18 205.16
  Q 330.80 208.65 327.00 214.97"
/>
<path stroke="#408244" vector-effect="non-scaling-stroke" d="
  M 386.38 232.65
  A 20.51 20.51 0.0 0 0 365.87 212.14
  A 20.51 20.51 0.0 0 0 345.36 232.65
  A 20.51 20.51 0.0 0 0 365.87 253.16
  A 20.51 20.51 0.0 0 0 386.38 232.65"
/>
<path stroke="#5b8b52" vector-effect="non-scaling-stroke" d="
  M 392.53 251.49
  L 392.62 255.37"
/>
<path stroke="#1b7956" vector-effect="non-scaling-stroke" d="
  M 392.62 255.37
  L 392.50 268.17
  A 0.75 0.74 -90.0 0 0 393.24 268.92
  L 402.01 268.96
  Q 402.46 268.96 402.46 268.50
  L 402.26 250.15"
/>
<path stroke="#5b8b52" vector-effect="non-scaling-stroke" d="
  M 402.26 250.15
  L 402.04 247.80
  Q 401.98 247.20 402.54 247.44
  Q 403.70 247.95 404.30 249.00"
/>
<path stroke="#1b7956" vector-effect="non-scaling-stroke" d="
  M 404.30 249.00
  Q 409.34 253.80 415.53 253.05
  Q 428.95 251.40 432.20 237.99"
/>
<path stroke="#104853" vector-effect="non-scaling-stroke" d="
  M 432.20 237.99
  Q 433.56 232.84 432.34 228.15"
/>
<path stroke="#5b8b52" vector-effect="non-scaling-stroke" d="
  M 432.34 228.15
  Q 431.16 220.43 424.50 215.55"
/>
<path stroke="#408244" vector-effect="non-scaling-stroke" d="
  M 424.50 215.55
  C 418.05 211.09 407.99 210.75 402.87 217.75
  A 0.48 0.48 0.0 0 1 402.00 217.47
  L 402.01 214.24
  Q 402.01 213.48 401.24 213.48
  L 393.50 213.45
  A 0.99 0.99 0.0 0 0 392.51 214.44
  L 392.53 251.49"
/>
<path stroke="#94ec6e" vector-effect="non-scaling-stroke" d="
  M 424.50 215.55
  Q 423.14 220.96 418.95 223.86"
/>
<path stroke="#408244" vector-effect="non-scaling-stroke" d="
  M 418.95 223.86
  C 413.68 220.10 407.93 220.83 404.06 226.01
  Q 399.17 232.54 404.94 240.82"
/>
<path stroke="#94ec6e" vector-effect="non-scaling-stroke" d="
  M 404.94 240.82
  Q 399.79 246.98 392.53 251.49"
/>
<path stroke="#64b27d" vector-effect="non-scaling-stroke" d="
  M 432.34 228.15
  L 426.15 233.47"
/>
<path stroke="#70e380" vector-effect="non-scaling-stroke" d="
  M 426.15 233.47
  Q 424.36 235.16 422.62 235.45"
/>
<path stroke="#5b8b52" vector-effect="non-scaling-stroke" d="
  M 422.62 235.45
  Q 423.82 228.25 418.95 223.86"
/>
<path stroke="#70e380" vector-effect="non-scaling-stroke" d="
  M 402.26 250.15
  L 392.62 255.37"
/>
<path stroke="#1b7956" vector-effect="non-scaling-stroke" d="
  M 422.62 235.45
  Q 420.08 243.73 411.43 243.94"
/>
<path stroke="#5b8b52" vector-effect="non-scaling-stroke" d="
  M 411.43 243.94
  Q 407.38 242.95 404.94 240.82"
/>
<path stroke="#70e380" vector-effect="non-scaling-stroke" d="
  M 404.30 249.00
  L 411.43 243.94"
/>
<path stroke="#25a081" vector-effect="non-scaling-stroke" d="
  M 432.20 237.99
  L 426.15 233.47"
/>
<path stroke="#16565f" vector-effect="non-scaling-stroke" d="
  M 438.21 227.91
  C 435.95 238.81 441.43 249.46 452.47 252.30"
/>
<path stroke="#1b6067" vector-effect="non-scaling-stroke" d="
  M 452.47 252.30
  Q 467.50 255.56 475.78 243.28
  A 0.61 0.61 0.0 0 0 475.54 242.39
  L 468.40 238.85
  A 0.76 0.76 0.0 0 0 467.45 239.10
  Q 462.52 246.08 453.70 243.42"
/>
<path stroke="#16565f" vector-effect="non-scaling-stroke" d="
  M 453.70 243.42
  Q 448.30 240.86 447.59 235.29
  Q 447.52 234.78 448.04 234.78
  L 475.78 234.84
  A 0.91 0.90 -87.2 0 0 476.68 234.02
  Q 477.23 227.67 474.33 221.68"
/>
<path stroke="#1b6067" vector-effect="non-scaling-stroke" d="
  M 474.33 221.68
  Q 471.51 216.09 465.74 213.83
  C 454.03 209.24 441.34 215.27 438.21 227.91"
/>
<path stroke="#2b949e" vector-effect="non-scaling-stroke" d="
  M 474.33 221.68
  Q 469.74 222.24 465.57 224.15"
/>
<path stroke="#1b6067" vector-effect="non-scaling-stroke" d="
  M 465.57 224.15
  C 460.05 217.80 450.57 219.64 448.04 227.74"
/>
<path stroke="#2b949e" vector-effect="non-scaling-stroke" d="
  M 448.04 227.74
  L 438.21 227.91"
/>
<path stroke="#2b949e" vector-effect="non-scaling-stroke" d="
  M 453.70 243.42
  Q 452.38 244.42 456.61 245.30
  A 0.81 0.80 -82.6 0 1 457.25 246.14
  L 456.91 251.20
  Q 456.87 251.86 456.28 251.55
  L 454.19 250.44
  Q 453.80 250.23 453.48 250.53
  Q 452.25 251.65 452.47 252.30"
/>
<path stroke="#16565f" vector-effect="non-scaling-stroke" d="
  M 465.57 224.15
  Q 466.72 225.47 466.95 227.13
  A 0.58 0.58 0.0 0 1 466.37 227.79
  L 448.04 227.74"
/>
<path stroke="#408244" vector-effect="non-scaling-stroke" d="
  M 366.0370 243.8692
  A 11.21 10.35 89.3 0 0 376.2492 232.5336
  A 11.21 10.35 89.3 0 0 365.7630 221.4508
  A 11.21 10.35 89.3 0 0 355.5508 232.7864
  A 11.21 10.35 89.3 0 0 366.0370 243.8692"
/>
</g>
<path fill="#062128" d="
  M 0.00 0.00
  L 500.00 0.00
  L 500.00 500.00
  L 0.00 500.00
  L 0.00 0.00
  Z
  M 161.33 146.46
  L 152.99 164.03
  Q 152.33 163.72 152.56 163.68
  C 141.48 147.09 126.07 134.17 108.40 124.86
  C 105.25 123.20 98.84 121.73 95.70 124.10
  C 92.26 126.70 91.35 133.62 91.26 137.65
  Q 90.68 160.99 97.53 183.26
  L 101.01 192.24
  Q 101.13 192.38 100.70 193.03
  Q 73.95 191.12 49.74 203.69
  Q 48.93 204.02 49.37 203.94
  Q 44.22 206.40 42.81 211.19
  A 1.32 1.29 -49.4 0 0 42.87 212.10
  C 46.61 220.43 56.78 227.50 64.37 232.00
  A 1.34 1.34 0.0 0 1 64.46 234.24
  L 48.99 245.15
  Q 43.18 249.76 43.69 256.49
  Q 44.49 263.07 50.78 265.56
  Q 57.51 268.23 67.88 271.64
  Q 80.62 275.83 94.11 275.73
  Q 93.32 279.82 92.56 283.76
  Q 89.05 301.92 93.66 320.84
  Q 95.99 331.87 101.48 342.66
  C 103.21 346.05 107.48 351.51 111.80 350.57
  Q 116.74 349.49 120.83 345.86
  Q 135.48 332.81 144.82 315.74
  C 146.88 311.96 148.90 306.59 151.36 302.00
  Q 162.73 318.91 178.72 330.28
  C 184.81 334.62 190.05 338.05 196.51 341.13
  Q 205.15 345.26 209.92 338.59
  C 211.00 337.08 212.09 333.88 212.14 332.26
  Q 212.61 318.46 211.91 304.72
  Q 210.39 289.22 205.43 274.32
  Q 214.39 275.51 223.53 274.85
  Q 241.49 273.05 257.73 265.00
  C 268.85 259.49 266.85 252.27 258.51 245.22
  Q 251.89 239.61 244.61 235.12
  A 0.90 0.90 0.0 0 1 244.68 233.56
  Q 256.55 227.43 264.55 216.56
  Q 266.66 212.72 266.19 210.10
  Q 260.86 202.29 251.31 198.95
  Q 241.84 195.65 234.22 194.00
  C 226.66 192.37 218.15 192.76 210.10 192.94
  C 217.88 167.62 213.26 142.77 201.19 120.33
  C 199.07 116.39 194.88 113.45 190.37 115.60
  C 178.59 121.23 167.55 135.53 161.33 146.46
  Z
  M 292.53 244.74
  L 292.53 251.34
  Q 292.53 251.87 293.06 251.87
  L 302.44 251.85
  Q 302.97 251.84 302.97 251.31
  L 302.98 237.43
  L 303.04 228.66
  Q 303.05 228.08 303.63 228.07
  L 313.90 227.99
  L 325.61 227.94
  Q 326.74 227.91 326.74 228.51
  Q 326.82 239.88 326.93 251.32
  Q 326.94 251.93 327.54 251.92
  L 336.71 251.84
  A 0.55 0.55 0.0 0 0 337.25 251.29
  L 337.21 214.69
  L 337.18 205.16
  L 337.21 196.24
  Q 337.22 195.76 336.73 195.76
  L 327.49 195.75
  Q 326.94 195.75 326.94 196.31
  L 327.00 214.97
  L 326.83 217.42
  Q 326.80 217.97 326.25 217.98
  L 323.48 218.03
  L 303.49 217.99
  Q 302.99 217.99 302.99 217.48
  L 303.00 196.39
  A 0.62 0.61 90.0 0 0 302.39 195.77
  L 293.04 195.75
  A 0.53 0.52 -90.0 0 0 292.52 196.28
  L 292.53 244.74
  Z
  M 386.38 232.65
  A 20.51 20.51 0.0 0 0 365.87 212.14
  A 20.51 20.51 0.0 0 0 345.36 232.65
  A 20.51 20.51 0.0 0 0 365.87 253.16
  A 20.51 20.51 0.0 0 0 386.38 232.65
  Z
  M 392.53 251.49
  L 392.62 255.37
  L 392.50 268.17
  A 0.75 0.74 -90.0 0 0 393.24 268.92
  L 402.01 268.96
  Q 402.46 268.96 402.46 268.50
  L 402.26 250.15
  L 402.04 247.80
  Q 401.98 247.20 402.54 247.44
  Q 403.70 247.95 404.30 249.00
  Q 409.34 253.80 415.53 253.05
  Q 428.95 251.40 432.20 237.99
  Q 433.56 232.84 432.34 228.15
  Q 431.16 220.43 424.50 215.55
  C 418.05 211.09 407.99 210.75 402.87 217.75
  A 0.48 0.48 0.0 0 1 402.00 217.47
  L 402.01 214.24
  Q 402.01 213.48 401.24 213.48
  L 393.50 213.45
  A 0.99 0.99 0.0 0 0 392.51 214.44
  L 392.53 251.49
  Z
  M 438.21 227.91
  C 435.95 238.81 441.43 249.46 452.47 252.30
  Q 467.50 255.56 475.78 243.28
  A 0.61 0.61 0.0 0 0 475.54 242.39
  L 468.40 238.85
  A 0.76 0.76 0.0 0 0 467.45 239.10
  Q 462.52 246.08 453.70 243.42
  Q 448.30 240.86 447.59 235.29
  Q 447.52 234.78 448.04 234.78
  L 475.78 234.84
  A 0.91 0.90 -87.2 0 0 476.68 234.02
  Q 477.23 227.67 474.33 221.68
  Q 471.51 216.09 465.74 213.83
  C 454.03 209.24 441.34 215.27 438.21 227.91
  Z"
/>
<g>
<path fill="#aff57c" d="
  M 210.10 192.94
  Q 206.46 204.68 199.23 215.48
  Q 190.39 228.43 178.27 238.26
  Q 169.45 245.37 158.70 250.42
  Q 159.89 248.27 162.21 246.66
  Q 165.59 244.31 166.27 243.67
  C 180.69 230.09 187.87 211.82 189.33 192.36
  Q 189.52 189.84 189.21 175.39
  Q 188.94 162.69 190.66 150.09
  C 190.82 148.85 191.75 147.25 191.29 145.71
  A 0.49 0.49 0.0 0 0 190.35 145.73
  L 188.32 153.56
  Q 188.22 153.95 187.95 154.26
  C 186.70 155.70 186.31 157.52 185.15 158.87
  Q 182.56 161.89 180.13 165.05
  Q 179.85 165.42 179.90 165.88
  Q 180.13 167.91 178.72 169.35
  Q 178.55 169.53 178.77 169.64
  Q 178.89 169.70 178.99 169.78
  Q 179.31 170.00 179.29 170.38
  Q 179.24 171.47 178.37 171.37
  Q 177.63 171.29 177.85 172.00
  Q 178.48 174.04 176.60 175.02
  A 0.62 0.61 62.8 0 0 176.34 175.85
  Q 177.56 178.22 175.62 179.78
  Q 175.41 179.94 175.26 180.16
  Q 175.02 180.50 175.14 180.67
  Q 175.62 181.33 175.41 181.45
  L 173.91 182.34
  Q 173.57 182.54 173.53 182.93
  L 172.97 188.51
  A 0.49 0.49 0.0 0 1 171.99 188.49
  Q 171.58 181.97 170.81 175.12
  Q 167.98 149.71 180.18 127.30
  A 0.25 0.25 0.0 0 0 179.79 127.01
  L 176.36 130.55
  Q 176.04 130.87 175.60 130.89
  Q 174.58 130.95 174.21 131.34
  Q 168.80 137.00 164.67 143.65
  Q 164.41 144.08 163.55 144.86
  Q 162.81 145.53 162.76 146.43
  A 0.76 0.76 0.0 0 1 161.87 147.14
  Q 161.36 147.05 161.33 146.46
  C 167.55 135.53 178.59 121.23 190.37 115.60
  C 194.88 113.45 199.07 116.39 201.19 120.33
  C 213.26 142.77 217.88 167.62 210.10 192.94
  Z"
/>
<path fill="#30d083" d="
  M 152.56 163.68
  L 151.72 164.32
  A 0.90 0.86 72.4 0 0 151.37 165.03
  Q 151.39 166.23 150.20 166.14
  Q 149.69 166.11 149.40 166.53
  L 146.10 171.35
  A 0.65 0.64 35.9 0 1 145.18 171.49
  Q 144.44 170.93 144.15 171.70
  A 0.63 0.59 37.7 0 0 144.24 172.27
  L 146.25 174.94
  A 0.51 0.51 0.0 0 1 145.57 175.67
  L 144.75 175.13
  A 0.47 0.47 0.0 0 0 144.03 175.45
  Q 143.68 177.86 141.12 177.60
  A 1.73 1.65 -54.5 0 0 140.18 177.78
  L 134.71 180.61
  Q 134.34 180.79 133.95 180.70
  C 130.76 179.96 128.68 179.35 125.91 177.65
  Q 119.59 173.80 113.49 169.66
  Q 113.10 169.40 112.74 169.69
  Q 112.42 169.95 112.74 170.21
  Q 117.09 173.95 122.04 176.88
  Q 127.20 179.93 129.39 181.91
  Q 140.10 191.61 145.28 205.42
  Q 145.46 205.90 145.36 206.40
  Q 144.81 208.99 145.35 211.60
  A 1.76 1.76 0.0 0 1 144.40 213.53
  Q 134.75 218.28 126.39 225.10
  Q 126.08 225.35 125.69 225.38
  L 125.24 225.41
  Q 110.35 212.16 101.57 194.20
  Q 101.27 192.65 100.70 193.03
  Q 101.13 192.38 101.01 192.24
  L 101.30 190.75
  Q 101.40 190.28 101.12 189.88
  Q 99.59 187.66 98.63 183.88
  Q 98.30 182.59 97.53 183.26
  Q 90.68 160.99 91.26 137.65
  C 91.35 133.62 92.26 126.70 95.70 124.10
  C 98.84 121.73 105.25 123.20 108.40 124.86
  C 126.07 134.17 141.48 147.09 152.56 163.68
  Z"
/>
<path fill="#79e35f" d="
  M 158.70 250.42
  L 157.29 251.28
  Q 156.86 251.54 157.14 251.95
  Q 157.94 253.15 157.83 254.37
  Q 158.34 269.95 155.96 285.03
  Q 155.79 286.10 155.04 287.82
  C 154.03 290.10 154.06 293.18 153.51 294.97
  Q 152.32 298.84 151.36 302.00
  C 148.90 306.59 146.88 311.96 144.82 315.74
  Q 135.48 332.81 120.83 345.86
  Q 116.74 349.49 111.80 350.57
  C 107.48 351.51 103.21 346.05 101.48 342.66
  Q 95.99 331.87 93.66 320.84
  Q 97.54 316.80 100.15 310.88
  Q 104.46 301.13 106.93 291.50
  Q 106.93 291.48 109.57 277.44
  C 114.10 253.41 126.71 232.24 146.88 218.20
  Q 147.29 217.92 147.36 217.42
  Q 147.49 216.54 147.12 215.48
  Q 147.53 213.85 147.15 213.73
  Q 144.23 187.84 152.99 164.03
  L 161.33 146.46
  Q 161.36 147.05 161.87 147.14
  A 0.76 0.76 0.0 0 0 162.76 146.43
  Q 162.81 145.53 163.55 144.86
  Q 164.41 144.08 164.67 143.65
  Q 168.80 137.00 174.21 131.34
  Q 174.58 130.95 175.60 130.89
  Q 176.04 130.87 176.36 130.55
  L 179.79 127.01
  A 0.25 0.25 0.0 0 1 180.18 127.30
  Q 167.98 149.71 170.81 175.12
  Q 171.58 181.97 171.99 188.49
  A 0.49 0.49 0.0 0 0 172.97 188.51
  L 173.53 182.93
  Q 173.57 182.54 173.91 182.34
  L 175.41 181.45
  Q 175.62 181.33 175.14 180.67
  Q 175.02 180.50 175.26 180.16
  Q 175.41 179.94 175.62 179.78
  Q 177.56 178.22 176.34 175.85
  A 0.62 0.61 62.8 0 1 176.60 175.02
  Q 178.48 174.04 177.85 172.00
  Q 177.63 171.29 178.37 171.37
  Q 179.24 171.47 179.29 170.38
  Q 179.31 170.00 178.99 169.78
  Q 178.89 169.70 178.77 169.64
  Q 178.55 169.53 178.72 169.35
  Q 180.13 167.91 179.90 165.88
  Q 179.85 165.42 180.13 165.05
  Q 182.56 161.89 185.15 158.87
  C 186.31 157.52 186.70 155.70 187.95 154.26
  Q 188.22 153.95 188.32 153.56
  L 190.35 145.73
  A 0.49 0.49 0.0 0 1 191.29 145.71
  C 191.75 147.25 190.82 148.85 190.66 150.09
  Q 188.94 162.69 189.21 175.39
  Q 189.52 189.84 189.33 192.36
  C 187.87 211.82 180.69 230.09 166.27 243.67
  Q 165.59 244.31 162.21 246.66
  Q 159.89 248.27 158.70 250.42
  Z"
/>
<path fill="#28b36f" d="
  M 152.56 163.68
  Q 152.33 163.72 152.99 164.03
  Q 144.23 187.84 147.15 213.73
  Q 135.93 218.82 126.30 226.57
  Q 125.19 225.99 125.24 225.41
  L 125.69 225.38
  Q 126.08 225.35 126.39 225.10
  Q 134.75 218.28 144.40 213.53
  A 1.76 1.76 0.0 0 0 145.35 211.60
  Q 144.81 208.99 145.36 206.40
  Q 145.46 205.90 145.28 205.42
  Q 140.10 191.61 129.39 181.91
  Q 127.20 179.93 122.04 176.88
  Q 117.09 173.95 112.74 170.21
  Q 112.42 169.95 112.74 169.69
  Q 113.10 169.40 113.49 169.66
  Q 119.59 173.80 125.91 177.65
  C 128.68 179.35 130.76 179.96 133.95 180.70
  Q 134.34 180.79 134.71 180.61
  L 140.18 177.78
  A 1.73 1.65 -54.5 0 1 141.12 177.60
  Q 143.68 177.86 144.03 175.45
  A 0.47 0.47 0.0 0 1 144.75 175.13
  L 145.57 175.67
  A 0.51 0.51 0.0 0 0 146.25 174.94
  L 144.24 172.27
  A 0.63 0.59 37.7 0 1 144.15 171.70
  Q 144.44 170.93 145.18 171.49
  A 0.65 0.64 35.9 0 0 146.10 171.35
  L 149.40 166.53
  Q 149.69 166.11 150.20 166.14
  Q 151.39 166.23 151.37 165.03
  A 0.90 0.86 72.4 0 1 151.72 164.32
  L 152.56 163.68
  Z"
/>
<path fill="#28b36f" d="
  M 97.53 183.26
  Q 98.30 182.59 98.63 183.88
  Q 99.59 187.66 101.12 189.88
  Q 101.40 190.28 101.30 190.75
  L 101.01 192.24
  L 97.53 183.26
  Z"
/>
<path fill="#24aba2" d="
  M 100.70 193.03
  Q 101.27 192.65 101.57 194.20
  Q 101.41 194.34 101.37 194.52
  Q 101.33 194.78 101.07 194.76
  Q 83.18 193.33 65.96 198.37
  Q 61.61 199.64 58.87 201.35
  Q 54.51 204.06 51.11 205.36
  Q 50.21 205.70 49.86 205.33
  Q 49.44 204.89 49.74 203.69
  Q 73.95 191.12 100.70 193.03
  Z"
/>
<path fill="#24aba2" d="
  M 210.10 192.94
  C 218.15 192.76 226.66 192.37 234.22 194.00
  Q 241.84 195.65 251.31 198.95
  Q 260.86 202.29 266.19 210.10
  L 248.30 209.99
  Q 234.47 212.02 223.48 219.26
  C 218.76 222.37 212.24 227.46 206.88 230.09
  Q 196.20 235.33 184.02 235.41
  Q 183.41 235.42 183.76 234.93
  Q 184.09 234.47 184.65 234.39
  Q 185.21 234.32 185.60 233.91
  Q 193.32 225.65 200.00 216.53
  Q 200.43 215.94 199.23 215.48
  Q 206.46 204.68 210.10 192.94
  Z"
/>
<path fill="#2f9ea6" d="
  M 101.57 194.20
  Q 110.35 212.16 125.24 225.41
  Q 125.19 225.99 126.30 226.57
  L 124.14 228.44
  Q 112.72 238.17 104.83 251.00
  Q 104.62 250.41 103.73 250.74
  Q 108.47 242.34 114.98 235.64
  A 0.70 0.70 0.0 0 0 114.72 234.49
  Q 100.21 229.26 85.39 224.07
  C 74.30 220.18 62.18 217.49 50.84 218.76
  Q 50.75 218.77 50.68 218.83
  Q 50.56 218.92 50.50 219.02
  Q 50.41 219.17 50.28 219.05
  Q 45.37 214.86 44.47 213.22
  Q 43.10 210.74 45.60 208.86
  Q 46.94 207.86 49.37 203.94
  Q 48.93 204.02 49.74 203.69
  Q 49.44 204.89 49.86 205.33
  Q 50.21 205.70 51.11 205.36
  Q 54.51 204.06 58.87 201.35
  Q 61.61 199.64 65.96 198.37
  Q 83.18 193.33 101.07 194.76
  Q 101.33 194.78 101.37 194.52
  Q 101.41 194.34 101.57 194.20
  Z"
/>
<path fill="#deffc7" d="
  M 323.48 218.03
  L 313.90 227.99
  L 303.63 228.07
  Q 303.05 228.08 303.04 228.66
  L 302.98 237.43
  L 292.53 244.74
  L 292.52 196.28
  A 0.53 0.52 -90.0 0 1 293.04 195.75
  L 302.39 195.77
  A 0.62 0.61 90.0 0 1 303.00 196.39
  L 302.99 217.48
  Q 302.99 217.99 303.49 217.99
  L 323.48 218.03
  Z"
/>
<path fill="#deffc7" d="
  M 337.18 205.16
  Q 330.80 208.65 327.00 214.97
  L 326.94 196.31
  Q 326.94 195.75 327.49 195.75
  L 336.73 195.76
  Q 337.22 195.76 337.21 196.24
  L 337.18 205.16
  Z"
/>
<path fill="#24aba2" d="
  M 49.37 203.94
  Q 46.94 207.86 45.60 208.86
  Q 43.10 210.74 44.47 213.22
  Q 45.37 214.86 50.28 219.05
  Q 50.41 219.17 50.50 219.02
  Q 50.56 218.92 50.68 218.83
  Q 50.75 218.77 50.84 218.76
  C 62.18 217.49 74.30 220.18 85.39 224.07
  Q 100.21 229.26 114.72 234.49
  A 0.70 0.70 0.0 0 1 114.98 235.64
  Q 108.47 242.34 103.73 250.74
  Q 103.53 251.04 102.88 250.86
  Q 84.37 245.88 67.74 235.92
  Q 66.53 235.08 64.97 234.96
  Q 64.46 234.92 64.11 235.29
  C 63.41 236.04 63.02 236.78 62.16 237.36
  Q 56.48 241.16 51.27 245.58
  Q 50.69 246.07 50.16 246.27
  Q 48.22 247.02 48.99 245.15
  L 64.46 234.24
  A 1.34 1.34 0.0 0 0 64.37 232.00
  C 56.78 227.50 46.61 220.43 42.87 212.10
  A 1.32 1.29 -49.4 0 1 42.81 211.19
  Q 44.22 206.40 49.37 203.94
  Z"
/>
<path fill="#aff57c" d="
  M 337.18 205.16
  L 337.21 214.69
  Q 329.98 220.42 325.61 227.94
  L 313.90 227.99
  L 323.48 218.03
  L 326.25 217.98
  Q 326.80 217.97 326.83 217.42
  L 327.00 214.97
  Q 330.80 208.65 337.18 205.16
  Z"
/>
<path fill="#2f9ea6" d="
  M 266.19 210.10
  Q 266.66 212.72 264.55 216.56
  Q 262.93 217.38 261.53 218.72
  C 258.59 221.54 255.32 223.93 252.29 226.67
  Q 252.05 226.88 251.22 228.09
  Q 250.76 228.76 250.00 228.89
  Q 249.52 228.96 249.07 229.15
  Q 247.25 229.89 246.64 231.64
  Q 246.47 232.12 245.96 232.12
  L 244.29 232.12
  Q 243.74 232.12 243.84 232.66
  Q 244.31 235.21 241.99 235.65
  C 227.72 243.68 214.29 249.68 198.18 252.60
  Q 196.28 251.05 199.50 250.90
  A 0.48 0.48 0.0 0 0 199.54 249.95
  Q 198.42 249.81 197.89 249.02
  Q 197.48 248.41 197.69 247.36
  Q 198.08 245.39 198.99 243.57
  Q 199.23 243.10 199.71 242.90
  Q 200.58 242.54 200.19 241.83
  Q 199.91 241.33 200.32 240.93
  Q 204.77 236.58 206.17 235.54
  Q 208.53 233.77 210.05 232.02
  Q 212.02 229.75 213.44 228.70
  Q 215.73 227.01 217.83 225.08
  Q 218.41 224.55 220.18 224.05
  Q 220.62 223.93 220.87 223.53
  Q 221.66 222.25 223.08 221.89
  Q 223.64 221.75 223.95 221.27
  L 224.30 220.72
  Q 224.51 220.39 224.89 220.29
  Q 228.35 219.31 231.19 217.04
  Q 233.17 215.44 234.74 215.15
  Q 236.56 214.81 237.85 214.11
  Q 239.95 212.97 240.74 212.78
  Q 242.99 212.25 247.13 211.39
  Q 248.24 211.15 248.30 209.99
  L 266.19 210.10
  Z"
/>
<path fill="#268a95" d="
  M 248.30 209.99
  Q 248.24 211.15 247.13 211.39
  Q 242.99 212.25 240.74 212.78
  Q 239.95 212.97 237.85 214.11
  Q 236.56 214.81 234.74 215.15
  Q 233.17 215.44 231.19 217.04
  Q 228.35 219.31 224.89 220.29
  Q 224.51 220.39 224.30 220.72
  L 223.95 221.27
  Q 223.64 221.75 223.08 221.89
  Q 221.66 222.25 220.87 223.53
  Q 220.62 223.93 220.18 224.05
  Q 218.41 224.55 217.83 225.08
  Q 215.73 227.01 213.44 228.70
  Q 212.02 229.75 210.05 232.02
  Q 208.53 233.77 206.17 235.54
  Q 204.77 236.58 200.32 240.93
  Q 199.91 241.33 200.19 241.83
  Q 200.58 242.54 199.71 242.90
  Q 199.23 243.10 198.99 243.57
  Q 198.08 245.39 197.69 247.36
  Q 197.48 248.41 197.89 249.02
  Q 198.42 249.81 199.54 249.95
  A 0.48 0.48 0.0 0 1 199.50 250.90
  Q 196.28 251.05 198.18 252.60
  L 193.08 252.95
  Q 186.83 244.96 178.27 238.26
  Q 190.39 228.43 199.23 215.48
  Q 200.43 215.94 200.00 216.53
  Q 193.32 225.65 185.60 233.91
  Q 185.21 234.32 184.65 234.39
  Q 184.09 234.47 183.76 234.93
  Q 183.41 235.42 184.02 235.41
  Q 196.20 235.33 206.88 230.09
  C 212.24 227.46 218.76 222.37 223.48 219.26
  Q 234.47 212.02 248.30 209.99
  Z"
/>
<path fill="#79e35f" d="
  M 386.38 232.65
  A 20.51 20.51 0.0 0 1 365.87 253.16
  A 20.51 20.51 0.0 0 1 345.36 232.65
  A 20.51 20.51 0.0 0 1 365.87 212.14
  A 20.51 20.51 0.0 0 1 386.38 232.65
  Z
  M 366.0370 243.8692
  A 11.21 10.35 89.3 0 0 376.2492 232.5336
  A 11.21 10.35 89.3 0 0 365.7630 221.4508
  A 11.21 10.35 89.3 0 0 355.5508 232.7864
  A 11.21 10.35 89.3 0 0 366.0370 243.8692
  Z"
/>
<path fill="#79e35f" d="
  M 424.50 215.55
  Q 423.14 220.96 418.95 223.86
  C 413.68 220.10 407.93 220.83 404.06 226.01
  Q 399.17 232.54 404.94 240.82
  Q 399.79 246.98 392.53 251.49
  L 392.51 214.44
  A 0.99 0.99 0.0 0 1 393.50 213.45
  L 401.24 213.48
  Q 402.01 213.48 402.01 214.24
  L 402.00 217.47
  A 0.48 0.48 0.0 0 0 402.87 217.75
  C 407.99 210.75 418.05 211.09 424.50 215.55
  Z"
/>
<path fill="#2f9ea6" d="
  M 474.33 221.68
  Q 469.74 222.24 465.57 224.15
  C 460.05 217.80 450.57 219.64 448.04 227.74
  L 438.21 227.91
  C 441.34 215.27 454.03 209.24 465.74 213.83
  Q 471.51 216.09 474.33 221.68
  Z"
/>
<path fill="#deffc7" d="
  M 147.15 213.73
  Q 147.53 213.85 147.12 215.48
  Q 137.98 219.73 129.80 225.79
  Q 129.12 226.29 127.31 227.21
  Q 125.98 227.89 124.90 228.98
  Q 124.53 229.35 124.23 228.92
  Q 124.06 228.67 124.14 228.44
  L 126.30 226.57
  Q 135.93 218.82 147.15 213.73
  Z"
/>
<path fill="#79e35f" d="
  M 337.21 214.69
  L 337.25 251.29
  A 0.55 0.55 0.0 0 1 336.71 251.84
  L 327.54 251.92
  Q 326.94 251.93 326.93 251.32
  Q 326.82 239.88 326.74 228.51
  Q 326.74 227.91 325.61 227.94
  Q 329.98 220.42 337.21 214.69
  Z"
/>
<path fill="#aff57c" d="
  M 147.12 215.48
  Q 147.49 216.54 147.36 217.42
  Q 147.29 217.92 146.88 218.20
  C 126.71 232.24 114.10 253.41 109.57 277.44
  Q 106.93 291.48 106.93 291.50
  Q 104.46 301.13 100.15 310.88
  Q 97.54 316.80 93.66 320.84
  Q 89.05 301.92 92.56 283.76
  Q 93.32 279.82 94.11 275.73
  Q 97.62 262.68 104.83 251.00
  Q 112.72 238.17 124.14 228.44
  Q 124.06 228.67 124.23 228.92
  Q 124.53 229.35 124.90 228.98
  Q 125.98 227.89 127.31 227.21
  Q 129.12 226.29 129.80 225.79
  Q 137.98 219.73 147.12 215.48
  Z"
/>
<path fill="#aff57c" d="
  M 424.50 215.55
  Q 431.16 220.43 432.34 228.15
  L 426.15 233.47
  Q 424.36 235.16 422.62 235.45
  Q 423.82 228.25 418.95 223.86
  Q 423.14 220.96 424.50 215.55
  Z"
/>
<path fill="#196f7e" d="
  M 264.55 216.56
  Q 256.55 227.43 244.68 233.56
  A 0.90 0.90 0.0 0 0 244.61 235.12
  Q 251.89 239.61 258.51 245.22
  C 266.85 252.27 268.85 259.49 257.73 265.00
  Q 241.49 273.05 223.53 274.85
  Q 217.89 273.69 212.09 274.23
  A 1.40 1.36 61.2 0 1 211.07 273.92
  Q 208.39 271.73 208.63 268.42
  A 1.06 1.05 -14.3 0 1 209.13 267.58
  Q 210.07 267.00 210.15 265.91
  Q 210.17 265.48 210.59 265.35
  L 211.56 265.04
  Q 212.06 264.88 212.40 264.49
  Q 213.10 263.69 212.78 263.11
  Q 212.41 262.44 213.11 262.14
  Q 215.87 260.98 217.76 258.75
  A 1.04 1.04 0.0 0 0 217.51 257.20
  L 213.28 254.56
  A 1.09 1.09 0.0 0 1 213.59 252.58
  Q 219.34 251.13 224.04 249.15
  Q 224.13 249.11 224.72 248.72
  Q 225.25 248.37 225.96 248.71
  Q 226.39 248.92 226.59 248.48
  Q 227.86 245.62 230.68 245.76
  Q 232.39 245.84 233.02 244.74
  A 0.43 0.43 0.0 0 1 233.77 244.75
  L 234.09 245.35
  A 0.40 0.39 40.9 0 0 234.81 245.30
  Q 235.57 243.15 237.77 243.35
  A 0.72 0.71 16.4 0 0 238.46 242.98
  Q 239.34 241.32 241.05 241.57
  Q 241.51 241.63 241.86 241.34
  L 243.77 239.74
  A 0.82 0.82 0.0 0 0 243.93 238.66
  L 241.99 235.65
  Q 244.31 235.21 243.84 232.66
  Q 243.74 232.12 244.29 232.12
  L 245.96 232.12
  Q 246.47 232.12 246.64 231.64
  Q 247.25 229.89 249.07 229.15
  Q 249.52 228.96 250.00 228.89
  Q 250.76 228.76 251.22 228.09
  Q 252.05 226.88 252.29 226.67
  C 255.32 223.93 258.59 221.54 261.53 218.72
  Q 262.93 217.38 264.55 216.56
  Z"
/>
<path fill="#062128" d="
  M 465.57 224.15
  Q 466.72 225.47 466.95 227.13
  A 0.58 0.58 0.0 0 1 466.37 227.79
  L 448.04 227.74
  C 450.57 219.64 460.05 217.80 465.57 224.15
  Z"
/>
<path fill="#062128" d="
  M 418.95 223.86
  Q 423.82 228.25 422.62 235.45
  Q 420.08 243.73 411.43 243.94
  Q 407.38 242.95 404.94 240.82
  Q 399.17 232.54 404.06 226.01
  C 407.93 220.83 413.68 220.10 418.95 223.86
  Z"
/>
<path fill="#268a95" d="
  M 474.33 221.68
  Q 477.23 227.67 476.68 234.02
  A 0.91 0.90 -87.2 0 1 475.78 234.84
  L 448.04 234.78
  Q 447.52 234.78 447.59 235.29
  Q 448.30 240.86 453.70 243.42
  Q 452.38 244.42 456.61 245.30
  A 0.81 0.80 -82.6 0 1 457.25 246.14
  L 456.91 251.20
  Q 456.87 251.86 456.28 251.55
  L 454.19 250.44
  Q 453.80 250.23 453.48 250.53
  Q 452.25 251.65 452.47 252.30
  C 441.43 249.46 435.95 238.81 438.21 227.91
  L 448.04 227.74
  L 466.37 227.79
  A 0.58 0.58 0.0 0 0 466.95 227.13
  Q 466.72 225.47 465.57 224.15
  Q 469.74 222.24 474.33 221.68
  Z"
/>
<path fill="#196f7e" d="
  M 432.34 228.15
  Q 433.56 232.84 432.20 237.99
  L 426.15 233.47
  L 432.34 228.15
  Z"
/>
<path fill="#30d083" d="
  M 426.15 233.47
  L 432.20 237.99
  Q 428.95 251.40 415.53 253.05
  Q 409.34 253.80 404.30 249.00
  L 411.43 243.94
  Q 420.08 243.73 422.62 235.45
  Q 424.36 235.16 426.15 233.47
  Z"
/>
<path fill="#196f7e" d="
  M 67.74 235.92
  Q 65.28 236.21 66.85 238.37
  Q 67.15 238.79 67.68 238.84
  Q 70.87 239.14 72.42 241.79
  Q 72.68 242.25 73.14 242.50
  Q 77.12 244.74 78.42 249.15
  Q 78.54 249.57 78.34 249.95
  Q 75.46 255.25 71.93 260.09
  C 71.38 260.84 70.50 261.11 69.80 261.73
  Q 68.89 262.53 68.16 262.81
  C 65.18 263.94 60.84 265.91 57.63 265.39
  Q 55.99 265.13 54.35 265.09
  C 52.28 265.03 51.11 264.27 49.41 263.34
  Q 47.80 262.46 46.62 260.61
  Q 45.29 258.53 43.69 256.49
  Q 43.18 249.76 48.99 245.15
  Q 48.22 247.02 50.16 246.27
  Q 50.69 246.07 51.27 245.58
  Q 56.48 241.16 62.16 237.36
  C 63.02 236.78 63.41 236.04 64.11 235.29
  Q 64.46 234.92 64.97 234.96
  Q 66.53 235.08 67.74 235.92
  Z"
/>
<path fill="#125c6d" d="
  M 241.99 235.65
  L 243.93 238.66
  A 0.82 0.82 0.0 0 1 243.77 239.74
  L 241.86 241.34
  Q 241.51 241.63 241.05 241.57
  Q 239.34 241.32 238.46 242.98
  A 0.72 0.71 16.4 0 1 237.77 243.35
  Q 235.57 243.15 234.81 245.30
  A 0.40 0.39 40.9 0 1 234.09 245.35
  L 233.77 244.75
  A 0.43 0.43 0.0 0 0 233.02 244.74
  Q 232.39 245.84 230.68 245.76
  Q 227.86 245.62 226.59 248.48
  Q 226.39 248.92 225.96 248.71
  Q 225.25 248.37 224.72 248.72
  Q 224.13 249.11 224.04 249.15
  Q 219.34 251.13 213.59 252.58
  A 1.09 1.09 0.0 0 0 213.28 254.56
  L 217.51 257.20
  A 1.04 1.04 0.0 0 1 217.76 258.75
  Q 215.87 260.98 213.11 262.14
  Q 212.41 262.44 212.78 263.11
  Q 213.10 263.69 212.40 264.49
  Q 212.06 264.88 211.56 265.04
  L 210.59 265.35
  Q 210.17 265.48 210.15 265.91
  Q 210.07 267.00 209.13 267.58
  A 1.06 1.05 -14.3 0 0 208.63 268.42
  Q 208.39 271.73 211.07 273.92
  A 1.40 1.36 61.2 0 0 212.09 274.23
  Q 217.89 273.69 223.53 274.85
  Q 214.39 275.51 205.43 274.32
  Q 200.92 263.00 193.08 252.95
  L 198.18 252.60
  C 214.29 249.68 227.72 243.68 241.99 235.65
  Z"
/>
<path fill="#125c6d" d="
  M 67.74 235.92
  Q 84.37 245.88 102.88 250.86
  Q 103.53 251.04 103.73 250.74
  Q 104.62 250.41 104.83 251.00
  Q 97.62 262.68 94.11 275.73
  Q 80.62 275.83 67.88 271.64
  Q 57.51 268.23 50.78 265.56
  Q 44.49 263.07 43.69 256.49
  Q 45.29 258.53 46.62 260.61
  Q 47.80 262.46 49.41 263.34
  C 51.11 264.27 52.28 265.03 54.35 265.09
  Q 55.99 265.13 57.63 265.39
  C 60.84 265.91 65.18 263.94 68.16 262.81
  Q 68.89 262.53 69.80 261.73
  C 70.50 261.11 71.38 260.84 71.93 260.09
  Q 75.46 255.25 78.34 249.95
  Q 78.54 249.57 78.42 249.15
  Q 77.12 244.74 73.14 242.50
  Q 72.68 242.25 72.42 241.79
  Q 70.87 239.14 67.68 238.84
  Q 67.15 238.79 66.85 238.37
  Q 65.28 236.21 67.74 235.92
  Z"
/>
<path fill="#aff57c" d="
  M 302.98 237.43
  L 302.97 251.31
  Q 302.97 251.84 302.44 251.85
  L 293.06 251.87
  Q 292.53 251.87 292.53 251.34
  L 292.53 244.74
  L 302.98 237.43
  Z"
/>
<path fill="#30d083" d="
  M 178.27 238.26
  Q 186.83 244.96 193.08 252.95
  Q 200.92 263.00 205.43 274.32
  Q 210.39 289.22 211.91 304.72
  L 211.64 309.08
  Q 211.61 309.59 211.32 310.00
  Q 210.46 311.22 210.99 312.70
  Q 211.14 313.11 211.12 313.55
  L 210.61 330.29
  A 0.94 0.90 -23.2 0 1 210.35 330.90
  L 209.98 331.26
  Q 209.38 331.86 209.15 331.05
  C 204.51 315.22 195.56 299.19 181.18 290.33
  Q 175.56 286.86 175.55 286.85
  Q 166.79 280.65 161.46 271.11
  Q 160.17 268.81 161.03 265.02
  Q 161.64 262.37 160.12 258.65
  A 0.71 0.70 -52.0 0 1 160.08 258.32
  Q 160.36 256.20 159.08 254.57
  Q 158.87 254.31 158.87 253.98
  L 158.87 252.74
  A 0.20 0.20 0.0 0 0 158.47 252.70
  C 158.05 254.55 158.88 255.71 158.87 257.42
  Q 158.87 257.44 158.87 257.42
  Q 158.83 257.29 158.69 257.22
  Q 158.42 257.07 158.45 256.77
  Q 158.63 255.19 157.83 254.37
  Q 157.94 253.15 157.14 251.95
  Q 156.86 251.54 157.29 251.28
  L 158.70 250.42
  Q 169.45 245.37 178.27 238.26
  Z"
/>
<path fill="#2f9ea6" d="
  M 452.47 252.30
  Q 452.25 251.65 453.48 250.53
  Q 453.80 250.23 454.19 250.44
  L 456.28 251.55
  Q 456.87 251.86 456.91 251.20
  L 457.25 246.14
  A 0.81 0.80 -82.6 0 0 456.61 245.30
  Q 452.38 244.42 453.70 243.42
  Q 462.52 246.08 467.45 239.10
  A 0.76 0.76 0.0 0 1 468.40 238.85
  L 475.54 242.39
  A 0.61 0.61 0.0 0 1 475.78 243.28
  Q 467.50 255.56 452.47 252.30
  Z"
/>
<path fill="#aff57c" d="
  M 404.94 240.82
  Q 407.38 242.95 411.43 243.94
  L 404.30 249.00
  Q 403.70 247.95 402.54 247.44
  Q 401.98 247.20 402.04 247.80
  L 402.26 250.15
  L 392.62 255.37
  L 392.53 251.49
  Q 399.79 246.98 404.94 240.82
  Z"
/>
<path fill="#30d083" d="
  M 402.26 250.15
  L 402.46 268.50
  Q 402.46 268.96 402.01 268.96
  L 393.24 268.92
  A 0.75 0.74 -90.0 0 1 392.50 268.17
  L 392.62 255.37
  L 402.26 250.15
  Z"
/>
<path fill="#28b36f" d="
  M 211.91 304.72
  Q 212.61 318.46 212.14 332.26
  C 212.09 333.88 211.00 337.08 209.92 338.59
  Q 205.15 345.26 196.51 341.13
  C 190.05 338.05 184.81 334.62 178.72 330.28
  Q 162.73 318.91 151.36 302.00
  Q 152.32 298.84 153.51 294.97
  C 154.06 293.18 154.03 290.10 155.04 287.82
  Q 155.79 286.10 155.96 285.03
  Q 158.34 269.95 157.83 254.37
  Q 158.63 255.19 158.45 256.77
  Q 158.42 257.07 158.69 257.22
  Q 158.83 257.29 158.87 257.42
  Q 158.87 257.44 158.87 257.42
  C 158.88 255.71 158.05 254.55 158.47 252.70
  A 0.20 0.20 0.0 0 1 158.87 252.74
  L 158.87 253.98
  Q 158.87 254.31 159.08 254.57
  Q 160.36 256.20 160.08 258.32
  A 0.71 0.70 -52.0 0 0 160.12 258.65
  Q 161.64 262.37 161.03 265.02
  Q 160.17 268.81 161.46 271.11
  Q 166.79 280.65 175.55 286.85
  Q 175.56 286.86 181.18 290.33
  C 195.56 299.19 204.51 315.22 209.15 331.05
  Q 209.38 331.86 209.98 331.26
  L 210.35 330.90
  A 0.94 0.90 -23.2 0 0 210.61 330.29
  L 211.12 313.55
  Q 211.14 313.11 210.99 312.70
  Q 210.46 311.22 211.32 310.00
  Q 211.61 309.59 211.64 309.08
  L 211.91 304.72
  Z"
/>
</g>
<ellipse fill="#062128" cx="0.00" cy="0.00" transform="translate(365.90,232.66) rotate(89.3)" rx="11.21" ry="10.35"/>
</svg>
