<?xml version="1.0" encoding="UTF-8" standalone="no"?>
<!DOCTYPE svg PUBLIC "-//W3C//DTD SVG 1.1//EN" "http://www.w3.org/Graphics/SVG/1.1/DTD/svg11.dtd">
<svg xmlns="http://www.w3.org/2000/svg" version="1.1" viewBox="0.00 0.00 500.00 500.00">
<g stroke-width="2.00" fill="none" stroke-linecap="butt">
<path stroke="#448243" vector-effect="non-scaling-stroke" d="
  M 252.13 95.74
  L 249.85 100.77"
/>
<path stroke="#176b4c" vector-effect="non-scaling-stroke" d="
  M 249.85 100.77
  Q 248.95 100.62 249.24 100.41"
/>
<path stroke="#1b7956" vector-effect="non-scaling-stroke" d="
  M 249.24 100.41
  Q 234.05 78.33 208.93 66.00
  Q 205.24 64.19 201.73 64.46
  Q 201.16 64.51 200.78 64.93
  Q 195.12 71.19 195.56 81.02
  Q 196.23 95.99 197.13 101.74
  Q 199.00 113.71 203.86 124.78
  Q 204.42 126.06 203.56 126.36"
/>
<path stroke="#1f6464" vector-effect="non-scaling-stroke" d="
  M 203.56 126.36
  Q 196.84 125.44 189.01 126.52
  Q 171.78 128.88 157.31 136.84
  C 156.23 137.44 155.14 138.55 154.30 139.41"
/>
<path stroke="#1b6067" vector-effect="non-scaling-stroke" d="
  M 154.30 139.41
  Q 152.79 141.02 153.16 142.25
  Q 154.62 146.99 158.69 150.71"
/>
<path stroke="#1f6464" vector-effect="non-scaling-stroke" d="
  M 158.69 150.71
  Q 165.21 156.85 172.41 160.96
  A 0.86 0.86 0.0 0 1 172.41 162.46
  Q 164.63 166.89 157.93 173.13"
/>
<path stroke="#114d58" vector-effect="non-scaling-stroke" d="
  M 157.93 173.13
  C 155.42 175.93 151.84 180.62 154.67 184.38
  Q 155.27 185.18 156.60 187.88"
/>
<path stroke="#0c3f4b" vector-effect="non-scaling-stroke" d="
  M 156.60 187.88
  Q 163.54 191.90 171.45 194.47
  Q 177.40 196.40 180.03 197.12
  Q 184.19 198.25 188.88 198.79
  Q 193.69 199.34 198.42 197.68"
/>
<path stroke="#5b8c53" vector-effect="non-scaling-stroke" d="
  M 198.42 197.68
  L 196.71 207.58"
/>
<path stroke="#448243" vector-effect="non-scaling-stroke" d="
  M 196.71 207.58
  Q 195.53 210.30 195.68 213.52"
/>
<path stroke="#176b4c" vector-effect="non-scaling-stroke" d="
  M 195.68 213.52
  Q 194.56 219.24 195.42 225.19"
/>
<path stroke="#448243" vector-effect="non-scaling-stroke" d="
  M 195.42 225.19
  L 196.64 234.83"
/>
<path stroke="#307c3b" vector-effect="non-scaling-stroke" d="
  M 196.64 234.83
  Q 198.51 243.70 201.76 252.25
  C 202.97 255.40 207.59 264.85 211.50 264.95
  C 215.16 265.04 219.07 262.80 222.08 260.21
  C 234.38 249.59 242.05 236.88 248.32 222.04"
/>
<path stroke="#176b4c" vector-effect="non-scaling-stroke" d="
  M 248.32 222.04
  Q 263.06 243.68 285.66 255.41
  Q 290.76 258.06 294.01 257.89
  C 304.71 257.33 302.81 235.28 301.66 227.91"
/>
<path stroke="#1b7956" vector-effect="non-scaling-stroke" d="
  M 301.66 227.91
  Q 300.90 213.15 295.74 197.75"
/>
<path stroke="#0c3f4b" vector-effect="non-scaling-stroke" d="
  M 295.74 197.75
  Q 307.53 199.49 318.43 197.51"
/>
<path stroke="#114d58" vector-effect="non-scaling-stroke" d="
  M 318.43 197.51
  Q 331.70 195.16 343.36 188.77
  C 347.16 186.68 350.12 185.24 348.22 180.57
  C 344.95 172.58 337.35 167.60 328.97 163.05"
/>
<path stroke="#1b6067" vector-effect="non-scaling-stroke" d="
  M 328.97 163.05
  Q 339.78 157.03 347.15 148.21
  Q 347.48 147.81 347.46 147.30
  L 347.13 140.33"
/>
<path stroke="#1f6464" vector-effect="non-scaling-stroke" d="
  M 347.13 140.33
  Q 344.99 136.18 342.69 134.82
  Q 332.40 128.77 317.90 126.70"
/>
<path stroke="#114d58" vector-effect="non-scaling-stroke" d="
  M 317.90 126.70
  L 312.54 125.82"
/>
<path stroke="#1f6464" vector-effect="non-scaling-stroke" d="
  M 312.54 125.82
  L 305.96 125.81"
/>
<path stroke="#114d58" vector-effect="non-scaling-stroke" d="
  M 305.96 125.81
  Q 304.19 125.58 302.80 126.42"
/>
<path stroke="#1f6464" vector-effect="non-scaling-stroke" d="
  M 302.80 126.42
  L 300.02 126.52"
/>
<path stroke="#5b8c53" vector-effect="non-scaling-stroke" d="
  M 300.02 126.52
  C 306.19 106.24 303.33 87.31 295.10 68.68
  Q 292.27 62.27 286.98 58.28
  A 1.14 1.12 55.2 0 0 286.02 58.10
  C 270.38 62.54 257.98 81.97 252.13 95.74"
/>
<path stroke="#74ce8e" vector-effect="non-scaling-stroke" d="
  M 300.02 126.52
  Q 296.64 136.75 290.77 145.64"
/>
<path stroke="#6fc991" vector-effect="non-scaling-stroke" d="
  M 290.77 145.64
  Q 282.99 157.29 272.33 165.95
  Q 272.07 166.17 272.14 166.50
  Q 272.17 166.65 272.24 166.78"
/>
<path stroke="#70e37f" vector-effect="non-scaling-stroke" d="
  M 272.24 166.78
  L 271.68 166.90
  Q 271.27 166.98 270.92 167.20
  L 256.25 176.35"
/>
<path stroke="#99ec6d" vector-effect="non-scaling-stroke" d="
  M 256.25 176.35
  L 255.61 176.44
  A 0.88 0.63 -52.6 0 1 255.65 174.93
  Q 260.10 172.83 263.56 169.01
  Q 281.78 148.93 281.86 121.47
  C 281.89 112.80 281.27 103.33 282.08 95.52
  Q 283.02 86.37 285.55 77.47
  Q 285.71 76.93 285.19 77.15
  Q 284.38 77.51 284.13 78.51
  Q 283.04 82.90 281.43 87.17
  Q 281.26 87.60 280.85 87.81
  L 275.68 90.35
  Q 275.22 90.57 275.03 91.05
  Q 274.45 92.51 273.07 92.09
  Q 272.54 91.93 272.07 92.24
  Q 268.97 94.31 267.47 97.76
  C 266.91 99.07 266.97 100.52 266.60 102.02
  A 0.37 0.37 0.0 0 1 265.88 101.92
  Q 265.90 101.53 265.59 101.36
  Q 265.07 101.08 265.07 100.49
  Q 265.21 88.22 269.99 76.92
  Q 272.09 71.98 274.04 67.73
  Q 274.66 66.40 273.57 67.38
  Q 265.07 74.99 259.68 84.35
  Q 258.00 87.27 256.18 90.11
  C 254.88 92.13 254.20 94.66 252.73 96.82
  Q 252.14 97.67 252.14 96.64
  L 252.13 95.74"
/>
<path stroke="#2a8f93" vector-effect="non-scaling-stroke" d="
  M 312.54 125.82
  Q 314.61 126.99 317.90 126.70"
/>
<path stroke="#34a2a2" vector-effect="non-scaling-stroke" d="
  M 347.13 140.33
  L 346.89 141.41
  Q 346.76 141.96 346.20 141.89
  Q 326.50 139.21 310.34 150.39
  Q 306.91 152.76 303.47 155.10
  C 295.50 160.53 287.67 163.48 277.86 163.60
  A 0.38 0.38 0.0 0 1 277.60 162.93
  Q 284.11 157.12 289.45 149.93
  Q 289.93 149.29 290.95 148.23
  Q 293.12 145.99 290.77 145.64"
/>
<path stroke="#258a96" vector-effect="non-scaling-stroke" d="
  M 328.97 163.05
  Q 330.15 163.27 327.41 164.00"
/>
<path stroke="#217d89" vector-effect="non-scaling-stroke" d="
  M 327.41 164.00
  Q 307.91 176.23 285.23 179.41"
/>
<path stroke="#30b794" vector-effect="non-scaling-stroke" d="
  M 285.23 179.41
  Q 280.02 172.64 273.16 167.08
  Q 272.70 166.71 272.24 166.78"
/>
<path stroke="#59d970" vector-effect="non-scaling-stroke" d="
  M 256.25 176.35
  L 254.46 177.32"
/>
<path stroke="#6edc55" vector-effect="non-scaling-stroke" d="
  M 254.46 177.32
  Q 253.38 177.55 252.97 176.53
  Q 247.46 162.87 244.70 148.54"
/>
<path stroke="#99ec6d" vector-effect="non-scaling-stroke" d="
  M 244.70 148.54
  Q 245.14 146.50 244.55 144.69"
/>
<path stroke="#55cb66" vector-effect="non-scaling-stroke" d="
  M 244.08 139.63
  Q 243.34 118.68 249.85 100.77"
/>
<path stroke="#2cc279" vector-effect="non-scaling-stroke" d="
  M 301.66 227.91
  L 301.29 249.66
  A 0.61 0.61 0.0 0 1 300.11 249.85
  C 295.39 236.39 290.28 224.62 279.14 215.17
  C 274.86 211.54 269.54 209.47 265.52 205.71
  Q 260.16 200.69 256.70 194.21
  Q 255.39 191.76 255.11 188.51
  Q 254.65 183.02 254.17 177.55"
/>
<path stroke="#2a8f93" vector-effect="non-scaling-stroke" d="
  M 305.96 125.81
  Q 304.49 126.47 302.80 126.42"
/>
<path stroke="#219678" vector-effect="non-scaling-stroke" d="
  M 295.74 197.75
  Q 292.23 188.50 285.23 179.41"
/>
<path stroke="#176a7a" vector-effect="non-scaling-stroke" d="
  M 318.43 197.51
  Q 310.13 198.18 301.85 196.01
  A 0.82 0.82 0.0 0 1 301.25 195.34
  Q 300.72 191.78 303.57 189.50
  Q 304.95 188.39 305.19 187.01
  Q 305.28 186.50 305.80 186.45
  Q 307.21 186.32 308.11 185.14
  Q 308.47 184.67 308.07 184.23
  L 305.08 181.02
  A 1.53 0.28 -66.2 0 1 305.41 179.63
  Q 305.56 179.29 306.00 179.36
  A 0.91 0.89 33.7 0 0 306.63 179.24
  Q 309.00 177.76 311.73 177.31
  A 2.42 2.39 23.6 0 0 312.67 176.95
  Q 315.77 175.02 319.25 174.74
  Q 319.62 174.71 319.61 174.35
  Q 319.61 174.12 319.62 173.88
  Q 319.63 173.53 319.94 173.69
  Q 320.93 174.18 322.27 173.56
  A 1.21 0.89 -72.0 0 0 322.48 173.41
  Q 324.01 171.91 326.16 171.83
  Q 326.68 171.81 327.06 171.45
  C 328.08 170.48 329.06 170.88 330.00 170.50
  Q 331.77 169.78 332.07 168.12
  Q 332.15 167.64 331.84 167.27
  Q 329.78 164.76 327.41 164.00"
/>
<path stroke="#2cc279" vector-effect="non-scaling-stroke" d="
  M 249.24 100.41
  Q 248.38 101.34 248.09 100.94
  Q 246.82 99.17 245.58 97.33
  Q 245.37 97.01 244.99 96.96
  L 241.31 96.41
  Q 240.90 96.35 240.60 96.63
  L 237.83 99.20
  Q 237.46 99.55 237.25 100.01
  Q 236.81 100.96 235.64 100.58
  A 0.53 0.53 0.0 0 0 235.16 101.50
  Q 239.55 104.84 242.70 109.30
  A 1.13 1.13 0.0 0 1 242.01 111.06
  Q 241.00 111.27 241.02 112.14
  Q 241.03 112.67 240.53 112.84
  Q 237.21 114.02 233.75 114.19
  Q 230.61 114.35 227.26 112.78
  Q 218.13 108.50 210.88 101.30
  Q 210.70 101.12 210.51 101.08
  Q 210.30 101.04 210.14 101.10
  Q 209.59 101.29 209.97 101.74
  Q 215.38 108.14 222.54 112.29
  Q 227.13 114.96 229.02 116.69
  Q 238.85 125.74 244.08 139.63"
/>
<path stroke="#59d970" vector-effect="non-scaling-stroke" d="
  M 244.08 139.63
  L 244.55 144.69"
/>
<path stroke="#70e37f" vector-effect="non-scaling-stroke" d="
  M 244.55 144.69
  Q 235.04 148.93 226.61 155.77"
/>
<path stroke="#30b794" vector-effect="non-scaling-stroke" d="
  M 226.61 155.77
  Q 212.30 143.90 204.38 126.83"
/>
<path stroke="#34bb91" vector-effect="non-scaling-stroke" d="
  M 204.38 126.83
  Q 204.22 126.37 203.56 126.36"
/>
<path stroke="#45d367" vector-effect="non-scaling-stroke" d="
  M 254.46 177.32
  Q 254.55 177.54 254.17 177.55"
/>
<path stroke="#40c45e" vector-effect="non-scaling-stroke" d="
  M 254.17 177.55
  L 253.86 177.60
  Q 253.36 177.69 253.43 178.19
  Q 254.97 189.09 253.98 194.76
  Q 252.62 202.59 251.67 210.51
  Q 251.24 214.20 248.32 222.04"
/>
<path stroke="#6edc55" vector-effect="non-scaling-stroke" d="
  M 196.64 234.83
  Q 198.00 236.29 197.89 238.31
  A 0.32 0.32 0.0 0 0 198.43 238.57
  Q 198.85 238.20 198.78 237.83"
/>
<path stroke="#6edc55" vector-effect="non-scaling-stroke" d="
  M 213.83 192.16
  Q 215.82 191.08 214.64 195.18
  Q 213.62 198.72 213.01 202.36
  Q 212.93 202.83 213.08 203.28
  Q 214.30 206.85 213.94 210.60
  Q 213.89 211.09 214.07 211.55
  Q 214.69 213.20 214.06 214.51
  Q 212.10 218.59 212.72 222.35
  Q 212.82 222.96 212.28 222.67
  L 211.95 222.49
  A 0.30 0.29 -77.9 0 0 211.52 222.77
  Q 211.53 223.07 211.56 223.36
  Q 211.61 223.85 211.27 224.20
  Q 210.18 225.31 210.75 227.27
  Q 211.40 229.52 209.29 229.93
  A 0.76 0.76 0.0 0 0 208.68 230.72
  Q 208.87 233.69 206.41 235.44
  Q 206.02 235.71 206.35 236.06
  Q 206.88 236.62 206.27 237.36
  Q 206.01 237.67 205.63 237.83
  Q 205.28 237.97 205.03 238.22
  Q 204.72 238.53 204.56 239.39
  Q 204.24 241.07 203.20 242.49
  Q 202.87 242.92 202.84 243.46
  Q 202.39 250.87 206.61 256.99
  A 1.52 1.48 -64.2 0 1 206.87 257.77
  Q 206.90 258.74 207.78 259.06
  Q 208.18 259.21 208.33 259.60
  Q 209.16 261.83 212.28 262.29
  Q 216.79 262.94 218.58 259.85
  Q 228.26 243.16 227.94 223.75
  C 227.79 214.84 226.71 204.80 227.15 197.09
  Q 228.31 176.56 238.46 158.58
  Q 238.50 158.52 240.99 154.81
  Q 242.61 152.40 243.37 149.55"
/>
<path stroke="#84e564" vector-effect="non-scaling-stroke" d="
  M 244.70 148.54
  Q 244.29 149.11 243.37 149.55"
/>
<path stroke="#99ec6d" vector-effect="non-scaling-stroke" d="
  M 243.37 149.55
  Q 242.65 149.74 241.25 150.87
  Q 220.77 167.40 213.83 192.16"
/>
<path stroke="#84e564" vector-effect="non-scaling-stroke" d="
  M 213.83 192.16
  C 209.60 208.55 208.82 224.63 198.78 237.83"
/>
<path stroke="#99ec6d" vector-effect="non-scaling-stroke" d="
  M 198.78 237.83
  Q 197.94 237.76 197.88 236.81
  A 1.07 1.05 60.4 0 1 198.05 236.17
  Q 200.19 232.94 197.92 229.79
  A 1.32 1.31 -62.0 0 1 197.67 228.96
  Q 198.07 218.30 196.71 207.58"
/>
<path stroke="#61a975" vector-effect="non-scaling-stroke" d="
  M 198.42 197.68
  Q 201.62 187.19 207.66 177.01"
/>
<path stroke="#6fc991" vector-effect="non-scaling-stroke" d="
  M 226.61 155.77
  Q 215.49 164.77 207.66 177.01"
/>
<path stroke="#217d89" vector-effect="non-scaling-stroke" d="
  M 207.66 177.01
  Q 203.06 176.97 199.02 175.26"
/>
<path stroke="#34a2a2" vector-effect="non-scaling-stroke" d="
  M 199.02 175.26
  C 201.01 174.76 202.14 176.04 203.65 176.24
  Q 204.66 176.38 205.68 176.47
  A 0.71 0.71 0.0 0 0 206.32 176.19
  L 215.73 163.60
  Q 215.94 163.31 215.61 163.18
  Q 192.77 153.96 181.12 151.14
  Q 174.55 149.55 166.26 148.83
  Q 161.04 148.39 158.69 150.71"
/>
<path stroke="#34a2a2" vector-effect="non-scaling-stroke" d="
  M 204.38 126.83
  Q 204.64 127.32 204.59 127.74
  Q 204.52 128.20 204.06 128.15
  C 189.67 126.63 173.35 130.55 159.88 137.10
  Q 157.32 138.35 155.27 140.32
  A 0.50 0.50 0.0 0 1 154.49 140.22
  Q 154.30 139.92 154.30 139.41"
/>
<path stroke="#55cb66" vector-effect="non-scaling-stroke" d="
  M 195.42 225.19
  L 195.68 213.52"
/>
<path stroke="#258186" vector-effect="non-scaling-stroke" d="
  M 199.02 175.26
  Q 187.10 171.22 175.62 164.44"
/>
<path stroke="#2a8f93" vector-effect="non-scaling-stroke" d="
  M 175.62 164.44
  L 173.80 163.67
  Q 173.30 163.46 172.83 163.74
  Q 165.28 168.31 158.74 174.21
  A 0.52 0.52 0.0 0 1 157.87 173.78
  L 157.93 173.13"
/>
<path stroke="#176a7a" vector-effect="non-scaling-stroke" d="
  M 175.62 164.44
  Q 170.46 165.03 176.40 167.16
  C 177.58 167.58 178.34 168.50 179.09 169.42
  A 2.07 2.05 -7.4 0 0 179.85 170.00
  Q 181.50 170.74 182.60 172.09
  Q 183.64 173.36 183.41 175.19
  Q 182.89 179.34 180.12 182.67
  Q 178.95 184.08 178.13 185.73
  A 1.48 1.48 0.0 0 1 177.47 186.39
  Q 170.34 189.87 167.27 190.17
  Q 163.64 190.53 156.60 187.88"
/>
<path stroke="#176b4c" vector-effect="non-scaling-stroke" d="
  M 232.90 291.88
  L 227.34 294.88"
/>
<path stroke="#1b7956" vector-effect="non-scaling-stroke" d="
  M 227.34 294.88
  Q 216.62 305.62 224.51 319.26"
/>
<path stroke="#5b8c53" vector-effect="non-scaling-stroke" d="
  M 224.51 319.26
  L 228.74 323.16"
/>
<path stroke="#448243" vector-effect="non-scaling-stroke" d="
  M 228.74 323.16
  Q 237.20 328.33 245.77 324.81
  C 265.38 316.74 255.55 284.86 232.90 291.88"
/>
<path stroke="#99ec6d" vector-effect="non-scaling-stroke" d="
  M 228.74 323.16
  L 233.53 319.62
  Q 233.96 319.31 233.97 318.79
  L 234.03 315.59"
/>
<path stroke="#448243" vector-effect="non-scaling-stroke" d="
  M 234.03 315.59
  C 243.83 321.37 251.78 307.71 243.19 301.40
  Q 238.69 298.11 233.22 302.30"
/>
<path stroke="#55cb66" vector-effect="non-scaling-stroke" d="
  M 233.22 302.30
  Q 232.63 302.60 232.60 302.00
  Q 232.44 298.29 232.90 291.88"
/>
<path stroke="#176b4c" vector-effect="non-scaling-stroke" d="
  M 233.22 302.30
  L 231.84 303.87"
/>
<path stroke="#2cc279" vector-effect="non-scaling-stroke" d="
  M 231.84 303.87
  Q 228.26 299.98 227.34 294.88"
/>
<path stroke="#5b8c53" vector-effect="non-scaling-stroke" d="
  M 234.03 315.59
  L 232.66 314.68"
/>
<path stroke="#1b7956" vector-effect="non-scaling-stroke" d="
  M 231.84 303.87
  Q 229.09 309.40 232.66 314.68"
/>
<path stroke="#70e37f" vector-effect="non-scaling-stroke" d="
  M 232.66 314.68
  L 224.51 319.26"
/>
<path stroke="#1b6067" vector-effect="non-scaling-stroke" d="
  M 184.54 300.20
  L 184.18 325.14
  A 0.84 0.84 0.0 0 0 185.02 325.99
  L 193.96 325.98
  Q 194.42 325.98 194.40 325.52
  L 193.76 313.04"
/>
<path stroke="#1b7956" vector-effect="non-scaling-stroke" d="
  M 193.76 313.04
  Q 199.49 311.20 206.24 312.24
  A 1.03 1.02 6.1 0 1 207.12 313.32
  L 206.47 325.28
  Q 206.44 325.87 207.03 325.86
  L 214.04 325.77"
/>
<path stroke="#5b8c53" vector-effect="non-scaling-stroke" d="
  M 214.04 325.77
  Q 215.37 326.25 216.50 325.94
  Q 217.03 325.79 216.99 325.24
  L 216.88 323.47"
/>
<path stroke="#1b7956" vector-effect="non-scaling-stroke" d="
  M 216.88 323.47
  L 217.06 292.60
  Q 217.06 292.00 216.46 292.00
  L 207.71 292.00
  Q 206.93 292.00 206.95 292.79
  L 207.26 302.98
  A 0.99 0.99 0.0 0 1 206.27 304.00
  L 195.29 304.00
  A 1.37 1.36 -88.0 0 1 193.93 302.54
  L 194.65 292.60
  Q 194.70 292.01 194.10 292.01
  L 184.75 292.00
  Q 184.24 292.00 184.26 292.51
  L 184.54 300.20"
/>
<path stroke="#70e37f" vector-effect="non-scaling-stroke" d="
  M 216.88 323.47
  L 214.04 325.77"
/>
<path stroke="#30b794" vector-effect="non-scaling-stroke" d="
  M 193.76 313.04
  Q 189.04 307.96 184.54 300.20"
/>
<path stroke="#5b8c53" vector-effect="non-scaling-stroke" d="
  M 277.42 317.99
  C 289.58 317.48 292.44 300.71 283.13 294.20"
/>
<path stroke="#448243" vector-effect="non-scaling-stroke" d="
  M 283.13 294.20
  Q 279.95 292.06 276.00 292.02
  Q 267.87 291.95 259.99 292.03
  A 0.66 0.65 90.0 0 0 259.34 292.69
  L 259.64 325.57
  Q 259.64 326.00 260.07 326.00
  L 269.43 326.00
  Q 269.86 326.00 269.84 325.57
  L 269.44 318.58
  Q 269.41 318.04 269.95 318.04
  L 277.42 317.99"
/>
<path stroke="#99ec6d" vector-effect="non-scaling-stroke" d="
  M 283.13 294.20
  Q 281.69 306.64 277.42 317.99"
/>
<path stroke="#1f6464" vector-effect="non-scaling-stroke" d="
  M 292.26 321.13
  L 292.08 325.30
  A 0.66 0.66 0.0 0 0 292.74 325.99
  L 313.27 326.00
  A 1.25 1.21 64.5 0 1 314.07 326.30
  Q 314.80 326.91 315.48 326.55
  Q 316.06 326.25 316.33 325.24
  Q 317.23 321.98 317.26 318.52
  Q 317.27 318.00 316.75 318.00
  L 304.31 318.01
  A 2.03 2.03 0.0 0 1 302.28 316.06
  L 302.21 314.61
  Q 302.16 313.21 303.55 313.07
  Q 308.98 312.53 314.24 313.57
  Q 315.06 313.74 315.13 312.89
  L 315.67 305.72
  Q 315.73 304.93 314.93 304.91
  L 302.25 304.73"
/>
<path stroke="#5b8c53" vector-effect="non-scaling-stroke" d="
  M 302.25 304.73
  L 302.44 300.84
  Q 302.47 300.21 303.10 300.12
  L 304.80 299.89"
/>
<path stroke="#1f6464" vector-effect="non-scaling-stroke" d="
  M 304.80 299.89
  L 316.21 299.96
  Q 316.72 299.96 316.67 299.46
  L 315.93 292.59
  A 0.65 0.65 0.0 0 0 315.27 292.01
  L 307.97 292.05"
/>
<path stroke="#5b8c53" vector-effect="non-scaling-stroke" d="
  M 307.97 292.05
  L 292.61 292.04
  Q 292.09 292.04 292.10 292.56
  L 292.26 321.13"
/>
<path stroke="#74ce8e" vector-effect="non-scaling-stroke" d="
  M 307.97 292.05
  Q 305.79 295.54 304.80 299.89"
/>
<path stroke="#74ce8e" vector-effect="non-scaling-stroke" d="
  M 302.25 304.73
  L 292.26 321.13"
/>
<path stroke="#0c3f4b" vector-effect="non-scaling-stroke" d="
  M 118.93 373.37
  L 119.41 375.44"
/>
<path stroke="#0b628b" vector-effect="non-scaling-stroke" d="
  M 119.41 375.44
  Q 126.90 389.99 143.74 384.54"
/>
<path stroke="#0c3f4b" vector-effect="non-scaling-stroke" d="
  M 143.74 384.54
  Q 159.44 374.00 149.38 356.95"
/>
<path stroke="#114d58" vector-effect="non-scaling-stroke" d="
  M 149.38 356.95
  Q 142.19 349.79 132.74 351.30
  C 122.02 353.02 116.22 363.13 118.93 373.37"
/>
<path stroke="#176a7a" vector-effect="non-scaling-stroke" d="
  M 149.38 356.95
  Q 147.96 357.29 147.88 358.56
  Q 147.83 359.15 147.24 359.17
  Q 146.27 359.19 145.87 358.30
  Q 145.58 357.67 145.17 358.23
  Q 144.56 359.09 145.15 359.82
  A 1.21 1.21 0.0 0 1 143.99 361.78
  Q 142.69 361.54 142.53 363.52"
/>
<path stroke="#114d58" vector-effect="non-scaling-stroke" d="
  M 142.53 363.52
  C 135.47 354.95 124.71 363.04 128.58 372.94"
/>
<path stroke="#176a7a" vector-effect="non-scaling-stroke" d="
  M 128.58 372.94
  Q 125.01 375.04 118.93 373.37"
/>
<path stroke="#117fad" vector-effect="non-scaling-stroke" d="
  M 143.74 384.54
  Q 130.76 380.88 119.41 375.44"
/>
<path stroke="#0c3f4b" vector-effect="non-scaling-stroke" d="
  M 128.58 372.94
  C 135.22 382.49 147.45 374.11 142.53 363.52"
/>
<path stroke="#448243" vector-effect="non-scaling-stroke" d="
  M 190.80 380.16
  Q 189.76 381.62 190.41 385.45
  Q 190.50 385.98 191.04 385.98
  L 199.39 386.00
  A 0.63 0.63 0.0 0 0 200.03 385.36
  L 199.74 368.02
  Q 199.73 367.12 200.27 367.84
  L 210.03 380.72"
/>
<path stroke="#307c3b" vector-effect="non-scaling-stroke" d="
  M 210.03 380.72
  L 213.53 385.59
  Q 213.82 385.99 214.32 385.99
  L 221.89 386.00
  Q 222.42 386.00 222.43 385.48
  L 222.95 351.65
  A 0.61 0.61 0.0 0 0 222.33 351.03
  L 217.16 351.06"
/>
<path stroke="#448243" vector-effect="non-scaling-stroke" d="
  M 217.16 351.06
  L 213.61 351.03
  Q 213.09 351.03 213.10 351.54
  L 213.23 359.54"
/>
<path stroke="#307c3b" vector-effect="non-scaling-stroke" d="
  M 213.23 359.54
  L 213.48 369.41
  Q 213.49 370.00 212.91 369.89
  Q 212.61 369.83 212.20 369.52"
/>
<path stroke="#448243" vector-effect="non-scaling-stroke" d="
  M 212.20 369.52
  L 201.53 354.67"
/>
<path stroke="#5b8c53" vector-effect="non-scaling-stroke" d="
  M 201.53 354.67
  L 199.29 351.49
  Q 198.94 351.00 198.33 351.00
  L 190.81 351.00
  Q 190.27 351.00 190.28 351.54
  L 190.80 380.16"
/>
<path stroke="#99ec6d" vector-effect="non-scaling-stroke" d="
  M 201.53 354.67
  Q 195.74 366.46 190.80 380.16"
/>
<path stroke="#6edc55" vector-effect="non-scaling-stroke" d="
  M 210.03 380.72
  L 212.20 369.52"
/>
<path stroke="#6edc55" vector-effect="non-scaling-stroke" d="
  M 217.16 351.06
  Q 215.65 354.82 214.74 358.65
  Q 214.59 359.26 214.29 359.47
  Q 213.85 359.76 213.23 359.54"
/>
<path stroke="#0b628b" vector-effect="non-scaling-stroke" d="
  M 345.75 383.18
  C 357.05 389.93 371.70 384.40 372.96 370.63"
/>
<path stroke="#114d58" vector-effect="non-scaling-stroke" d="
  M 372.96 370.63
  Q 373.85 363.69 370.24 358.38
  C 361.74 345.85 341.94 349.74 338.72 364.68
  Q 336.34 375.72 345.75 383.18"
/>
<path stroke="#168cb9" vector-effect="non-scaling-stroke" d="
  M 372.96 370.63
  Q 366.15 375.08 358.85 378.11
  C 357.09 378.85 355.87 380.32 353.53 380.71
  Q 349.95 381.29 345.75 383.18"
/>
<path stroke="#0b628b" vector-effect="non-scaling-stroke" d="
  M 387.37 367.82
  L 400.52 385.50
  Q 400.90 386.00 401.53 386.00
  L 408.96 386.00
  Q 409.42 386.00 409.42 385.54
  L 409.92 351.71
  Q 409.93 351.00 409.21 351.00
  L 400.76 351.00
  Q 399.97 351.00 400.00 351.79
  Q 400.32 359.78 400.62 368.75
  Q 400.67 370.41 399.24 369.51
  Q 399.23 369.50 399.23 369.50
  L 386.23 351.40
  A 0.98 0.97 -17.7 0 0 385.44 351.00
  L 377.73 351.00
  A 0.53 0.53 0.0 0 0 377.20 351.56
  Q 378.03 368.27 377.22 384.98
  A 0.98 0.97 1.4 0 0 378.20 386.00
  L 386.15 386.00
  Q 387.05 386.00 387.04 385.10
  L 386.72 368.04
  Q 386.70 366.92 387.37 367.82"
/>
<path stroke="#114d58" vector-effect="non-scaling-stroke" d="
  M 114.49 372.10
  Q 115.18 368.47 114.41 365.24
  Q 114.29 364.72 113.78 364.59
  Q 111.97 364.13 110.27 364.87"
/>
<path stroke="#0b628b" vector-effect="non-scaling-stroke" d="
  M 110.27 364.87
  L 103.11 365.01
  Q 101.30 365.05 101.36 363.24
  L 101.42 361.56
  Q 101.47 359.97 103.06 359.96
  L 112.21 359.88"
/>
<path stroke="#114d58" vector-effect="non-scaling-stroke" d="
  M 112.21 359.88
  L 116.00 359.92
  Q 116.61 359.92 116.53 359.32
  L 115.83 353.74"
/>
<path stroke="#0b628b" vector-effect="non-scaling-stroke" d="
  M 115.83 353.74
  L 115.76 352.58
  Q 115.71 351.56 114.68 351.58
  L 91.40 352.15
  A 0.43 0.42 -2.6 0 0 90.98 352.60
  Q 92.16 368.99 91.17 385.40
  A 0.61 0.60 4.3 0 0 91.73 386.04
  L 100.23 386.71
  A 1.41 1.41 0.0 0 0 101.75 385.24
  L 101.29 373.67
  Q 101.26 372.84 102.09 372.87
  L 114.02 373.32
  Q 114.43 373.33 114.53 372.94
  Q 114.66 372.44 114.49 372.10"
/>
<path stroke="#168cb9" vector-effect="non-scaling-stroke" d="
  M 115.83 353.74
  Q 112.86 356.78 112.21 359.88"
/>
<path stroke="#168cb9" vector-effect="non-scaling-stroke" d="
  M 110.27 364.87
  L 114.49 372.10"
/>
<path stroke="#5b8c53" vector-effect="non-scaling-stroke" d="
  M 170.99 385.79
  C 176.97 386.48 185.24 384.92 185.37 377.24
  Q 185.55 366.09 185.82 354.71"
/>
<path stroke="#1f6464" vector-effect="non-scaling-stroke" d="
  M 185.82 354.71
  L 185.74 352.49
  Q 185.72 352.00 185.23 352.00
  L 176.51 352.01
  Q 175.94 352.01 175.82 352.57
  Q 175.36 354.60 175.91 356.51"
/>
<path stroke="#0c3f4b" vector-effect="non-scaling-stroke" d="
  M 175.91 356.51
  L 176.60 371.21"
/>
<path stroke="#5b8c53" vector-effect="non-scaling-stroke" d="
  M 176.60 371.21
  Q 176.14 375.34 174.35 377.51"
/>
<path stroke="#0c3f4b" vector-effect="non-scaling-stroke" d="
  M 174.35 377.51
  C 170.51 379.19 165.63 377.68 165.71 372.74
  Q 165.87 363.16 166.34 353.44"
/>
<path stroke="#1b6067" vector-effect="non-scaling-stroke" d="
  M 166.34 353.44
  Q 166.79 351.37 161.87 352.38"
/>
<path stroke="#0c3f4b" vector-effect="non-scaling-stroke" d="
  M 161.87 352.38
  L 156.75 352.06
  Q 156.19 352.02 156.20 352.58
  Q 156.47 364.52 156.55 376.45
  C 156.58 380.68 157.67 383.72 161.74 385.01
  Q 166.17 386.43 170.99 385.79"
/>
<path stroke="#217d89" vector-effect="non-scaling-stroke" d="
  M 161.87 352.38
  L 166.34 353.44"
/>
<path stroke="#61a975" vector-effect="non-scaling-stroke" d="
  M 174.35 377.51
  L 173.47 379.30"
/>
<path stroke="#219678" vector-effect="non-scaling-stroke" d="
  M 173.47 379.30
  Q 172.49 380.86 172.33 382.46"
/>
<path stroke="#61a975" vector-effect="non-scaling-stroke" d="
  M 172.33 382.46
  Q 172.07 384.09 170.99 385.79"
/>
<path stroke="#70e37f" vector-effect="non-scaling-stroke" d="
  M 172.33 382.46
  Q 173.39 381.09 173.47 379.30"
/>
<path stroke="#61a975" vector-effect="non-scaling-stroke" d="
  M 176.60 371.21
  L 183.34 358.68"
/>
<path stroke="#74ce8e" vector-effect="non-scaling-stroke" d="
  M 185.82 354.71
  L 183.34 358.68"
/>
<path stroke="#258186" vector-effect="non-scaling-stroke" d="
  M 183.34 358.68
  L 175.91 356.51"
/>
<path stroke="#176b4c" vector-effect="non-scaling-stroke" d="
  M 245.94 385.85
  L 251.23 384.03"
/>
<path stroke="#1b7956" vector-effect="non-scaling-stroke" d="
  M 251.23 384.03
  C 261.34 377.43 261.69 363.09 252.98 355.31"
/>
<path stroke="#448243" vector-effect="non-scaling-stroke" d="
  M 252.98 355.31
  Q 249.14 352.80 245.29 352.39"
/>
<path stroke="#307c3b" vector-effect="non-scaling-stroke" d="
  M 245.29 352.39
  L 227.79 352.12
  A 0.60 0.59 -1.4 0 0 227.19 352.74
  Q 227.99 369.00 227.20 385.27
  Q 227.17 385.93 227.83 385.93
  L 245.94 385.85"
/>
<path stroke="#6edc55" vector-effect="non-scaling-stroke" d="
  M 245.29 352.39
  Q 243.01 353.25 243.80 354.98
  Q 244.71 356.97 245.80 358.90"
/>
<path stroke="#45d367" vector-effect="non-scaling-stroke" d="
  M 245.80 358.90
  L 245.86 360.51"
/>
<path stroke="#307c3b" vector-effect="non-scaling-stroke" d="
  M 245.86 360.51
  Q 241.98 358.33 238.24 359.14
  A 1.67 1.67 0.0 0 0 236.92 360.80
  Q 236.98 368.35 236.90 376.15
  C 236.84 381.40 244.16 378.58 246.27 377.17"
/>
<path stroke="#40c45e" vector-effect="non-scaling-stroke" d="
  M 246.27 377.17
  L 245.94 385.85"
/>
<path stroke="#2cc279" vector-effect="non-scaling-stroke" d="
  M 251.23 384.03
  Q 248.28 380.09 247.53 376.14"
/>
<path stroke="#1b7956" vector-effect="non-scaling-stroke" d="
  M 247.53 376.14
  Q 252.55 366.86 245.86 360.51"
/>
<path stroke="#59d970" vector-effect="non-scaling-stroke" d="
  M 252.98 355.31
  L 245.80 358.90"
/>
<path stroke="#176b4c" vector-effect="non-scaling-stroke" d="
  M 247.53 376.14
  Q 246.68 376.46 246.27 377.17"
/>
<path stroke="#1b6067" vector-effect="non-scaling-stroke" d="
  M 283.74 355.24
  Q 283.04 351.57 280.73 352.21"
/>
<path stroke="#1b7956" vector-effect="non-scaling-stroke" d="
  M 280.73 352.21
  L 273.87 352.08
  Q 273.23 352.07 273.00 352.68
  L 261.21 384.78
  Q 260.76 386.00 262.06 386.00
  L 269.99 386.00
  A 1.46 1.46 0.0 0 0 271.39 384.95
  L 272.38 381.58
  Q 272.55 381.00 273.15 381.00
  L 283.12 381.00
  Q 283.74 381.00 283.88 381.60
  L 284.73 385.12
  A 1.17 1.16 -7.0 0 0 285.86 386.00
  L 295.27 386.00
  A 0.38 0.38 0.0 0 0 295.62 385.48
  L 283.74 355.24"
/>
<path stroke="#30b794" vector-effect="non-scaling-stroke" d="
  M 280.73 352.21
  Q 281.57 354.37 283.74 355.24"
/>
<path stroke="#0c3f4b" vector-effect="non-scaling-stroke" d="
  M 298.51 359.71
  L 303.20 359.42
  A 1.36 1.35 88.6 0 1 304.64 360.80
  L 304.17 385.33
  A 0.66 0.66 0.0 0 0 304.83 386.00
  L 314.01 386.00
  A 0.51 0.50 -0.6 0 0 314.52 385.49
  L 313.98 360.77
  Q 313.96 360.00 314.73 360.00
  L 321.30 360.00
  Q 321.93 360.00 321.92 359.37
  L 321.77 352.38"
/>
<path stroke="#1b6067" vector-effect="non-scaling-stroke" d="
  M 321.77 352.38
  L 297.82 352.11
  Q 297.49 352.11 297.44 352.44
  L 296.35 359.16
  A 0.61 0.61 0.0 0 0 296.86 359.86
  Q 297.63 359.98 298.51 359.71"
/>
<path stroke="#217d89" vector-effect="non-scaling-stroke" d="
  M 321.77 352.38
  Q 310.75 356.76 306.75 357.54
  Q 300.96 358.66 298.51 359.71"
/>
<path stroke="#114d58" vector-effect="non-scaling-stroke" d="
  M 334.5172 352.4063
  A 0.27 0.27 0.0 0 0 334.2486 352.1348
  L 324.8487 352.0856
  A 0.27 0.27 0.0 0 0 324.5773 352.3542
  L 324.4028 385.6737
  A 0.27 0.27 0.0 0 0 324.6714 385.9452
  L 334.0713 385.9944
  A 0.27 0.27 0.0 0 0 334.3427 385.7258
  L 334.5172 352.4063"
/>
<path stroke="#448243" vector-effect="non-scaling-stroke" d="
  M 269.00 301.11
  L 268.98 308.91
  A 1.09 1.09 0.0 0 0 270.06 310.01
  L 273.92 310.02
  A 4.63 4.26 0.2 0 0 278.57 305.78
  L 278.57 304.32
  A 4.63 4.26 0.2 0 0 273.96 300.04
  L 270.10 300.03
  A 1.09 1.09 0.0 0 0 269.00 301.11"
/>
<path stroke="#114d58" vector-effect="non-scaling-stroke" d="
  M 354.6388 377.0188
  A 8.55 8.10 97.4 0 0 363.7725 369.5832
  A 8.55 8.10 97.4 0 0 356.8412 360.0612
  A 8.55 8.10 97.4 0 0 347.7075 367.4968
  A 8.55 8.10 97.4 0 0 354.6388 377.0188"
/>
<path stroke="#1b7956" vector-effect="non-scaling-stroke" d="
  M 280.58 371.91
  C 280.52 370.06 279.28 366.34 278.36 364.47
  Q 278.02 363.78 277.78 364.50
  L 275.22 371.95
  Q 274.86 373.00 275.97 373.00
  L 279.53 373.00
  A 1.06 1.05 89.2 0 0 280.58 371.91"
/>
</g>
<path fill="#062229" d="
  M 0.00 0.00
  L 500.00 0.00
  L 500.00 500.00
  L 0.00 500.00
  L 0.00 0.00
  Z
  M 252.13 95.74
  L 249.85 100.77
  Q 248.95 100.62 249.24 100.41
  Q 234.05 78.33 208.93 66.00
  Q 205.24 64.19 201.73 64.46
  Q 201.16 64.51 200.78 64.93
  Q 195.12 71.19 195.56 81.02
  Q 196.23 95.99 197.13 101.74
  Q 199.00 113.71 203.86 124.78
  Q 204.42 126.06 203.56 126.36
  Q 196.84 125.44 189.01 126.52
  Q 171.78 128.88 157.31 136.84
  C 156.23 137.44 155.14 138.55 154.30 139.41
  Q 152.79 141.02 153.16 142.25
  Q 154.62 146.99 158.69 150.71
  Q 165.21 156.85 172.41 160.96
  A 0.86 0.86 0.0 0 1 172.41 162.46
  Q 164.63 166.89 157.93 173.13
  C 155.42 175.93 151.84 180.62 154.67 184.38
  Q 155.27 185.18 156.60 187.88
  Q 163.54 191.90 171.45 194.47
  Q 177.40 196.40 180.03 197.12
  Q 184.19 198.25 188.88 198.79
  Q 193.69 199.34 198.42 197.68
  L 196.71 207.58
  Q 195.53 210.30 195.68 213.52
  Q 194.56 219.24 195.42 225.19
  L 196.64 234.83
  Q 198.51 243.70 201.76 252.25
  C 202.97 255.40 207.59 264.85 211.50 264.95
  C 215.16 265.04 219.07 262.80 222.08 260.21
  C 234.38 249.59 242.05 236.88 248.32 222.04
  Q 263.06 243.68 285.66 255.41
  Q 290.76 258.06 294.01 257.89
  C 304.71 257.33 302.81 235.28 301.66 227.91
  Q 300.90 213.15 295.74 197.75
  Q 307.53 199.49 318.43 197.51
  Q 331.70 195.16 343.36 188.77
  C 347.16 186.68 350.12 185.24 348.22 180.57
  C 344.95 172.58 337.35 167.60 328.97 163.05
  Q 339.78 157.03 347.15 148.21
  Q 347.48 147.81 347.46 147.30
  L 347.13 140.33
  Q 344.99 136.18 342.69 134.82
  Q 332.40 128.77 317.90 126.70
  L 312.54 125.82
  L 305.96 125.81
  Q 304.19 125.58 302.80 126.42
  L 300.02 126.52
  C 306.19 106.24 303.33 87.31 295.10 68.68
  Q 292.27 62.27 286.98 58.28
  A 1.14 1.12 55.2 0 0 286.02 58.10
  C 270.38 62.54 257.98 81.97 252.13 95.74
  Z
  M 232.90 291.88
  L 227.34 294.88
  Q 216.62 305.62 224.51 319.26
  L 228.74 323.16
  Q 237.20 328.33 245.77 324.81
  C 265.38 316.74 255.55 284.86 232.90 291.88
  Z
  M 184.54 300.20
  L 184.18 325.14
  A 0.84 0.84 0.0 0 0 185.02 325.99
  L 193.96 325.98
  Q 194.42 325.98 194.40 325.52
  L 193.76 313.04
  Q 199.49 311.20 206.24 312.24
  A 1.03 1.02 6.1 0 1 207.12 313.32
  L 206.47 325.28
  Q 206.44 325.87 207.03 325.86
  L 214.04 325.77
  Q 215.37 326.25 216.50 325.94
  Q 217.03 325.79 216.99 325.24
  L 216.88 323.47
  L 217.06 292.60
  Q 217.06 292.00 216.46 292.00
  L 207.71 292.00
  Q 206.93 292.00 206.95 292.79
  L 207.26 302.98
  A 0.99 0.99 0.0 0 1 206.27 304.00
  L 195.29 304.00
  A 1.37 1.36 -88.0 0 1 193.93 302.54
  L 194.65 292.60
  Q 194.70 292.01 194.10 292.01
  L 184.75 292.00
  Q 184.24 292.00 184.26 292.51
  L 184.54 300.20
  Z
  M 277.42 317.99
  C 289.58 317.48 292.44 300.71 283.13 294.20
  Q 279.95 292.06 276.00 292.02
  Q 267.87 291.95 259.99 292.03
  A 0.66 0.65 90.0 0 0 259.34 292.69
  L 259.64 325.57
  Q 259.64 326.00 260.07 326.00
  L 269.43 326.00
  Q 269.86 326.00 269.84 325.57
  L 269.44 318.58
  Q 269.41 318.04 269.95 318.04
  L 277.42 317.99
  Z
  M 292.26 321.13
  L 292.08 325.30
  A 0.66 0.66 0.0 0 0 292.74 325.99
  L 313.27 326.00
  A 1.25 1.21 64.5 0 1 314.07 326.30
  Q 314.80 326.91 315.48 326.55
  Q 316.06 326.25 316.33 325.24
  Q 317.23 321.98 317.26 318.52
  Q 317.27 318.00 316.75 318.00
  L 304.31 318.01
  A 2.03 2.03 0.0 0 1 302.28 316.06
  L 302.21 314.61
  Q 302.16 313.21 303.55 313.07
  Q 308.98 312.53 314.24 313.57
  Q 315.06 313.74 315.13 312.89
  L 315.67 305.72
  Q 315.73 304.93 314.93 304.91
  L 302.25 304.73
  L 302.44 300.84
  Q 302.47 300.21 303.10 300.12
  L 304.80 299.89
  L 316.21 299.96
  Q 316.72 299.96 316.67 299.46
  L 315.93 292.59
  A 0.65 0.65 0.0 0 0 315.27 292.01
  L 307.97 292.05
  L 292.61 292.04
  Q 292.09 292.04 292.10 292.56
  L 292.26 321.13
  Z
  M 118.93 373.37
  L 119.41 375.44
  Q 126.90 389.99 143.74 384.54
  Q 159.44 374.00 149.38 356.95
  Q 142.19 349.79 132.74 351.30
  C 122.02 353.02 116.22 363.13 118.93 373.37
  Z
  M 190.80 380.16
  Q 189.76 381.62 190.41 385.45
  Q 190.50 385.98 191.04 385.98
  L 199.39 386.00
  A 0.63 0.63 0.0 0 0 200.03 385.36
  L 199.74 368.02
  Q 199.73 367.12 200.27 367.84
  L 210.03 380.72
  L 213.53 385.59
  Q 213.82 385.99 214.32 385.99
  L 221.89 386.00
  Q 222.42 386.00 222.43 385.48
  L 222.95 351.65
  A 0.61 0.61 0.0 0 0 222.33 351.03
  L 217.16 351.06
  L 213.61 351.03
  Q 213.09 351.03 213.10 351.54
  L 213.23 359.54
  L 213.48 369.41
  Q 213.49 370.00 212.91 369.89
  Q 212.61 369.83 212.20 369.52
  L 201.53 354.67
  L 199.29 351.49
  Q 198.94 351.00 198.33 351.00
  L 190.81 351.00
  Q 190.27 351.00 190.28 351.54
  L 190.80 380.16
  Z
  M 345.75 383.18
  C 357.05 389.93 371.70 384.40 372.96 370.63
  Q 373.85 363.69 370.24 358.38
  C 361.74 345.85 341.94 349.74 338.72 364.68
  Q 336.34 375.72 345.75 383.18
  Z
  M 387.37 367.82
  L 400.52 385.50
  Q 400.90 386.00 401.53 386.00
  L 408.96 386.00
  Q 409.42 386.00 409.42 385.54
  L 409.92 351.71
  Q 409.93 351.00 409.21 351.00
  L 400.76 351.00
  Q 399.97 351.00 400.00 351.79
  Q 400.32 359.78 400.62 368.75
  Q 400.67 370.41 399.24 369.51
  Q 399.23 369.50 399.23 369.50
  L 386.23 351.40
  A 0.98 0.97 -17.7 0 0 385.44 351.00
  L 377.73 351.00
  A 0.53 0.53 0.0 0 0 377.20 351.56
  Q 378.03 368.27 377.22 384.98
  A 0.98 0.97 1.4 0 0 378.20 386.00
  L 386.15 386.00
  Q 387.05 386.00 387.04 385.10
  L 386.72 368.04
  Q 386.70 366.92 387.37 367.82
  Z
  M 114.49 372.10
  Q 115.18 368.47 114.41 365.24
  Q 114.29 364.72 113.78 364.59
  Q 111.97 364.13 110.27 364.87
  L 103.11 365.01
  Q 101.30 365.05 101.36 363.24
  L 101.42 361.56
  Q 101.47 359.97 103.06 359.96
  L 112.21 359.88
  L 116.00 359.92
  Q 116.61 359.92 116.53 359.32
  L 115.83 353.74
  L 115.76 352.58
  Q 115.71 351.56 114.68 351.58
  L 91.40 352.15
  A 0.43 0.42 -2.6 0 0 90.98 352.60
  Q 92.16 368.99 91.17 385.40
  A 0.61 0.60 4.3 0 0 91.73 386.04
  L 100.23 386.71
  A 1.41 1.41 0.0 0 0 101.75 385.24
  L 101.29 373.67
  Q 101.26 372.84 102.09 372.87
  L 114.02 373.32
  Q 114.43 373.33 114.53 372.94
  Q 114.66 372.44 114.49 372.10
  Z
  M 170.99 385.79
  C 176.97 386.48 185.24 384.92 185.37 377.24
  Q 185.55 366.09 185.82 354.71
  L 185.74 352.49
  Q 185.72 352.00 185.23 352.00
  L 176.51 352.01
  Q 175.94 352.01 175.82 352.57
  Q 175.36 354.60 175.91 356.51
  L 176.60 371.21
  Q 176.14 375.34 174.35 377.51
  C 170.51 379.19 165.63 377.68 165.71 372.74
  Q 165.87 363.16 166.34 353.44
  Q 166.79 351.37 161.87 352.38
  L 156.75 352.06
  Q 156.19 352.02 156.20 352.58
  Q 156.47 364.52 156.55 376.45
  C 156.58 380.68 157.67 383.72 161.74 385.01
  Q 166.17 386.43 170.99 385.79
  Z
  M 245.94 385.85
  L 251.23 384.03
  C 261.34 377.43 261.69 363.09 252.98 355.31
  Q 249.14 352.80 245.29 352.39
  L 227.79 352.12
  A 0.60 0.59 -1.4 0 0 227.19 352.74
  Q 227.99 369.00 227.20 385.27
  Q 227.17 385.93 227.83 385.93
  L 245.94 385.85
  Z
  M 283.74 355.24
  Q 283.04 351.57 280.73 352.21
  L 273.87 352.08
  Q 273.23 352.07 273.00 352.68
  L 261.21 384.78
  Q 260.76 386.00 262.06 386.00
  L 269.99 386.00
  A 1.46 1.46 0.0 0 0 271.39 384.95
  L 272.38 381.58
  Q 272.55 381.00 273.15 381.00
  L 283.12 381.00
  Q 283.74 381.00 283.88 381.60
  L 284.73 385.12
  A 1.17 1.16 -7.0 0 0 285.86 386.00
  L 295.27 386.00
  A 0.38 0.38 0.0 0 0 295.62 385.48
  L 283.74 355.24
  Z
  M 298.51 359.71
  L 303.20 359.42
  A 1.36 1.35 88.6 0 1 304.64 360.80
  L 304.17 385.33
  A 0.66 0.66 0.0 0 0 304.83 386.00
  L 314.01 386.00
  A 0.51 0.50 -0.6 0 0 314.52 385.49
  L 313.98 360.77
  Q 313.96 360.00 314.73 360.00
  L 321.30 360.00
  Q 321.93 360.00 321.92 359.37
  L 321.77 352.38
  L 297.82 352.11
  Q 297.49 352.11 297.44 352.44
  L 296.35 359.16
  A 0.61 0.61 0.0 0 0 296.86 359.86
  Q 297.63 359.98 298.51 359.71
  Z
  M 334.5172 352.4063
  A 0.27 0.27 0.0 0 0 334.2486 352.1348
  L 324.8487 352.0856
  A 0.27 0.27 0.0 0 0 324.5773 352.3542
  L 324.4028 385.6737
  A 0.27 0.27 0.0 0 0 324.6714 385.9452
  L 334.0713 385.9944
  A 0.27 0.27 0.0 0 0 334.3427 385.7258
  L 334.5172 352.4063
  Z"
/>
<g>
<path fill="#aff57c" d="
  M 300.02 126.52
  Q 296.64 136.75 290.77 145.64
  Q 282.99 157.29 272.33 165.95
  Q 272.07 166.17 272.14 166.50
  Q 272.17 166.65 272.24 166.78
  L 271.68 166.90
  Q 271.27 166.98 270.92 167.20
  L 256.25 176.35
  L 255.61 176.44
  A 0.88 0.63 -52.6 0 1 255.65 174.93
  Q 260.10 172.83 263.56 169.01
  Q 281.78 148.93 281.86 121.47
  C 281.89 112.80 281.27 103.33 282.08 95.52
  Q 283.02 86.37 285.55 77.47
  Q 285.71 76.93 285.19 77.15
  Q 284.38 77.51 284.13 78.51
  Q 283.04 82.90 281.43 87.17
  Q 281.26 87.60 280.85 87.81
  L 275.68 90.35
  Q 275.22 90.57 275.03 91.05
  Q 274.45 92.51 273.07 92.09
  Q 272.54 91.93 272.07 92.24
  Q 268.97 94.31 267.47 97.76
  C 266.91 99.07 266.97 100.52 266.60 102.02
  A 0.37 0.37 0.0 0 1 265.88 101.92
  Q 265.90 101.53 265.59 101.36
  Q 265.07 101.08 265.07 100.49
  Q 265.21 88.22 269.99 76.92
  Q 272.09 71.98 274.04 67.73
  Q 274.66 66.40 273.57 67.38
  Q 265.07 74.99 259.68 84.35
  Q 258.00 87.27 256.18 90.11
  C 254.88 92.13 254.20 94.66 252.73 96.82
  Q 252.14 97.67 252.14 96.64
  L 252.13 95.74
  C 257.98 81.97 270.38 62.54 286.02 58.10
  A 1.14 1.12 55.2 0 1 286.98 58.28
  Q 292.27 62.27 295.10 68.68
  C 303.33 87.31 306.19 106.24 300.02 126.52
  Z"
/>
<path fill="#30d082" d="
  M 249.24 100.41
  Q 248.38 101.34 248.09 100.94
  Q 246.82 99.17 245.58 97.33
  Q 245.37 97.01 244.99 96.96
  L 241.31 96.41
  Q 240.90 96.35 240.60 96.63
  L 237.83 99.20
  Q 237.46 99.55 237.25 100.01
  Q 236.81 100.96 235.64 100.58
  A 0.53 0.53 0.0 0 0 235.16 101.50
  Q 239.55 104.84 242.70 109.30
  A 1.13 1.13 0.0 0 1 242.01 111.06
  Q 241.00 111.27 241.02 112.14
  Q 241.03 112.67 240.53 112.84
  Q 237.21 114.02 233.75 114.19
  Q 230.61 114.35 227.26 112.78
  Q 218.13 108.50 210.88 101.30
  Q 210.70 101.12 210.51 101.08
  Q 210.30 101.04 210.14 101.10
  Q 209.59 101.29 209.97 101.74
  Q 215.38 108.14 222.54 112.29
  Q 227.13 114.96 229.02 116.69
  Q 238.85 125.74 244.08 139.63
  L 244.55 144.69
  Q 235.04 148.93 226.61 155.77
  Q 212.30 143.90 204.38 126.83
  Q 204.22 126.37 203.56 126.36
  Q 204.42 126.06 203.86 124.78
  Q 199.00 113.71 197.13 101.74
  Q 196.23 95.99 195.56 81.02
  Q 195.12 71.19 200.78 64.93
  Q 201.16 64.51 201.73 64.46
  Q 205.24 64.19 208.93 66.00
  Q 234.05 78.33 249.24 100.41
  Z"
/>
<path fill="#82e25d" d="
  M 256.25 176.35
  L 254.46 177.32
  Q 253.38 177.55 252.97 176.53
  Q 247.46 162.87 244.70 148.54
  Q 245.14 146.50 244.55 144.69
  L 244.08 139.63
  Q 243.34 118.68 249.85 100.77
  L 252.13 95.74
  L 252.14 96.64
  Q 252.14 97.67 252.73 96.82
  C 254.20 94.66 254.88 92.13 256.18 90.11
  Q 258.00 87.27 259.68 84.35
  Q 265.07 74.99 273.57 67.38
  Q 274.66 66.40 274.04 67.73
  Q 272.09 71.98 269.99 76.92
  Q 265.21 88.22 265.07 100.49
  Q 265.07 101.08 265.59 101.36
  Q 265.90 101.53 265.88 101.92
  A 0.37 0.37 0.0 0 0 266.60 102.02
  C 266.97 100.52 266.91 99.07 267.47 97.76
  Q 268.97 94.31 272.07 92.24
  Q 272.54 91.93 273.07 92.09
  Q 274.45 92.51 275.03 91.05
  Q 275.22 90.57 275.68 90.35
  L 280.85 87.81
  Q 281.26 87.60 281.43 87.17
  Q 283.04 82.90 284.13 78.51
  Q 284.38 77.51 285.19 77.15
  Q 285.71 76.93 285.55 77.47
  Q 283.02 86.37 282.08 95.52
  C 281.27 103.33 281.89 112.80 281.86 121.47
  Q 281.78 148.93 263.56 169.01
  Q 260.10 172.83 255.65 174.93
  A 0.88 0.63 -52.6 0 0 255.61 176.44
  L 256.25 176.35
  Z"
/>
<path fill="#27b36f" d="
  M 249.24 100.41
  Q 248.95 100.62 249.85 100.77
  Q 243.34 118.68 244.08 139.63
  Q 238.85 125.74 229.02 116.69
  Q 227.13 114.96 222.54 112.29
  Q 215.38 108.14 209.97 101.74
  Q 209.59 101.29 210.14 101.10
  Q 210.30 101.04 210.51 101.08
  Q 210.70 101.12 210.88 101.30
  Q 218.13 108.50 227.26 112.78
  Q 230.61 114.35 233.75 114.19
  Q 237.21 114.02 240.53 112.84
  Q 241.03 112.67 241.02 112.14
  Q 241.00 111.27 242.01 111.06
  A 1.13 1.13 0.0 0 0 242.70 109.30
  Q 239.55 104.84 235.16 101.50
  A 0.53 0.53 0.0 0 1 235.64 100.58
  Q 236.81 100.96 237.25 100.01
  Q 237.46 99.55 237.83 99.20
  L 240.60 96.63
  Q 240.90 96.35 241.31 96.41
  L 244.99 96.96
  Q 245.37 97.01 245.58 97.33
  Q 246.82 99.17 248.09 100.94
  Q 248.38 101.34 249.24 100.41
  Z"
/>
<path fill="#38a69f" d="
  M 203.56 126.36
  Q 204.22 126.37 204.38 126.83
  Q 204.64 127.32 204.59 127.74
  Q 204.52 128.20 204.06 128.15
  C 189.67 126.63 173.35 130.55 159.88 137.10
  Q 157.32 138.35 155.27 140.32
  A 0.50 0.50 0.0 0 1 154.49 140.22
  Q 154.30 139.92 154.30 139.41
  C 155.14 138.55 156.23 137.44 157.31 136.84
  Q 171.78 128.88 189.01 126.52
  Q 196.84 125.44 203.56 126.36
  Z"
/>
<path fill="#1b7786" d="
  M 305.96 125.81
  Q 304.49 126.47 302.80 126.42
  Q 304.19 125.58 305.96 125.81
  Z"
/>
<path fill="#38a69f" d="
  M 305.96 125.81
  L 312.54 125.82
  Q 314.61 126.99 317.90 126.70
  Q 332.40 128.77 342.69 134.82
  Q 344.99 136.18 347.13 140.33
  L 346.89 141.41
  Q 346.76 141.96 346.20 141.89
  Q 326.50 139.21 310.34 150.39
  Q 306.91 152.76 303.47 155.10
  C 295.50 160.53 287.67 163.48 277.86 163.60
  A 0.38 0.38 0.0 0 1 277.60 162.93
  Q 284.11 157.12 289.45 149.93
  Q 289.93 149.29 290.95 148.23
  Q 293.12 145.99 290.77 145.64
  Q 296.64 136.75 300.02 126.52
  L 302.80 126.42
  Q 304.49 126.47 305.96 125.81
  Z"
/>
<path fill="#1b7786" d="
  M 312.54 125.82
  L 317.90 126.70
  Q 314.61 126.99 312.54 125.82
  Z"
/>
<path fill="#2f9da5" d="
  M 204.38 126.83
  Q 212.30 143.90 226.61 155.77
  Q 215.49 164.77 207.66 177.01
  Q 203.06 176.97 199.02 175.26
  C 201.01 174.76 202.14 176.04 203.65 176.24
  Q 204.66 176.38 205.68 176.47
  A 0.71 0.71 0.0 0 0 206.32 176.19
  L 215.73 163.60
  Q 215.94 163.31 215.61 163.18
  Q 192.77 153.96 181.12 151.14
  Q 174.55 149.55 166.26 148.83
  Q 161.04 148.39 158.69 150.71
  Q 154.62 146.99 153.16 142.25
  Q 152.79 141.02 154.30 139.41
  Q 154.30 139.92 154.49 140.22
  A 0.50 0.50 0.0 0 0 155.27 140.32
  Q 157.32 138.35 159.88 137.10
  C 173.35 130.55 189.67 126.63 204.06 128.15
  Q 204.52 128.20 204.59 127.74
  Q 204.64 127.32 204.38 126.83
  Z"
/>
<path fill="#2f9da5" d="
  M 347.13 140.33
  L 347.46 147.30
  Q 347.48 147.81 347.15 148.21
  Q 339.78 157.03 328.97 163.05
  Q 330.15 163.27 327.41 164.00
  Q 307.91 176.23 285.23 179.41
  Q 280.02 172.64 273.16 167.08
  Q 272.70 166.71 272.24 166.78
  Q 272.17 166.65 272.14 166.50
  Q 272.07 166.17 272.33 165.95
  Q 282.99 157.29 290.77 145.64
  Q 293.12 145.99 290.95 148.23
  Q 289.93 149.29 289.45 149.93
  Q 284.11 157.12 277.60 162.93
  A 0.38 0.38 0.0 0 0 277.86 163.60
  C 287.67 163.48 295.50 160.53 303.47 155.10
  Q 306.91 152.76 310.34 150.39
  Q 326.50 139.21 346.20 141.89
  Q 346.76 141.96 346.89 141.41
  L 347.13 140.33
  Z"
/>
<path fill="#aff57c" d="
  M 244.55 144.69
  Q 245.14 146.50 244.70 148.54
  Q 244.29 149.11 243.37 149.55
  Q 242.65 149.74 241.25 150.87
  Q 220.77 167.40 213.83 192.16
  C 209.60 208.55 208.82 224.63 198.78 237.83
  Q 197.94 237.76 197.88 236.81
  A 1.07 1.05 60.4 0 1 198.05 236.17
  Q 200.19 232.94 197.92 229.79
  A 1.32 1.31 -62.0 0 1 197.67 228.96
  Q 198.07 218.30 196.71 207.58
  L 198.42 197.68
  Q 201.62 187.19 207.66 177.01
  Q 215.49 164.77 226.61 155.77
  Q 235.04 148.93 244.55 144.69
  Z"
/>
<path fill="#59d54c" d="
  M 244.70 148.54
  Q 247.46 162.87 252.97 176.53
  Q 253.38 177.55 254.46 177.32
  Q 254.55 177.54 254.17 177.55
  L 253.86 177.60
  Q 253.36 177.69 253.43 178.19
  Q 254.97 189.09 253.98 194.76
  Q 252.62 202.59 251.67 210.51
  Q 251.24 214.20 248.32 222.04
  C 242.05 236.88 234.38 249.59 222.08 260.21
  C 219.07 262.80 215.16 265.04 211.50 264.95
  C 207.59 264.85 202.97 255.40 201.76 252.25
  Q 198.51 243.70 196.64 234.83
  Q 198.00 236.29 197.89 238.31
  A 0.32 0.32 0.0 0 0 198.43 238.57
  Q 198.85 238.20 198.78 237.83
  C 208.82 224.63 209.60 208.55 213.83 192.16
  Q 215.82 191.08 214.64 195.18
  Q 213.62 198.72 213.01 202.36
  Q 212.93 202.83 213.08 203.28
  Q 214.30 206.85 213.94 210.60
  Q 213.89 211.09 214.07 211.55
  Q 214.69 213.20 214.06 214.51
  Q 212.10 218.59 212.72 222.35
  Q 212.82 222.96 212.28 222.67
  L 211.95 222.49
  A 0.30 0.29 -77.9 0 0 211.52 222.77
  Q 211.53 223.07 211.56 223.36
  Q 211.61 223.85 211.27 224.20
  Q 210.18 225.31 210.75 227.27
  Q 211.40 229.52 209.29 229.93
  A 0.76 0.76 0.0 0 0 208.68 230.72
  Q 208.87 233.69 206.41 235.44
  Q 206.02 235.71 206.35 236.06
  Q 206.88 236.62 206.27 237.36
  Q 206.01 237.67 205.63 237.83
  Q 205.28 237.97 205.03 238.22
  Q 204.72 238.53 204.56 239.39
  Q 204.24 241.07 203.20 242.49
  Q 202.87 242.92 202.84 243.46
  Q 202.39 250.87 206.61 256.99
  A 1.52 1.48 -64.2 0 1 206.87 257.77
  Q 206.90 258.74 207.78 259.06
  Q 208.18 259.21 208.33 259.60
  Q 209.16 261.83 212.28 262.29
  Q 216.79 262.94 218.58 259.85
  Q 228.26 243.16 227.94 223.75
  C 227.79 214.84 226.71 204.80 227.15 197.09
  Q 228.31 176.56 238.46 158.58
  Q 238.50 158.52 240.99 154.81
  Q 242.61 152.40 243.37 149.55
  Q 244.29 149.11 244.70 148.54
  Z"
/>
<path fill="#38a69f" d="
  M 199.02 175.26
  Q 187.10 171.22 175.62 164.44
  L 173.80 163.67
  Q 173.30 163.46 172.83 163.74
  Q 165.28 168.31 158.74 174.21
  A 0.52 0.52 0.0 0 1 157.87 173.78
  L 157.93 173.13
  Q 164.63 166.89 172.41 162.46
  A 0.86 0.86 0.0 0 0 172.41 160.96
  Q 165.21 156.85 158.69 150.71
  Q 161.04 148.39 166.26 148.83
  Q 174.55 149.55 181.12 151.14
  Q 192.77 153.96 215.61 163.18
  Q 215.94 163.31 215.73 163.60
  L 206.32 176.19
  A 0.71 0.71 0.0 0 1 205.68 176.47
  Q 204.66 176.38 203.65 176.24
  C 202.14 176.04 201.01 174.76 199.02 175.26
  Z"
/>
<path fill="#82e25d" d="
  M 243.37 149.55
  Q 242.61 152.40 240.99 154.81
  Q 238.50 158.52 238.46 158.58
  Q 228.31 176.56 227.15 197.09
  C 226.71 204.80 227.79 214.84 227.94 223.75
  Q 228.26 243.16 218.58 259.85
  Q 216.79 262.94 212.28 262.29
  Q 209.16 261.83 208.33 259.60
  Q 208.18 259.21 207.78 259.06
  Q 206.90 258.74 206.87 257.77
  A 1.52 1.48 -64.2 0 0 206.61 256.99
  Q 202.39 250.87 202.84 243.46
  Q 202.87 242.92 203.20 242.49
  Q 204.24 241.07 204.56 239.39
  Q 204.72 238.53 205.03 238.22
  Q 205.28 237.97 205.63 237.83
  Q 206.01 237.67 206.27 237.36
  Q 206.88 236.62 206.35 236.06
  Q 206.02 235.71 206.41 235.44
  Q 208.87 233.69 208.68 230.72
  A 0.76 0.76 0.0 0 1 209.29 229.93
  Q 211.40 229.52 210.75 227.27
  Q 210.18 225.31 211.27 224.20
  Q 211.61 223.85 211.56 223.36
  Q 211.53 223.07 211.52 222.77
  A 0.30 0.29 -77.9 0 1 211.95 222.49
  L 212.28 222.67
  Q 212.82 222.96 212.72 222.35
  Q 212.10 218.59 214.06 214.51
  Q 214.69 213.20 214.07 211.55
  Q 213.89 211.09 213.94 210.60
  Q 214.30 206.85 213.08 203.28
  Q 212.93 202.83 213.01 202.36
  Q 213.62 198.72 214.64 195.18
  Q 215.82 191.08 213.83 192.16
  Q 220.77 167.40 241.25 150.87
  Q 242.65 149.74 243.37 149.55
  Z"
/>
<path fill="#1b7786" d="
  M 328.97 163.05
  C 337.35 167.60 344.95 172.58 348.22 180.57
  C 350.12 185.24 347.16 186.68 343.36 188.77
  Q 331.70 195.16 318.43 197.51
  Q 310.13 198.18 301.85 196.01
  A 0.82 0.82 0.0 0 1 301.25 195.34
  Q 300.72 191.78 303.57 189.50
  Q 304.95 188.39 305.19 187.01
  Q 305.28 186.50 305.80 186.45
  Q 307.21 186.32 308.11 185.14
  Q 308.47 184.67 308.07 184.23
  L 305.08 181.02
  A 1.53 0.28 -66.2 0 1 305.41 179.63
  Q 305.56 179.29 306.00 179.36
  A 0.91 0.89 33.7 0 0 306.63 179.24
  Q 309.00 177.76 311.73 177.31
  A 2.42 2.39 23.6 0 0 312.67 176.95
  Q 315.77 175.02 319.25 174.74
  Q 319.62 174.71 319.61 174.35
  Q 319.61 174.12 319.62 173.88
  Q 319.63 173.53 319.94 173.69
  Q 320.93 174.18 322.27 173.56
  A 1.21 0.89 -72.0 0 0 322.48 173.41
  Q 324.01 171.91 326.16 171.83
  Q 326.68 171.81 327.06 171.45
  C 328.08 170.48 329.06 170.88 330.00 170.50
  Q 331.77 169.78 332.07 168.12
  Q 332.15 167.64 331.84 167.27
  Q 329.78 164.76 327.41 164.00
  Q 330.15 163.27 328.97 163.05
  Z"
/>
<path fill="#1b7786" d="
  M 175.62 164.44
  Q 170.46 165.03 176.40 167.16
  C 177.58 167.58 178.34 168.50 179.09 169.42
  A 2.07 2.05 -7.4 0 0 179.85 170.00
  Q 181.50 170.74 182.60 172.09
  Q 183.64 173.36 183.41 175.19
  Q 182.89 179.34 180.12 182.67
  Q 178.95 184.08 178.13 185.73
  A 1.48 1.48 0.0 0 1 177.47 186.39
  Q 170.34 189.87 167.27 190.17
  Q 163.64 190.53 156.60 187.88
  Q 155.27 185.18 154.67 184.38
  C 151.84 180.62 155.42 175.93 157.93 173.13
  L 157.87 173.78
  A 0.52 0.52 0.0 0 0 158.74 174.21
  Q 165.28 168.31 172.83 163.74
  Q 173.30 163.46 173.80 163.67
  L 175.62 164.44
  Z"
/>
<path fill="#125c6d" d="
  M 327.41 164.00
  Q 329.78 164.76 331.84 167.27
  Q 332.15 167.64 332.07 168.12
  Q 331.77 169.78 330.00 170.50
  C 329.06 170.88 328.08 170.48 327.06 171.45
  Q 326.68 171.81 326.16 171.83
  Q 324.01 171.91 322.48 173.41
  A 1.21 0.89 -72.0 0 1 322.27 173.56
  Q 320.93 174.18 319.94 173.69
  Q 319.63 173.53 319.62 173.88
  Q 319.61 174.12 319.61 174.35
  Q 319.62 174.71 319.25 174.74
  Q 315.77 175.02 312.67 176.95
  A 2.42 2.39 23.6 0 1 311.73 177.31
  Q 309.00 177.76 306.63 179.24
  A 0.91 0.89 33.7 0 1 306.00 179.36
  Q 305.56 179.29 305.41 179.63
  A 1.53 0.28 -66.2 0 0 305.08 181.02
  L 308.07 184.23
  Q 308.47 184.67 308.11 185.14
  Q 307.21 186.32 305.80 186.45
  Q 305.28 186.50 305.19 187.01
  Q 304.95 188.39 303.57 189.50
  Q 300.72 191.78 301.25 195.34
  A 0.82 0.82 0.0 0 0 301.85 196.01
  Q 310.13 198.18 318.43 197.51
  Q 307.53 199.49 295.74 197.75
  Q 292.23 188.50 285.23 179.41
  Q 307.91 176.23 327.41 164.00
  Z"
/>
<path fill="#125c6d" d="
  M 175.62 164.44
  Q 187.10 171.22 199.02 175.26
  Q 203.06 176.97 207.66 177.01
  Q 201.62 187.19 198.42 197.68
  Q 193.69 199.34 188.88 198.79
  Q 184.19 198.25 180.03 197.12
  Q 177.40 196.40 171.45 194.47
  Q 163.54 191.90 156.60 187.88
  Q 163.64 190.53 167.27 190.17
  Q 170.34 189.87 177.47 186.39
  A 1.48 1.48 0.0 0 0 178.13 185.73
  Q 178.95 184.08 180.12 182.67
  Q 182.89 179.34 183.41 175.19
  Q 183.64 173.36 182.60 172.09
  Q 181.50 170.74 179.85 170.00
  A 2.07 2.05 -7.4 0 1 179.09 169.42
  C 178.34 168.50 177.58 167.58 176.40 167.16
  Q 170.46 165.03 175.62 164.44
  Z"
/>
<path fill="#30d082" d="
  M 272.24 166.78
  Q 272.70 166.71 273.16 167.08
  Q 280.02 172.64 285.23 179.41
  Q 292.23 188.50 295.74 197.75
  Q 300.90 213.15 301.66 227.91
  L 301.29 249.66
  A 0.61 0.61 0.0 0 1 300.11 249.85
  C 295.39 236.39 290.28 224.62 279.14 215.17
  C 274.86 211.54 269.54 209.47 265.52 205.71
  Q 260.16 200.69 256.70 194.21
  Q 255.39 191.76 255.11 188.51
  Q 254.65 183.02 254.17 177.55
  Q 254.55 177.54 254.46 177.32
  L 256.25 176.35
  L 270.92 167.20
  Q 271.27 166.98 271.68 166.90
  L 272.24 166.78
  Z"
/>
<path fill="#27b36f" d="
  M 254.17 177.55
  Q 254.65 183.02 255.11 188.51
  Q 255.39 191.76 256.70 194.21
  Q 260.16 200.69 265.52 205.71
  C 269.54 209.47 274.86 211.54 279.14 215.17
  C 290.28 224.62 295.39 236.39 300.11 249.85
  A 0.61 0.61 0.0 0 0 301.29 249.66
  L 301.66 227.91
  C 302.81 235.28 304.71 257.33 294.01 257.89
  Q 290.76 258.06 285.66 255.41
  Q 263.06 243.68 248.32 222.04
  Q 251.24 214.20 251.67 210.51
  Q 252.62 202.59 253.98 194.76
  Q 254.97 189.09 253.43 178.19
  Q 253.36 177.69 253.86 177.60
  L 254.17 177.55
  Z"
/>
<path fill="#82e25d" d="
  M 196.71 207.58
  Q 198.07 218.30 197.67 228.96
  A 1.32 1.31 -62.0 0 0 197.92 229.79
  Q 200.19 232.94 198.05 236.17
  A 1.07 1.05 60.4 0 0 197.88 236.81
  Q 197.94 237.76 198.78 237.83
  Q 198.85 238.20 198.43 238.57
  A 0.32 0.32 0.0 0 1 197.89 238.31
  Q 198.00 236.29 196.64 234.83
  L 195.42 225.19
  L 195.68 213.52
  Q 195.53 210.30 196.71 207.58
  Z"
/>
<path fill="#27b36f" d="
  M 195.68 213.52
  L 195.42 225.19
  Q 194.56 219.24 195.68 213.52
  Z"
/>
<path fill="#82e25d" d="
  M 228.74 323.16
  L 233.53 319.62
  Q 233.96 319.31 233.97 318.79
  L 234.03 315.59
  C 243.83 321.37 251.78 307.71 243.19 301.40
  Q 238.69 298.11 233.22 302.30
  Q 232.63 302.60 232.60 302.00
  Q 232.44 298.29 232.90 291.88
  C 255.55 284.86 265.38 316.74 245.77 324.81
  Q 237.20 328.33 228.74 323.16
  Z"
/>
<path fill="#30d082" d="
  M 216.88 323.47
  L 214.04 325.77
  L 207.03 325.86
  Q 206.44 325.87 206.47 325.28
  L 207.12 313.32
  A 1.03 1.02 6.1 0 0 206.24 312.24
  Q 199.49 311.20 193.76 313.04
  Q 189.04 307.96 184.54 300.20
  L 184.26 292.51
  Q 184.24 292.00 184.75 292.00
  L 194.10 292.01
  Q 194.70 292.01 194.65 292.60
  L 193.93 302.54
  A 1.37 1.36 -88.0 0 0 195.29 304.00
  L 206.27 304.00
  A 0.99 0.99 0.0 0 0 207.26 302.98
  L 206.95 292.79
  Q 206.93 292.00 207.71 292.00
  L 216.46 292.00
  Q 217.06 292.00 217.06 292.60
  L 216.88 323.47
  Z"
/>
<path fill="#27b36f" d="
  M 232.90 291.88
  Q 232.44 298.29 232.60 302.00
  Q 232.63 302.60 233.22 302.30
  L 231.84 303.87
  Q 228.26 299.98 227.34 294.88
  L 232.90 291.88
  Z"
/>
<path fill="#82e25d" d="
  M 283.13 294.20
  Q 281.69 306.64 277.42 317.99
  L 269.95 318.04
  Q 269.41 318.04 269.44 318.58
  L 269.84 325.57
  Q 269.86 326.00 269.43 326.00
  L 260.07 326.00
  Q 259.64 326.00 259.64 325.57
  L 259.34 292.69
  A 0.66 0.65 -90.0 0 1 259.99 292.03
  Q 267.87 291.95 276.00 292.02
  Q 279.95 292.06 283.13 294.20
  Z
  M 269.00 301.11
  L 268.98 308.91
  A 1.09 1.09 0.0 0 0 270.06 310.01
  L 273.92 310.02
  A 4.63 4.26 0.2 0 0 278.57 305.78
  L 278.57 304.32
  A 4.63 4.26 0.2 0 0 273.96 300.04
  L 270.10 300.03
  A 1.09 1.09 0.0 0 0 269.00 301.11
  Z"
/>
<path fill="#aff57c" d="
  M 307.97 292.05
  Q 305.79 295.54 304.80 299.89
  L 303.10 300.12
  Q 302.47 300.21 302.44 300.84
  L 302.25 304.73
  L 292.26 321.13
  L 292.10 292.56
  Q 292.09 292.04 292.61 292.04
  L 307.97 292.05
  Z"
/>
<path fill="#38a69f" d="
  M 307.97 292.05
  L 315.27 292.01
  A 0.65 0.65 0.0 0 1 315.93 292.59
  L 316.67 299.46
  Q 316.72 299.96 316.21 299.96
  L 304.80 299.89
  Q 305.79 295.54 307.97 292.05
  Z"
/>
<path fill="#aff57c" d="
  M 283.13 294.20
  C 292.44 300.71 289.58 317.48 277.42 317.99
  Q 281.69 306.64 283.13 294.20
  Z"
/>
<path fill="#30d082" d="
  M 227.34 294.88
  Q 228.26 299.98 231.84 303.87
  Q 229.09 309.40 232.66 314.68
  L 224.51 319.26
  Q 216.62 305.62 227.34 294.88
  Z"
/>
<path fill="#062229" d="
  M 234.03 315.59
  L 232.66 314.68
  Q 229.09 309.40 231.84 303.87
  L 233.22 302.30
  Q 238.69 298.11 243.19 301.40
  C 251.78 307.71 243.83 321.37 234.03 315.59
  Z"
/>
<path fill="#2f9da5" d="
  M 184.54 300.20
  Q 189.04 307.96 193.76 313.04
  L 194.40 325.52
  Q 194.42 325.98 193.96 325.98
  L 185.02 325.99
  A 0.84 0.84 0.0 0 1 184.18 325.14
  L 184.54 300.20
  Z"
/>
<path fill="#38a69f" d="
  M 302.25 304.73
  L 314.93 304.91
  Q 315.73 304.93 315.67 305.72
  L 315.13 312.89
  Q 315.06 313.74 314.24 313.57
  Q 308.98 312.53 303.55 313.07
  Q 302.16 313.21 302.21 314.61
  L 302.28 316.06
  A 2.03 2.03 0.0 0 0 304.31 318.01
  L 316.75 318.00
  Q 317.27 318.00 317.26 318.52
  Q 317.23 321.98 316.33 325.24
  Q 316.06 326.25 315.48 326.55
  Q 314.80 326.91 314.07 326.30
  A 1.25 1.21 64.5 0 0 313.27 326.00
  L 292.74 325.99
  A 0.66 0.66 0.0 0 1 292.08 325.30
  L 292.26 321.13
  L 302.25 304.73
  Z"
/>
<path fill="#aff57c" d="
  M 232.66 314.68
  L 234.03 315.59
  L 233.97 318.79
  Q 233.96 319.31 233.53 319.62
  L 228.74 323.16
  L 224.51 319.26
  L 232.66 314.68
  Z"
/>
<path fill="#aff57c" d="
  M 216.88 323.47
  L 216.99 325.24
  Q 217.03 325.79 216.50 325.94
  Q 215.37 326.25 214.04 325.77
  L 216.88 323.47
  Z"
/>
<path fill="#1b7786" d="
  M 149.38 356.95
  Q 147.96 357.29 147.88 358.56
  Q 147.83 359.15 147.24 359.17
  Q 146.27 359.19 145.87 358.30
  Q 145.58 357.67 145.17 358.23
  Q 144.56 359.09 145.15 359.82
  A 1.21 1.21 0.0 0 1 143.99 361.78
  Q 142.69 361.54 142.53 363.52
  C 135.47 354.95 124.71 363.04 128.58 372.94
  Q 125.01 375.04 118.93 373.37
  C 116.22 363.13 122.02 353.02 132.74 351.30
  Q 142.19 349.79 149.38 356.95
  Z"
/>
<path fill="#aff57c" d="
  M 201.53 354.67
  Q 195.74 366.46 190.80 380.16
  L 190.28 351.54
  Q 190.27 351.00 190.81 351.00
  L 198.33 351.00
  Q 198.94 351.00 199.29 351.49
  L 201.53 354.67
  Z"
/>
<path fill="#82e25d" d="
  M 217.16 351.06
  Q 215.65 354.82 214.74 358.65
  Q 214.59 359.26 214.29 359.47
  Q 213.85 359.76 213.23 359.54
  L 213.10 351.54
  Q 213.09 351.03 213.61 351.03
  L 217.16 351.06
  Z"
/>
<path fill="#59d54c" d="
  M 217.16 351.06
  L 222.33 351.03
  A 0.61 0.61 0.0 0 1 222.95 351.65
  L 222.43 385.48
  Q 222.42 386.00 221.89 386.00
  L 214.32 385.99
  Q 213.82 385.99 213.53 385.59
  L 210.03 380.72
  L 212.20 369.52
  Q 212.61 369.83 212.91 369.89
  Q 213.49 370.00 213.48 369.41
  L 213.23 359.54
  Q 213.85 359.76 214.29 359.47
  Q 214.59 359.26 214.74 358.65
  Q 215.65 354.82 217.16 351.06
  Z"
/>
<path fill="#1b7786" d="
  M 372.96 370.63
  Q 366.15 375.08 358.85 378.11
  C 357.09 378.85 355.87 380.32 353.53 380.71
  Q 349.95 381.29 345.75 383.18
  Q 336.34 375.72 338.72 364.68
  C 341.94 349.74 361.74 345.85 370.24 358.38
  Q 373.85 363.69 372.96 370.63
  Z
  M 354.6388 377.0188
  A 8.55 8.10 97.4 0 0 363.7725 369.5832
  A 8.55 8.10 97.4 0 0 356.8412 360.0612
  A 8.55 8.10 97.4 0 0 347.7075 367.4968
  A 8.55 8.10 97.4 0 0 354.6388 377.0188
  Z"
/>
<path fill="#10a1ec" d="
  M 386.72 368.04
  L 387.04 385.10
  Q 387.05 386.00 386.15 386.00
  L 378.20 386.00
  A 0.98 0.97 1.4 0 1 377.22 384.98
  Q 378.03 368.27 377.20 351.56
  A 0.53 0.53 0.0 0 1 377.73 351.00
  L 385.44 351.00
  A 0.98 0.97 -17.7 0 1 386.23 351.40
  L 399.23 369.50
  Q 399.23 369.50 399.24 369.51
  Q 400.67 370.41 400.62 368.75
  Q 400.32 359.78 400.00 351.79
  Q 399.97 351.00 400.76 351.00
  L 409.21 351.00
  Q 409.93 351.00 409.92 351.71
  L 409.42 385.54
  Q 409.42 386.00 408.96 386.00
  L 401.53 386.00
  Q 400.90 386.00 400.52 385.50
  L 387.37 367.82
  Q 386.70 366.92 386.72 368.04
  Z"
/>
<path fill="#10a1ec" d="
  M 115.83 353.74
  Q 112.86 356.78 112.21 359.88
  L 103.06 359.96
  Q 101.47 359.97 101.42 361.56
  L 101.36 363.24
  Q 101.30 365.05 103.11 365.01
  L 110.27 364.87
  L 114.49 372.10
  Q 114.66 372.44 114.53 372.94
  Q 114.43 373.33 114.02 373.32
  L 102.09 372.87
  Q 101.26 372.84 101.29 373.67
  L 101.75 385.24
  A 1.41 1.41 0.0 0 1 100.23 386.71
  L 91.73 386.04
  A 0.61 0.60 4.3 0 1 91.17 385.40
  Q 92.16 368.99 90.98 352.60
  A 0.43 0.42 -2.6 0 1 91.40 352.15
  L 114.68 351.58
  Q 115.71 351.56 115.76 352.58
  L 115.83 353.74
  Z"
/>
<path fill="#125c6d" d="
  M 161.87 352.38
  L 166.34 353.44
  Q 165.87 363.16 165.71 372.74
  C 165.63 377.68 170.51 379.19 174.35 377.51
  L 173.47 379.30
  Q 172.49 380.86 172.33 382.46
  Q 172.07 384.09 170.99 385.79
  Q 166.17 386.43 161.74 385.01
  C 157.67 383.72 156.58 380.68 156.55 376.45
  Q 156.47 364.52 156.20 352.58
  Q 156.19 352.02 156.75 352.06
  L 161.87 352.38
  Z"
/>
<path fill="#2f9da5" d="
  M 166.34 353.44
  L 161.87 352.38
  Q 166.79 351.37 166.34 353.44
  Z"
/>
<path fill="#38a69f" d="
  M 185.82 354.71
  L 183.34 358.68
  L 175.91 356.51
  Q 175.36 354.60 175.82 352.57
  Q 175.94 352.01 176.51 352.01
  L 185.23 352.00
  Q 185.72 352.00 185.74 352.49
  L 185.82 354.71
  Z"
/>
<path fill="#59d54c" d="
  M 245.29 352.39
  Q 243.01 353.25 243.80 354.98
  Q 244.71 356.97 245.80 358.90
  L 245.86 360.51
  Q 241.98 358.33 238.24 359.14
  A 1.67 1.67 0.0 0 0 236.92 360.80
  Q 236.98 368.35 236.90 376.15
  C 236.84 381.40 244.16 378.58 246.27 377.17
  L 245.94 385.85
  L 227.83 385.93
  Q 227.17 385.93 227.20 385.27
  Q 227.99 369.00 227.19 352.74
  A 0.60 0.59 -1.4 0 1 227.79 352.12
  L 245.29 352.39
  Z"
/>
<path fill="#30d082" d="
  M 280.73 352.21
  Q 281.57 354.37 283.74 355.24
  L 295.62 385.48
  A 0.38 0.38 0.0 0 1 295.27 386.00
  L 285.86 386.00
  A 1.17 1.16 -7.0 0 1 284.73 385.12
  L 283.88 381.60
  Q 283.74 381.00 283.12 381.00
  L 273.15 381.00
  Q 272.55 381.00 272.38 381.58
  L 271.39 384.95
  A 1.46 1.46 0.0 0 1 269.99 386.00
  L 262.06 386.00
  Q 260.76 386.00 261.21 384.78
  L 273.00 352.68
  Q 273.23 352.07 273.87 352.08
  L 280.73 352.21
  Z
  M 280.58 371.91
  C 280.52 370.06 279.28 366.34 278.36 364.47
  Q 278.02 363.78 277.78 364.50
  L 275.22 371.95
  Q 274.86 373.00 275.97 373.00
  L 279.53 373.00
  A 1.06 1.05 89.2 0 0 280.58 371.91
  Z"
/>
<path fill="#2f9da5" d="
  M 321.77 352.38
  Q 310.75 356.76 306.75 357.54
  Q 300.96 358.66 298.51 359.71
  Q 297.63 359.98 296.86 359.86
  A 0.61 0.61 0.0 0 1 296.35 359.16
  L 297.44 352.44
  Q 297.49 352.11 297.82 352.11
  L 321.77 352.38
  Z"
/>
<rect fill="#1b7786" x="-4.97" y="-16.93" transform="translate(329.46,369.04) rotate(0.3)" width="9.94" height="33.86" rx="0.27"/>
<path fill="#82e25d" d="
  M 252.98 355.31
  L 245.80 358.90
  Q 244.71 356.97 243.80 354.98
  Q 243.01 353.25 245.29 352.39
  Q 249.14 352.80 252.98 355.31
  Z"
/>
<path fill="#2f9da5" d="
  M 280.73 352.21
  Q 283.04 351.57 283.74 355.24
  Q 281.57 354.37 280.73 352.21
  Z"
/>
<path fill="#125c6d" d="
  M 321.77 352.38
  L 321.92 359.37
  Q 321.93 360.00 321.30 360.00
  L 314.73 360.00
  Q 313.96 360.00 313.98 360.77
  L 314.52 385.49
  A 0.51 0.50 -0.6 0 1 314.01 386.00
  L 304.83 386.00
  A 0.66 0.66 0.0 0 1 304.17 385.33
  L 304.64 360.80
  A 1.36 1.35 88.6 0 0 303.20 359.42
  L 298.51 359.71
  Q 300.96 358.66 306.75 357.54
  Q 310.75 356.76 321.77 352.38
  Z"
/>
<path fill="#1b7786" d="
  M 115.83 353.74
  L 116.53 359.32
  Q 116.61 359.92 116.00 359.92
  L 112.21 359.88
  Q 112.86 356.78 115.83 353.74
  Z"
/>
<path fill="#aff57c" d="
  M 185.82 354.71
  Q 185.55 366.09 185.37 377.24
  C 185.24 384.92 176.97 386.48 170.99 385.79
  Q 172.07 384.09 172.33 382.46
  Q 173.39 381.09 173.47 379.30
  L 174.35 377.51
  Q 176.14 375.34 176.60 371.21
  L 183.34 358.68
  L 185.82 354.71
  Z"
/>
<path fill="#82e25d" d="
  M 201.53 354.67
  L 212.20 369.52
  L 210.03 380.72
  L 200.27 367.84
  Q 199.73 367.12 199.74 368.02
  L 200.03 385.36
  A 0.63 0.63 0.0 0 1 199.39 386.00
  L 191.04 385.98
  Q 190.50 385.98 190.41 385.45
  Q 189.76 381.62 190.80 380.16
  Q 195.74 366.46 201.53 354.67
  Z"
/>
<path fill="#30d082" d="
  M 252.98 355.31
  C 261.69 363.09 261.34 377.43 251.23 384.03
  Q 248.28 380.09 247.53 376.14
  Q 252.55 366.86 245.86 360.51
  L 245.80 358.90
  L 252.98 355.31
  Z"
/>
<path fill="#125c6d" d="
  M 175.91 356.51
  L 183.34 358.68
  L 176.60 371.21
  L 175.91 356.51
  Z"
/>
<path fill="#125c6d" d="
  M 149.38 356.95
  Q 159.44 374.00 143.74 384.54
  Q 130.76 380.88 119.41 375.44
  L 118.93 373.37
  Q 125.01 375.04 128.58 372.94
  C 135.22 382.49 147.45 374.11 142.53 363.52
  Q 142.69 361.54 143.99 361.78
  A 1.21 1.21 0.0 0 0 145.15 359.82
  Q 144.56 359.09 145.17 358.23
  Q 145.58 357.67 145.87 358.30
  Q 146.27 359.19 147.24 359.17
  Q 147.83 359.15 147.88 358.56
  Q 147.96 357.29 149.38 356.95
  Z"
/>
<path fill="#062229" d="
  M 245.86 360.51
  Q 252.55 366.86 247.53 376.14
  Q 246.68 376.46 246.27 377.17
  C 244.16 378.58 236.84 381.40 236.90 376.15
  Q 236.98 368.35 236.92 360.80
  A 1.67 1.67 0.0 0 1 238.24 359.14
  Q 241.98 358.33 245.86 360.51
  Z"
/>
<path fill="#062229" d="
  M 142.53 363.52
  C 147.45 374.11 135.22 382.49 128.58 372.94
  C 124.71 363.04 135.47 354.95 142.53 363.52
  Z"
/>
<path fill="#1b7786" d="
  M 114.49 372.10
  L 110.27 364.87
  Q 111.97 364.13 113.78 364.59
  Q 114.29 364.72 114.41 365.24
  Q 115.18 368.47 114.49 372.10
  Z"
/>
<path fill="#10a1ec" d="
  M 372.96 370.63
  C 371.70 384.40 357.05 389.93 345.75 383.18
  Q 349.95 381.29 353.53 380.71
  C 355.87 380.32 357.09 378.85 358.85 378.11
  Q 366.15 375.08 372.96 370.63
  Z"
/>
<path fill="#10a1ec" d="
  M 143.74 384.54
  Q 126.90 389.99 119.41 375.44
  Q 130.76 380.88 143.74 384.54
  Z"
/>
<path fill="#27b36f" d="
  M 247.53 376.14
  Q 248.28 380.09 251.23 384.03
  L 245.94 385.85
  L 246.27 377.17
  Q 246.68 376.46 247.53 376.14
  Z"
/>
<path fill="#30d082" d="
  M 173.47 379.30
  Q 173.39 381.09 172.33 382.46
  Q 172.49 380.86 173.47 379.30
  Z"
/>
</g>
<g>
<path fill="#062229" d="
  M 269.00 301.11
  A 1.09 1.09 0.0 0 1 270.10 300.03
  L 273.96 300.04
  A 4.63 4.26 0.2 0 1 278.57 304.32
  L 278.57 305.78
  A 4.63 4.26 0.2 0 1 273.92 310.02
  L 270.06 310.01
  A 1.09 1.09 0.0 0 1 268.98 308.91
  L 269.00 301.11
  Z"
/>
<ellipse fill="#062229" cx="0.00" cy="0.00" transform="translate(355.74,368.54) rotate(97.4)" rx="8.55" ry="8.10"/>
<path fill="#062229" d="
  M 278.36 364.47
  C 279.28 366.34 280.52 370.06 280.58 371.91
  A 1.06 1.05 89.2 0 1 279.53 373.00
  L 275.97 373.00
  Q 274.86 373.00 275.22 371.95
  L 277.78 364.50
  Q 278.02 363.78 278.36 364.47
  Z"
/>
</g>
</svg>
