<!--?xml version="1.0" standalone="no"?-->
              <svg id="sw-js-blob-svg" viewBox="0 0 100 100" xmlns="http://www.w3.org/2000/svg" version="1.1">
                    <defs> 
                        <linearGradient id="sw-gradient" x1="0" x2="1" y1="1" y2="0">
                            <stop id="stop1" stop-color="rgba(251.272, 110.133, 56.753, 1)" offset="0%"></stop>
                            <stop id="stop2" stop-color="rgba(246.718, 162.528, 96.263, 1)" offset="100%"></stop>
                        </linearGradient>
                    </defs>
                <path fill="url(#sw-gradient)" d="M25.2,-29.5C31.6,-24.6,35.1,-15.7,35.3,-7.3C35.5,1.1,32.4,9,27.8,15.1C23.1,21.1,16.9,25.3,10.4,27C3.8,28.8,-3.1,28.1,-9.3,25.7C-15.5,23.4,-21,19.3,-25.1,13.7C-29.1,8.2,-31.8,1,-31,-5.8C-30.3,-12.7,-26,-19.3,-20.2,-24.4C-14.5,-29.5,-7.2,-33,1.1,-34.2C9.4,-35.5,18.7,-34.5,25.2,-29.5Z" width="100%" height="100%" transform="translate(50 50)" stroke-width="0" style="transition: all 0.3s ease 0s;" stroke="url(#sw-gradient)"></path>
              </svg>