<svg xmlns="http://www.w3.org/2000/svg" version="1.1" xmlns:xlink="http://www.w3.org/1999/xlink" xmlns:svgjs="http://svgjs.dev/svgjs" viewBox="0 0 800 800"><defs><linearGradient x1="50%" y1="0%" x2="50%" y2="100%" id="gggyrate-grad"><stop stop-color="hsl(30, 100%, 50%)" stop-opacity="1" offset="0%"></stop><stop stop-color="hsl(30, 100%, 70%)" stop-opacity="1" offset="100%"></stop></linearGradient></defs><g stroke-width="7.5" stroke="url(#gggyrate-grad)" fill="none"><path d="M400 -468.3336181640625L1152.0000480523147 -34.16682111452121V834.1667729845615L400 1268.3335700341026L-352.00004805231475 834.1667729845615V-34.16682111452121L400 -468.3336181640625Z " transform="rotate(164.5, 400, 400)" opacity="1.00"></path><path d="M400 -449.8583984375L1136.0000470299249 -24.92919281454465V824.9292184313658L400 1249.8584240543212L-336.0000470299251 824.9292184313658V-24.92919281454465L400 -449.8583984375Z " transform="rotate(161, 400, 400)" opacity="0.98"></path><path d="M400 -431.38323974609375L1120.0000460075355 -15.69162554972445V815.6916028430142L400 1231.3832170393835L-320.0000460075354 815.6916028430142V-15.69162554972445L400 -431.38323974609375Z " transform="rotate(157.5, 400, 400)" opacity="0.96"></path><path d="M399.9999694824219 -412.90802001953125L1104.0000144675676 -6.453997249747999V806.4540482898187L399.9999694824219 1212.908071059602L-304.00007550272386 806.4540482898187V-6.453997249747999L399.9999694824219 -412.90802001953125Z " transform="rotate(154, 400, 400)" opacity="0.94"></path><path d="M399.9999694824219 -394.432861328125L1088.000013445178 2.783570015072314V797.216432701467L399.9999694824219 1194.4328640446643L-288.0000744803342 797.216432701467V2.783570015072314L399.9999694824219 -394.432861328125Z " transform="rotate(150.5, 400, 400)" opacity="0.92"></path><path d="M399.9999694824219 -375.95770263671875L1072.0000124227884 12.021137279892628V787.9788171131152L399.9999694824219 1175.9576570297265L-272.0000734579445 787.9788171131152V12.021137279892628L399.9999694824219 -375.95770263671875Z " transform="rotate(147, 400, 400)" opacity="0.90"></path><path d="M399.9999694824219 -357.48248291015625L1056.0000114003985 21.258765579869078V778.74126255992L399.9999694824219 1157.4825110499453L-256.00007243555484 778.74126255992V21.258765579869078L399.9999694824219 -357.48248291015625Z " transform="rotate(143.5, 400, 400)" opacity="0.88"></path><path d="M399.9999694824219 -339.00732421875L1040.000010378009 30.49633284468939V769.5036469715683L399.9999694824219 1139.0073040350076L-240.00007141316513 769.5036469715683V30.49633284468939L399.9999694824219 -339.00732421875Z " transform="rotate(140, 400, 400)" opacity="0.86"></path><path d="M399.9999694824219 -320.5321044921875L1024.000009355619 39.733961144665955V760.2660924183726L399.9999694824219 1120.532158055226L-224.00007039077548 760.2660924183726V39.733961144665955L399.9999694824219 -320.5321044921875Z " transform="rotate(136.5, 400, 400)" opacity="0.83"></path><path d="M399.9999694824219 -302.05694580078125L1008.0000083332295 48.971528409486154V751.028476830021L399.9999694824219 1102.0569510402884L-208.00006936838582 751.028476830021V48.971528409486154L399.9999694824219 -302.05694580078125Z " transform="rotate(133, 400, 400)" opacity="0.81"></path><path d="M399.9999694824219 -283.581787109375L992.0000073108399 58.209095674306354V741.7908612416693L399.9999694824219 1083.5817440253506L-192.0000683459961 741.7908612416693V58.209095674306354L399.9999694824219 -283.581787109375Z " transform="rotate(129.5, 400, 400)" opacity="0.79"></path><path d="M399.9999694824219 -265.1065673828125L976.0000062884501 67.44672397428292V732.5533066884736L399.9999694824219 1065.1065980455692L-176.00006732360646 732.5533066884736V67.44672397428292L399.9999694824219 -265.1065673828125Z " transform="rotate(126, 400, 400)" opacity="0.77"></path><path d="M399.9999694824219 -246.63140869140625L960.0000052660605 76.68429123910323V723.3156911001224L399.9999694824219 1046.6313910306317L-160.00006630121675 723.3156911001224V76.68429123910323L399.9999694824219 -246.63140869140625Z " transform="rotate(122.5, 400, 400)" opacity="0.75"></path><path d="M399.9999694824219 -228.15618896484375L944.0000042436709 85.92191953907968V714.0781365469265L399.9999694824219 1028.1562450508502L-144.0000652788271 714.0781365469265V85.92191953907968L399.9999694824219 -228.15618896484375Z " transform="rotate(119, 400, 400)" opacity="0.73"></path><path d="M399.9999694824219 -209.6810302734375L928.0000032212813 95.1594868039V704.8405209585751L399.9999694824219 1009.6810380359125L-128.00006425643744 704.8405209585751V95.1594868039L399.9999694824219 -209.6810302734375Z " transform="rotate(115.5, 400, 400)" opacity="0.71"></path><path d="M399.9999694824219 -191.20587158203125L912.0000021988915 104.39705406872031V695.6029053702232L399.9999694824219 991.2058310209748L-112.00006323404773 695.6029053702232V104.39705406872031L399.9999694824219 -191.20587158203125Z " transform="rotate(112, 400, 400)" opacity="0.69"></path><path d="M399.9999694824219 -172.73065185546875L896.0000011765019 113.63468236869676V686.3653508170278L399.9999694824219 972.7306850411933L-96.00006221165808 686.3653508170278V113.63468236869676L399.9999694824219 -172.73065185546875Z " transform="rotate(108.5, 400, 400)" opacity="0.67"></path><path d="M399.9999694824219 -154.2554931640625L880.0000001541121 122.87224963351696V677.1277352286761L399.9999694824219 954.2554780262556L-80.00006118926842 677.1277352286761V122.87224963351696L399.9999694824219 -154.2554931640625Z " transform="rotate(105, 400, 400)" opacity="0.65"></path><path d="M399.9999694824219 -135.7802734375L863.9999991317227 132.10987793349352V667.8901806754807L399.9999694824219 935.7803320464741L-64.00006016687871 667.8901806754807V132.10987793349352L399.9999694824219 -135.7802734375Z " transform="rotate(101.5, 400, 400)" opacity="0.63"></path><path d="M399.9999694824219 -117.30511474609375L847.9999981093329 141.34744519831384V658.652565087129L399.9999694824219 917.3051250315366L-48.00005914448906 658.652565087129V141.34744519831384L399.9999694824219 -117.30511474609375Z " transform="rotate(98, 400, 400)" opacity="0.61"></path><path d="M399.9999694824219 -98.8299560546875L831.999997086943 150.5850124631341V649.4149494987773L399.9999694824219 898.8299180165989L-32.00005812209935 649.4149494987773V150.5850124631341L399.9999694824219 -98.8299560546875Z " transform="rotate(94.5, 400, 400)" opacity="0.59"></path><path d="M399.9999694824219 -80.354736328125L815.9999960645534 159.8226407631106V640.1773949455818L399.9999694824219 880.3547720368174L-16.000057099709693 640.1773949455818V159.8226407631106L399.9999694824219 -80.354736328125Z " transform="rotate(91, 400, 400)" opacity="0.57"></path><path d="M399.9999694824219 -61.87957763671875L799.9999950421638 169.0602080279308V630.9397793572301L399.9999694824219 861.8795650218794L-0.00005607732003909405 630.9397793572301V169.0602080279308L399.9999694824219 -61.87957763671875Z " transform="rotate(87.5, 400, 400)" opacity="0.55"></path><path d="M399.9999694824219 -43.4044189453125L783.999994019774 178.2977752927511V621.7021637688783L399.9999694824219 843.404358006942L15.999944945069672 621.7021637688783V178.2977752927511L399.9999694824219 -43.4044189453125Z " transform="rotate(84, 400, 400)" opacity="0.53"></path><path d="M400.0000305175781 -24.92919921875L768.0000540325406 187.53540359272768V612.4646092156829L400.0000305175781 824.9292120271607L32.000007002615575 612.4646092156829V187.53540359272768L400.0000305175781 -24.92919921875Z " transform="rotate(80.5, 400, 400)" opacity="0.50"></path><path d="M400.0000305175781 -6.45404052734375L752.000053010151 196.77297085754788V603.2269936273312L400.0000305175781 806.4540050122228L48.000008025005286 603.2269936273312V196.77297085754788L400.0000305175781 -6.45404052734375Z " transform="rotate(77, 400, 400)" opacity="0.48"></path><path d="M400.0000305175781 12.02117919921875L736.0000519877614 206.01059915752444V593.9894390741357L400.0000305175781 787.9788590324415L64.00000904739494 593.9894390741357V206.01059915752444L400.0000305175781 12.02117919921875Z " transform="rotate(73.5, 400, 400)" opacity="0.46"></path><path d="M400.0000305175781 30.496337890625L720.0000509653717 215.2481664223447V584.7518234857841L400.0000305175781 769.5036520175038L80.0000100697846 584.7518234857841V215.2481664223447L400.0000305175781 30.496337890625Z " transform="rotate(70, 400, 400)" opacity="0.44"></path><path d="M400.0000305175781 48.971527099609375L704.000049942982 224.48576420474308V575.5142384150105L400.0000305175781 751.0284755201442L96.0000110921743 575.5142384150105V224.48576420474308L400.0000305175781 48.971527099609375Z " transform="rotate(66.5, 400, 400)" opacity="0.42"></path><path d="M400.0000305175781 67.44671630859375L688.0000489205922 233.72336198714146V566.2766533442368L400.0000305175781 732.5532990227846L112.00001211456396 566.2766533442368V233.72336198714146L400.0000305175781 67.44671630859375Z " transform="rotate(63, 400, 400)" opacity="0.40"></path><path d="M400.0000305175781 85.92190551757812L672.0000478982026 242.96095976953984V557.0390682734633L400.0000305175781 714.0781225254251L128.0000131369536 557.0390682734633V242.96095976953984L400.0000305175781 85.92190551757812Z " transform="rotate(59.5, 400, 400)" opacity="0.38"></path><path d="M400.0000305175781 104.39706420898438L656.0000468758129 252.19852703436015V547.8014526851116L400.0000305175781 695.6029155104874L144.00001415934332 547.8014526851116V252.19852703436015L400.0000305175781 104.39706420898438Z " transform="rotate(56, 400, 400)" opacity="0.36"></path><path d="M400.00001525878906 122.87225341796875L640.0000305946342 261.4361248167585V538.563867614338L400.00001525878906 677.1277390131278L159.9999999229439 538.563867614338V261.4361248167585L400.00001525878906 122.87225341796875Z " transform="rotate(52.5, 400, 400)" opacity="0.34"></path><path d="M400 141.34744262695312L624.0000143134555 270.6737225991569V529.3262825435645L400 658.6525625157683L175.99998568654456 529.3262825435645V270.6737225991569L400 141.34744262695312Z " transform="rotate(49, 400, 400)" opacity="0.32"></path><path d="M400 159.8226318359375L608.0000132910658 279.9113203815553V520.088697472791L400 640.1773860184087L191.99998670893422 520.088697472791V279.9113203815553L400 159.8226318359375Z " transform="rotate(45.5, 400, 400)" opacity="0.30"></path><path d="M400 178.29779052734375L592.0000122686761 289.14888764637556V510.85108188443917L400 621.702179003471L207.99998773132387 510.85108188443917V289.14888764637556L400 178.29779052734375Z " transform="rotate(42, 400, 400)" opacity="0.28"></path><path d="M400 196.77297973632812L576.0000112462865 298.38648542877394V501.6134968136656L400 603.2270025061114L223.99998875371358 501.6134968136656V298.38648542877394L400 196.77297973632812Z " transform="rotate(38.5, 400, 400)" opacity="0.26"></path><path d="M400 215.2481689453125L560.0000102238968 307.6240832111723V492.3759117428921L400 584.7518260087519L239.99998977610323 492.3759117428921V307.6240832111723L400 215.2481689453125Z " transform="rotate(35, 400, 400)" opacity="0.24"></path><path d="M400 233.72335815429688L544.000009201507 316.86168099357076V483.1383266721184L400 566.2766495113923L255.99999079849295 483.1383266721184V316.86168099357076L400 233.72335815429688Z " transform="rotate(31.5, 400, 400)" opacity="0.22"></path><path d="M400 252.19854736328125L528.0000081791175 326.09927877596914V473.90074160134486L400 547.8014730140328L271.9999918208826 473.90074160134486V326.09927877596914L400 252.19854736328125Z " transform="rotate(28, 400, 400)" opacity="0.19"></path><path d="M400 270.67372131347656L512.0000071567277 335.33686129957846V464.66314127178225L400 529.3262812578841L287.99999284327225 464.66314127178225V335.33686129957846L400 270.67372131347656Z " transform="rotate(24.5, 400, 400)" opacity="0.17"></path><path d="M400 289.1488952636719L496.00000613433804 344.5744438231878V455.4255409422196L400 510.8510895017355L303.99999386566196 455.4255409422196V344.5744438231878L400 289.1488952636719Z " transform="rotate(21, 400, 400)" opacity="0.15"></path><path d="M400 307.62408447265625L480.0000051119484 353.81204160558616V446.18795587144604L400 492.37591300437595L319.9999948880516 446.18795587144604V353.81204160558616L400 307.62408447265625Z " transform="rotate(17.5, 400, 400)" opacity="0.13"></path><path d="M400 326.0992736816406L464.00000408955873 363.04963938798454V436.95037080067243L400 473.9007365070164L335.99999591044127 436.95037080067243V363.04963938798454L400 326.0992736816406Z " transform="rotate(14, 400, 400)" opacity="0.11"></path><path d="M400 344.57444763183594L448.000003067169 372.2872219115939V427.7127704711098L400 455.42554475086774L351.999996932831 427.7127704711098V372.2872219115939L400 344.57444763183594Z " transform="rotate(10.5, 400, 400)" opacity="0.09"></path><path d="M400 363.0496368408203L432.00000204477936 381.5248196939923V418.4751854003362L400 436.9503682535082L367.99999795522064 418.4751854003362V381.5248196939923L400 363.0496368408203Z " transform="rotate(7, 400, 400)" opacity="0.07"></path><path d="M400 381.5248107910156L416.00000102238965 390.7624022176016V409.2375850707736L400 418.47517649735954L383.99999897761035 409.2375850707736V390.7624022176016L400 381.5248107910156Z " transform="rotate(3.5, 400, 400)" opacity="0.05"></path></g></svg>