<svg xmlns="http://www.w3.org/2000/svg" version="1.1" xmlns:xlink="http://www.w3.org/1999/xlink" xmlns:svgjs="http://svgjs.dev/svgjs" viewBox="0 0 800 800" opacity="1" width="800" height="800"><g stroke-width="3.5" stroke="hsla(28, 54%, 37%, 1.00)" fill="none"><circle r="7.2368421052631575" cx="0" cy="0" fill="hsla(28, 54%, 37%, 1.00)" stroke="none"></circle><circle r="7.2368421052631575" cx="50" cy="0" fill="hsla(34, 90%, 51%, 1.00)" stroke="none"></circle><circle r="7.2368421052631575" cx="100" cy="0" fill="hsla(28, 54%, 37%, 1.00)" stroke="none"></circle><circle r="7.2368421052631575" cx="150" cy="0" fill="hsla(34, 90%, 51%, 1.00)" stroke="none"></circle><circle r="7.2368421052631575" cx="200" cy="0" fill="hsla(28, 54%, 37%, 1.00)" stroke="none"></circle><circle r="7.2368421052631575" cx="250" cy="0" fill="hsla(34, 90%, 51%, 1.00)" stroke="none"></circle><circle r="7.2368421052631575" cx="300" cy="0" fill="hsla(28, 54%, 37%, 1.00)" stroke="none"></circle><circle r="7.2368421052631575" cx="350" cy="0" fill="hsla(34, 90%, 51%, 1.00)" stroke="none"></circle><circle r="7.2368421052631575" cx="400" cy="0" fill="hsla(28, 54%, 37%, 1.00)" stroke="none"></circle><circle r="7.2368421052631575" cx="450" cy="0" fill="hsla(34, 90%, 51%, 1.00)" stroke="none"></circle><circle r="7.2368421052631575" cx="500" cy="0" fill="hsla(28, 54%, 37%, 1.00)" stroke="none"></circle><circle r="7.2368421052631575" cx="550" cy="0" fill="hsla(34, 90%, 51%, 1.00)" stroke="none"></circle><circle r="7.2368421052631575" cx="600" cy="0" fill="hsla(28, 54%, 37%, 1.00)" stroke="none"></circle><circle r="7.2368421052631575" cx="650" cy="0" fill="hsla(34, 90%, 51%, 1.00)" stroke="none"></circle><circle r="7.2368421052631575" cx="700" cy="0" fill="hsla(28, 54%, 37%, 1.00)" stroke="none"></circle><circle r="7.2368421052631575" cx="750" cy="0" fill="hsla(34, 90%, 51%, 1.00)" stroke="none"></circle><circle r="7.2368421052631575" cx="800" cy="0" fill="hsla(28, 54%, 37%, 1.00)" stroke="none"></circle><circle r="7.2368421052631575" cx="0" cy="53.333333333333336" fill="hsla(34, 90%, 51%, 1.00)" stroke="none"></circle><circle r="7.2368421052631575" cx="50" cy="53.333333333333336" fill="hsla(28, 54%, 37%, 1.00)" stroke="none"></circle><circle r="7.2368421052631575" cx="100" cy="53.333333333333336" fill="hsla(34, 90%, 51%, 1.00)" stroke="none"></circle><circle r="7.2368421052631575" cx="150" cy="53.333333333333336" fill="hsla(28, 54%, 37%, 1.00)" stroke="none"></circle><circle r="7.2368421052631575" cx="200" cy="53.333333333333336" fill="hsla(34, 90%, 51%, 1.00)" stroke="none"></circle><circle r="7.2368421052631575" cx="250" cy="53.333333333333336" fill="hsla(28, 54%, 37%, 1.00)" stroke="none"></circle><circle r="7.2368421052631575" cx="300" cy="53.333333333333336" fill="hsla(34, 90%, 51%, 1.00)" stroke="none"></circle><circle r="7.2368421052631575" cx="350" cy="53.333333333333336" fill="hsla(28, 54%, 37%, 1.00)" stroke="none"></circle><circle r="7.2368421052631575" cx="400" cy="53.333333333333336" fill="hsla(34, 90%, 51%, 1.00)" stroke="none"></circle><circle r="7.2368421052631575" cx="450" cy="53.333333333333336" fill="hsla(28, 54%, 37%, 1.00)" stroke="none"></circle><circle r="7.2368421052631575" cx="500" cy="53.333333333333336" fill="hsla(34, 90%, 51%, 1.00)" stroke="none"></circle><circle r="7.2368421052631575" cx="550" cy="53.333333333333336" fill="hsla(28, 54%, 37%, 1.00)" stroke="none"></circle><circle r="7.2368421052631575" cx="600" cy="53.333333333333336" fill="hsla(34, 90%, 51%, 1.00)" stroke="none"></circle><circle r="7.2368421052631575" cx="650" cy="53.333333333333336" fill="hsla(28, 54%, 37%, 1.00)" stroke="none"></circle><circle r="7.2368421052631575" cx="700" cy="53.333333333333336" fill="hsla(34, 90%, 51%, 1.00)" stroke="none"></circle><circle r="7.2368421052631575" cx="750" cy="53.333333333333336" fill="hsla(28, 54%, 37%, 1.00)" stroke="none"></circle><circle r="7.2368421052631575" cx="800" cy="53.333333333333336" fill="hsla(34, 90%, 51%, 1.00)" stroke="none"></circle><circle r="7.2368421052631575" cx="0" cy="106.66666666666667" fill="hsla(28, 54%, 37%, 1.00)" stroke="none"></circle><circle r="7.2368421052631575" cx="50" cy="106.66666666666667" fill="hsla(34, 90%, 51%, 1.00)" stroke="none"></circle><circle r="7.2368421052631575" cx="100" cy="106.66666666666667" fill="hsla(28, 54%, 37%, 1.00)" stroke="none"></circle><circle r="7.2368421052631575" cx="150" cy="106.66666666666667" fill="hsla(34, 90%, 51%, 1.00)" stroke="none"></circle><circle r="7.2368421052631575" cx="200" cy="106.66666666666667" fill="hsla(28, 54%, 37%, 1.00)" stroke="none"></circle><circle r="7.2368421052631575" cx="250" cy="106.66666666666667" fill="hsla(34, 90%, 51%, 1.00)" stroke="none"></circle><circle r="7.2368421052631575" cx="300" cy="106.66666666666667" fill="hsla(28, 54%, 37%, 1.00)" stroke="none"></circle><circle r="7.2368421052631575" cx="350" cy="106.66666666666667" fill="hsla(34, 90%, 51%, 1.00)" stroke="none"></circle><circle r="7.2368421052631575" cx="400" cy="106.66666666666667" fill="hsla(28, 54%, 37%, 1.00)" stroke="none"></circle><circle r="7.2368421052631575" cx="450" cy="106.66666666666667" fill="hsla(34, 90%, 51%, 1.00)" stroke="none"></circle><circle r="7.2368421052631575" cx="500" cy="106.66666666666667" fill="hsla(28, 54%, 37%, 1.00)" stroke="none"></circle><circle r="7.2368421052631575" cx="550" cy="106.66666666666667" fill="hsla(34, 90%, 51%, 1.00)" stroke="none"></circle><circle r="7.2368421052631575" cx="600" cy="106.66666666666667" fill="hsla(28, 54%, 37%, 1.00)" stroke="none"></circle><circle r="7.2368421052631575" cx="650" cy="106.66666666666667" fill="hsla(34, 90%, 51%, 1.00)" stroke="none"></circle><circle r="7.2368421052631575" cx="700" cy="106.66666666666667" fill="hsla(28, 54%, 37%, 1.00)" stroke="none"></circle><circle r="7.2368421052631575" cx="750" cy="106.66666666666667" fill="hsla(34, 90%, 51%, 1.00)" stroke="none"></circle><circle r="7.2368421052631575" cx="800" cy="106.66666666666667" fill="hsla(28, 54%, 37%, 1.00)" stroke="none"></circle><circle r="7.2368421052631575" cx="0" cy="160" fill="hsla(34, 90%, 51%, 1.00)" stroke="none"></circle><circle r="7.2368421052631575" cx="50" cy="160" fill="hsla(28, 54%, 37%, 1.00)" stroke="none"></circle><circle r="7.2368421052631575" cx="100" cy="160" fill="hsla(34, 90%, 51%, 1.00)" stroke="none"></circle><circle r="7.2368421052631575" cx="150" cy="160" fill="hsla(28, 54%, 37%, 1.00)" stroke="none"></circle><circle r="7.2368421052631575" cx="200" cy="160" fill="hsla(34, 90%, 51%, 1.00)" stroke="none"></circle><circle r="7.2368421052631575" cx="250" cy="160" fill="hsla(28, 54%, 37%, 1.00)" stroke="none"></circle><circle r="7.2368421052631575" cx="300" cy="160" fill="hsla(34, 90%, 51%, 1.00)" stroke="none"></circle><circle r="7.2368421052631575" cx="350" cy="160" fill="hsla(28, 54%, 37%, 1.00)" stroke="none"></circle><circle r="7.2368421052631575" cx="400" cy="160" fill="hsla(34, 90%, 51%, 1.00)" stroke="none"></circle><circle r="7.2368421052631575" cx="450" cy="160" fill="hsla(28, 54%, 37%, 1.00)" stroke="none"></circle><circle r="7.2368421052631575" cx="500" cy="160" fill="hsla(34, 90%, 51%, 1.00)" stroke="none"></circle><circle r="7.2368421052631575" cx="550" cy="160" fill="hsla(28, 54%, 37%, 1.00)" stroke="none"></circle><circle r="7.2368421052631575" cx="600" cy="160" fill="hsla(34, 90%, 51%, 1.00)" stroke="none"></circle><circle r="7.2368421052631575" cx="650" cy="160" fill="hsla(28, 54%, 37%, 1.00)" stroke="none"></circle><circle r="7.2368421052631575" cx="700" cy="160" fill="hsla(34, 90%, 51%, 1.00)" stroke="none"></circle><circle r="7.2368421052631575" cx="750" cy="160" fill="hsla(28, 54%, 37%, 1.00)" stroke="none"></circle><circle r="7.2368421052631575" cx="800" cy="160" fill="hsla(34, 90%, 51%, 1.00)" stroke="none"></circle><circle r="7.2368421052631575" cx="0" cy="213.33333333333334" fill="hsla(28, 54%, 37%, 1.00)" stroke="none"></circle><circle r="7.2368421052631575" cx="50" cy="213.33333333333334" fill="hsla(34, 90%, 51%, 1.00)" stroke="none"></circle><circle r="7.2368421052631575" cx="100" cy="213.33333333333334" fill="hsla(28, 54%, 37%, 1.00)" stroke="none"></circle><circle r="7.2368421052631575" cx="150" cy="213.33333333333334" fill="hsla(34, 90%, 51%, 1.00)" stroke="none"></circle><circle r="7.2368421052631575" cx="200" cy="213.33333333333334" fill="hsla(28, 54%, 37%, 1.00)" stroke="none"></circle><circle r="7.2368421052631575" cx="250" cy="213.33333333333334" fill="hsla(34, 90%, 51%, 1.00)" stroke="none"></circle><circle r="7.2368421052631575" cx="300" cy="213.33333333333334" fill="hsla(28, 54%, 37%, 1.00)" stroke="none"></circle><circle r="7.2368421052631575" cx="350" cy="213.33333333333334" fill="hsla(34, 90%, 51%, 1.00)" stroke="none"></circle><circle r="7.2368421052631575" cx="400" cy="213.33333333333334" fill="hsla(28, 54%, 37%, 1.00)" stroke="none"></circle><circle r="7.2368421052631575" cx="450" cy="213.33333333333334" fill="hsla(34, 90%, 51%, 1.00)" stroke="none"></circle><circle r="7.2368421052631575" cx="500" cy="213.33333333333334" fill="hsla(28, 54%, 37%, 1.00)" stroke="none"></circle><circle r="7.2368421052631575" cx="550" cy="213.33333333333334" fill="hsla(34, 90%, 51%, 1.00)" stroke="none"></circle><circle r="7.2368421052631575" cx="600" cy="213.33333333333334" fill="hsla(28, 54%, 37%, 1.00)" stroke="none"></circle><circle r="7.2368421052631575" cx="650" cy="213.33333333333334" fill="hsla(34, 90%, 51%, 1.00)" stroke="none"></circle><circle r="7.2368421052631575" cx="700" cy="213.33333333333334" fill="hsla(28, 54%, 37%, 1.00)" stroke="none"></circle><circle r="7.2368421052631575" cx="750" cy="213.33333333333334" fill="hsla(34, 90%, 51%, 1.00)" stroke="none"></circle><circle r="7.2368421052631575" cx="800" cy="213.33333333333334" fill="hsla(28, 54%, 37%, 1.00)" stroke="none"></circle><circle r="7.2368421052631575" cx="0" cy="266.6666666666667" fill="hsla(34, 90%, 51%, 1.00)" stroke="none"></circle><circle r="7.2368421052631575" cx="50" cy="266.6666666666667" fill="hsla(28, 54%, 37%, 1.00)" stroke="none"></circle><circle r="7.2368421052631575" cx="100" cy="266.6666666666667" fill="hsla(34, 90%, 51%, 1.00)" stroke="none"></circle><circle r="7.2368421052631575" cx="150" cy="266.6666666666667" fill="hsla(28, 54%, 37%, 1.00)" stroke="none"></circle><circle r="7.2368421052631575" cx="200" cy="266.6666666666667" fill="hsla(34, 90%, 51%, 1.00)" stroke="none"></circle><circle r="7.2368421052631575" cx="250" cy="266.6666666666667" fill="hsla(28, 54%, 37%, 1.00)" stroke="none"></circle><circle r="7.2368421052631575" cx="300" cy="266.6666666666667" fill="hsla(34, 90%, 51%, 1.00)" stroke="none"></circle><circle r="7.2368421052631575" cx="350" cy="266.6666666666667" fill="hsla(28, 54%, 37%, 1.00)" stroke="none"></circle><circle r="7.2368421052631575" cx="400" cy="266.6666666666667" fill="hsla(34, 90%, 51%, 1.00)" stroke="none"></circle><circle r="7.2368421052631575" cx="450" cy="266.6666666666667" fill="hsla(28, 54%, 37%, 1.00)" stroke="none"></circle><circle r="7.2368421052631575" cx="500" cy="266.6666666666667" fill="hsla(34, 90%, 51%, 1.00)" stroke="none"></circle><circle r="7.2368421052631575" cx="550" cy="266.6666666666667" fill="hsla(28, 54%, 37%, 1.00)" stroke="none"></circle><circle r="7.2368421052631575" cx="600" cy="266.6666666666667" fill="hsla(34, 90%, 51%, 1.00)" stroke="none"></circle><circle r="7.2368421052631575" cx="650" cy="266.6666666666667" fill="hsla(28, 54%, 37%, 1.00)" stroke="none"></circle><circle r="7.2368421052631575" cx="700" cy="266.6666666666667" fill="hsla(34, 90%, 51%, 1.00)" stroke="none"></circle><circle r="7.2368421052631575" cx="750" cy="266.6666666666667" fill="hsla(28, 54%, 37%, 1.00)" stroke="none"></circle><circle r="7.2368421052631575" cx="800" cy="266.6666666666667" fill="hsla(34, 90%, 51%, 1.00)" stroke="none"></circle><circle r="7.2368421052631575" cx="0" cy="320" fill="hsla(28, 54%, 37%, 1.00)" stroke="none"></circle><circle r="7.2368421052631575" cx="50" cy="320" fill="hsla(34, 90%, 51%, 1.00)" stroke="none"></circle><circle r="7.2368421052631575" cx="100" cy="320" fill="hsla(28, 54%, 37%, 1.00)" stroke="none"></circle><circle r="7.2368421052631575" cx="150" cy="320" fill="hsla(34, 90%, 51%, 1.00)" stroke="none"></circle><circle r="7.2368421052631575" cx="200" cy="320" fill="hsla(28, 54%, 37%, 1.00)" stroke="none"></circle><circle r="7.2368421052631575" cx="250" cy="320" fill="hsla(34, 90%, 51%, 1.00)" stroke="none"></circle><circle r="7.2368421052631575" cx="300" cy="320" fill="hsla(28, 54%, 37%, 1.00)" stroke="none"></circle><circle r="7.2368421052631575" cx="350" cy="320" fill="hsla(34, 90%, 51%, 1.00)" stroke="none"></circle><circle r="7.2368421052631575" cx="400" cy="320" fill="hsla(28, 54%, 37%, 1.00)" stroke="none"></circle><circle r="7.2368421052631575" cx="450" cy="320" fill="hsla(34, 90%, 51%, 1.00)" stroke="none"></circle><circle r="7.2368421052631575" cx="500" cy="320" fill="hsla(28, 54%, 37%, 1.00)" stroke="none"></circle><circle r="7.2368421052631575" cx="550" cy="320" fill="hsla(34, 90%, 51%, 1.00)" stroke="none"></circle><circle r="7.2368421052631575" cx="600" cy="320" fill="hsla(28, 54%, 37%, 1.00)" stroke="none"></circle><circle r="7.2368421052631575" cx="650" cy="320" fill="hsla(34, 90%, 51%, 1.00)" stroke="none"></circle><circle r="7.2368421052631575" cx="700" cy="320" fill="hsla(28, 54%, 37%, 1.00)" stroke="none"></circle><circle r="7.2368421052631575" cx="750" cy="320" fill="hsla(34, 90%, 51%, 1.00)" stroke="none"></circle><circle r="7.2368421052631575" cx="800" cy="320" fill="hsla(28, 54%, 37%, 1.00)" stroke="none"></circle><circle r="7.2368421052631575" cx="0" cy="373.3333333333333" fill="hsla(34, 90%, 51%, 1.00)" stroke="none"></circle><circle r="7.2368421052631575" cx="50" cy="373.3333333333333" fill="hsla(28, 54%, 37%, 1.00)" stroke="none"></circle><circle r="7.2368421052631575" cx="100" cy="373.3333333333333" fill="hsla(34, 90%, 51%, 1.00)" stroke="none"></circle><circle r="7.2368421052631575" cx="150" cy="373.3333333333333" fill="hsla(28, 54%, 37%, 1.00)" stroke="none"></circle><circle r="7.2368421052631575" cx="200" cy="373.3333333333333" fill="hsla(34, 90%, 51%, 1.00)" stroke="none"></circle><circle r="7.2368421052631575" cx="250" cy="373.3333333333333" fill="hsla(28, 54%, 37%, 1.00)" stroke="none"></circle><circle r="7.2368421052631575" cx="300" cy="373.3333333333333" fill="hsla(34, 90%, 51%, 1.00)" stroke="none"></circle><circle r="7.2368421052631575" cx="350" cy="373.3333333333333" fill="hsla(28, 54%, 37%, 1.00)" stroke="none"></circle><circle r="7.2368421052631575" cx="400" cy="373.3333333333333" fill="hsla(34, 90%, 51%, 1.00)" stroke="none"></circle><circle r="7.2368421052631575" cx="450" cy="373.3333333333333" fill="hsla(28, 54%, 37%, 1.00)" stroke="none"></circle><circle r="7.2368421052631575" cx="500" cy="373.3333333333333" fill="hsla(34, 90%, 51%, 1.00)" stroke="none"></circle><circle r="7.2368421052631575" cx="550" cy="373.3333333333333" fill="hsla(28, 54%, 37%, 1.00)" stroke="none"></circle><circle r="7.2368421052631575" cx="600" cy="373.3333333333333" fill="hsla(34, 90%, 51%, 1.00)" stroke="none"></circle><circle r="7.2368421052631575" cx="650" cy="373.3333333333333" fill="hsla(28, 54%, 37%, 1.00)" stroke="none"></circle><circle r="7.2368421052631575" cx="700" cy="373.3333333333333" fill="hsla(34, 90%, 51%, 1.00)" stroke="none"></circle><circle r="7.2368421052631575" cx="750" cy="373.3333333333333" fill="hsla(28, 54%, 37%, 1.00)" stroke="none"></circle><circle r="7.2368421052631575" cx="800" cy="373.3333333333333" fill="hsla(34, 90%, 51%, 1.00)" stroke="none"></circle><circle r="7.2368421052631575" cx="0" cy="426.66666666666663" fill="hsla(28, 54%, 37%, 1.00)" stroke="none"></circle><circle r="7.2368421052631575" cx="50" cy="426.66666666666663" fill="hsla(34, 90%, 51%, 1.00)" stroke="none"></circle><circle r="7.2368421052631575" cx="100" cy="426.66666666666663" fill="hsla(28, 54%, 37%, 1.00)" stroke="none"></circle><circle r="7.2368421052631575" cx="150" cy="426.66666666666663" fill="hsla(34, 90%, 51%, 1.00)" stroke="none"></circle><circle r="7.2368421052631575" cx="200" cy="426.66666666666663" fill="hsla(28, 54%, 37%, 1.00)" stroke="none"></circle><circle r="7.2368421052631575" cx="250" cy="426.66666666666663" fill="hsla(34, 90%, 51%, 1.00)" stroke="none"></circle><circle r="7.2368421052631575" cx="300" cy="426.66666666666663" fill="hsla(28, 54%, 37%, 1.00)" stroke="none"></circle><circle r="7.2368421052631575" cx="350" cy="426.66666666666663" fill="hsla(34, 90%, 51%, 1.00)" stroke="none"></circle><circle r="7.2368421052631575" cx="400" cy="426.66666666666663" fill="hsla(28, 54%, 37%, 1.00)" stroke="none"></circle><circle r="7.2368421052631575" cx="450" cy="426.66666666666663" fill="hsla(34, 90%, 51%, 1.00)" stroke="none"></circle><circle r="7.2368421052631575" cx="500" cy="426.66666666666663" fill="hsla(28, 54%, 37%, 1.00)" stroke="none"></circle><circle r="7.2368421052631575" cx="550" cy="426.66666666666663" fill="hsla(34, 90%, 51%, 1.00)" stroke="none"></circle><circle r="7.2368421052631575" cx="600" cy="426.66666666666663" fill="hsla(28, 54%, 37%, 1.00)" stroke="none"></circle><circle r="7.2368421052631575" cx="650" cy="426.66666666666663" fill="hsla(34, 90%, 51%, 1.00)" stroke="none"></circle><circle r="7.2368421052631575" cx="700" cy="426.66666666666663" fill="hsla(28, 54%, 37%, 1.00)" stroke="none"></circle><circle r="7.2368421052631575" cx="750" cy="426.66666666666663" fill="hsla(34, 90%, 51%, 1.00)" stroke="none"></circle><circle r="7.2368421052631575" cx="800" cy="426.66666666666663" fill="hsla(28, 54%, 37%, 1.00)" stroke="none"></circle><circle r="7.2368421052631575" cx="0" cy="479.99999999999994" fill="hsla(34, 90%, 51%, 1.00)" stroke="none"></circle><circle r="7.2368421052631575" cx="50" cy="479.99999999999994" fill="hsla(28, 54%, 37%, 1.00)" stroke="none"></circle><circle r="7.2368421052631575" cx="100" cy="479.99999999999994" fill="hsla(34, 90%, 51%, 1.00)" stroke="none"></circle><circle r="7.2368421052631575" cx="150" cy="479.99999999999994" fill="hsla(28, 54%, 37%, 1.00)" stroke="none"></circle><circle r="7.2368421052631575" cx="200" cy="479.99999999999994" fill="hsla(34, 90%, 51%, 1.00)" stroke="none"></circle><circle r="7.2368421052631575" cx="250" cy="479.99999999999994" fill="hsla(28, 54%, 37%, 1.00)" stroke="none"></circle><circle r="7.2368421052631575" cx="300" cy="479.99999999999994" fill="hsla(34, 90%, 51%, 1.00)" stroke="none"></circle><circle r="7.2368421052631575" cx="350" cy="479.99999999999994" fill="hsla(28, 54%, 37%, 1.00)" stroke="none"></circle><circle r="7.2368421052631575" cx="400" cy="479.99999999999994" fill="hsla(34, 90%, 51%, 1.00)" stroke="none"></circle><circle r="7.2368421052631575" cx="450" cy="479.99999999999994" fill="hsla(28, 54%, 37%, 1.00)" stroke="none"></circle><circle r="7.2368421052631575" cx="500" cy="479.99999999999994" fill="hsla(34, 90%, 51%, 1.00)" stroke="none"></circle><circle r="7.2368421052631575" cx="550" cy="479.99999999999994" fill="hsla(28, 54%, 37%, 1.00)" stroke="none"></circle><circle r="7.2368421052631575" cx="600" cy="479.99999999999994" fill="hsla(34, 90%, 51%, 1.00)" stroke="none"></circle><circle r="7.2368421052631575" cx="650" cy="479.99999999999994" fill="hsla(28, 54%, 37%, 1.00)" stroke="none"></circle><circle r="7.2368421052631575" cx="700" cy="479.99999999999994" fill="hsla(34, 90%, 51%, 1.00)" stroke="none"></circle><circle r="7.2368421052631575" cx="750" cy="479.99999999999994" fill="hsla(28, 54%, 37%, 1.00)" stroke="none"></circle><circle r="7.2368421052631575" cx="800" cy="479.99999999999994" fill="hsla(34, 90%, 51%, 1.00)" stroke="none"></circle><circle r="7.2368421052631575" cx="0" cy="533.3333333333333" fill="hsla(28, 54%, 37%, 1.00)" stroke="none"></circle><circle r="7.2368421052631575" cx="50" cy="533.3333333333333" fill="hsla(34, 90%, 51%, 1.00)" stroke="none"></circle><circle r="7.2368421052631575" cx="100" cy="533.3333333333333" fill="hsla(28, 54%, 37%, 1.00)" stroke="none"></circle><circle r="7.2368421052631575" cx="150" cy="533.3333333333333" fill="hsla(34, 90%, 51%, 1.00)" stroke="none"></circle><circle r="7.2368421052631575" cx="200" cy="533.3333333333333" fill="hsla(28, 54%, 37%, 1.00)" stroke="none"></circle><circle r="7.2368421052631575" cx="250" cy="533.3333333333333" fill="hsla(34, 90%, 51%, 1.00)" stroke="none"></circle><circle r="7.2368421052631575" cx="300" cy="533.3333333333333" fill="hsla(28, 54%, 37%, 1.00)" stroke="none"></circle><circle r="7.2368421052631575" cx="350" cy="533.3333333333333" fill="hsla(34, 90%, 51%, 1.00)" stroke="none"></circle><circle r="7.2368421052631575" cx="400" cy="533.3333333333333" fill="hsla(28, 54%, 37%, 1.00)" stroke="none"></circle><circle r="7.2368421052631575" cx="450" cy="533.3333333333333" fill="hsla(34, 90%, 51%, 1.00)" stroke="none"></circle><circle r="7.2368421052631575" cx="500" cy="533.3333333333333" fill="hsla(28, 54%, 37%, 1.00)" stroke="none"></circle><circle r="7.2368421052631575" cx="550" cy="533.3333333333333" fill="hsla(34, 90%, 51%, 1.00)" stroke="none"></circle><circle r="7.2368421052631575" cx="600" cy="533.3333333333333" fill="hsla(28, 54%, 37%, 1.00)" stroke="none"></circle><circle r="7.2368421052631575" cx="650" cy="533.3333333333333" fill="hsla(34, 90%, 51%, 1.00)" stroke="none"></circle><circle r="7.2368421052631575" cx="700" cy="533.3333333333333" fill="hsla(28, 54%, 37%, 1.00)" stroke="none"></circle><circle r="7.2368421052631575" cx="750" cy="533.3333333333333" fill="hsla(34, 90%, 51%, 1.00)" stroke="none"></circle><circle r="7.2368421052631575" cx="800" cy="533.3333333333333" fill="hsla(28, 54%, 37%, 1.00)" stroke="none"></circle><circle r="7.2368421052631575" cx="0" cy="586.6666666666666" fill="hsla(34, 90%, 51%, 1.00)" stroke="none"></circle><circle r="7.2368421052631575" cx="50" cy="586.6666666666666" fill="hsla(28, 54%, 37%, 1.00)" stroke="none"></circle><circle r="7.2368421052631575" cx="100" cy="586.6666666666666" fill="hsla(34, 90%, 51%, 1.00)" stroke="none"></circle><circle r="7.2368421052631575" cx="150" cy="586.6666666666666" fill="hsla(28, 54%, 37%, 1.00)" stroke="none"></circle><circle r="7.2368421052631575" cx="200" cy="586.6666666666666" fill="hsla(34, 90%, 51%, 1.00)" stroke="none"></circle><circle r="7.2368421052631575" cx="250" cy="586.6666666666666" fill="hsla(28, 54%, 37%, 1.00)" stroke="none"></circle><circle r="7.2368421052631575" cx="300" cy="586.6666666666666" fill="hsla(34, 90%, 51%, 1.00)" stroke="none"></circle><circle r="7.2368421052631575" cx="350" cy="586.6666666666666" fill="hsla(28, 54%, 37%, 1.00)" stroke="none"></circle><circle r="7.2368421052631575" cx="400" cy="586.6666666666666" fill="hsla(34, 90%, 51%, 1.00)" stroke="none"></circle><circle r="7.2368421052631575" cx="450" cy="586.6666666666666" fill="hsla(28, 54%, 37%, 1.00)" stroke="none"></circle><circle r="7.2368421052631575" cx="500" cy="586.6666666666666" fill="hsla(34, 90%, 51%, 1.00)" stroke="none"></circle><circle r="7.2368421052631575" cx="550" cy="586.6666666666666" fill="hsla(28, 54%, 37%, 1.00)" stroke="none"></circle><circle r="7.2368421052631575" cx="600" cy="586.6666666666666" fill="hsla(34, 90%, 51%, 1.00)" stroke="none"></circle><circle r="7.2368421052631575" cx="650" cy="586.6666666666666" fill="hsla(28, 54%, 37%, 1.00)" stroke="none"></circle><circle r="7.2368421052631575" cx="700" cy="586.6666666666666" fill="hsla(34, 90%, 51%, 1.00)" stroke="none"></circle><circle r="7.2368421052631575" cx="750" cy="586.6666666666666" fill="hsla(28, 54%, 37%, 1.00)" stroke="none"></circle><circle r="7.2368421052631575" cx="800" cy="586.6666666666666" fill="hsla(34, 90%, 51%, 1.00)" stroke="none"></circle><circle r="7.2368421052631575" cx="0" cy="640" fill="hsla(28, 54%, 37%, 1.00)" stroke="none"></circle><circle r="7.2368421052631575" cx="50" cy="640" fill="hsla(34, 90%, 51%, 1.00)" stroke="none"></circle><circle r="7.2368421052631575" cx="100" cy="640" fill="hsla(28, 54%, 37%, 1.00)" stroke="none"></circle><circle r="7.2368421052631575" cx="150" cy="640" fill="hsla(34, 90%, 51%, 1.00)" stroke="none"></circle><circle r="7.2368421052631575" cx="200" cy="640" fill="hsla(28, 54%, 37%, 1.00)" stroke="none"></circle><circle r="7.2368421052631575" cx="250" cy="640" fill="hsla(34, 90%, 51%, 1.00)" stroke="none"></circle><circle r="7.2368421052631575" cx="300" cy="640" fill="hsla(28, 54%, 37%, 1.00)" stroke="none"></circle><circle r="7.2368421052631575" cx="350" cy="640" fill="hsla(34, 90%, 51%, 1.00)" stroke="none"></circle><circle r="7.2368421052631575" cx="400" cy="640" fill="hsla(28, 54%, 37%, 1.00)" stroke="none"></circle><circle r="7.2368421052631575" cx="450" cy="640" fill="hsla(34, 90%, 51%, 1.00)" stroke="none"></circle><circle r="7.2368421052631575" cx="500" cy="640" fill="hsla(28, 54%, 37%, 1.00)" stroke="none"></circle><circle r="7.2368421052631575" cx="550" cy="640" fill="hsla(34, 90%, 51%, 1.00)" stroke="none"></circle><circle r="7.2368421052631575" cx="600" cy="640" fill="hsla(28, 54%, 37%, 1.00)" stroke="none"></circle><circle r="7.2368421052631575" cx="650" cy="640" fill="hsla(34, 90%, 51%, 1.00)" stroke="none"></circle><circle r="7.2368421052631575" cx="700" cy="640" fill="hsla(28, 54%, 37%, 1.00)" stroke="none"></circle><circle r="7.2368421052631575" cx="750" cy="640" fill="hsla(34, 90%, 51%, 1.00)" stroke="none"></circle><circle r="7.2368421052631575" cx="800" cy="640" fill="hsla(28, 54%, 37%, 1.00)" stroke="none"></circle><circle r="7.2368421052631575" cx="0" cy="693.3333333333334" fill="hsla(34, 90%, 51%, 1.00)" stroke="none"></circle><circle r="7.2368421052631575" cx="50" cy="693.3333333333334" fill="hsla(28, 54%, 37%, 1.00)" stroke="none"></circle><circle r="7.2368421052631575" cx="100" cy="693.3333333333334" fill="hsla(34, 90%, 51%, 1.00)" stroke="none"></circle><circle r="7.2368421052631575" cx="150" cy="693.3333333333334" fill="hsla(28, 54%, 37%, 1.00)" stroke="none"></circle><circle r="7.2368421052631575" cx="200" cy="693.3333333333334" fill="hsla(34, 90%, 51%, 1.00)" stroke="none"></circle><circle r="7.2368421052631575" cx="250" cy="693.3333333333334" fill="hsla(28, 54%, 37%, 1.00)" stroke="none"></circle><circle r="7.2368421052631575" cx="300" cy="693.3333333333334" fill="hsla(34, 90%, 51%, 1.00)" stroke="none"></circle><circle r="7.2368421052631575" cx="350" cy="693.3333333333334" fill="hsla(28, 54%, 37%, 1.00)" stroke="none"></circle><circle r="7.2368421052631575" cx="400" cy="693.3333333333334" fill="hsla(34, 90%, 51%, 1.00)" stroke="none"></circle><circle r="7.2368421052631575" cx="450" cy="693.3333333333334" fill="hsla(28, 54%, 37%, 1.00)" stroke="none"></circle><circle r="7.2368421052631575" cx="500" cy="693.3333333333334" fill="hsla(34, 90%, 51%, 1.00)" stroke="none"></circle><circle r="7.2368421052631575" cx="550" cy="693.3333333333334" fill="hsla(28, 54%, 37%, 1.00)" stroke="none"></circle><circle r="7.2368421052631575" cx="600" cy="693.3333333333334" fill="hsla(34, 90%, 51%, 1.00)" stroke="none"></circle><circle r="7.2368421052631575" cx="650" cy="693.3333333333334" fill="hsla(28, 54%, 37%, 1.00)" stroke="none"></circle><circle r="7.2368421052631575" cx="700" cy="693.3333333333334" fill="hsla(34, 90%, 51%, 1.00)" stroke="none"></circle><circle r="7.2368421052631575" cx="750" cy="693.3333333333334" fill="hsla(28, 54%, 37%, 1.00)" stroke="none"></circle><circle r="7.2368421052631575" cx="800" cy="693.3333333333334" fill="hsla(34, 90%, 51%, 1.00)" stroke="none"></circle><circle r="7.2368421052631575" cx="0" cy="746.6666666666667" fill="hsla(28, 54%, 37%, 1.00)" stroke="none"></circle><circle r="7.2368421052631575" cx="50" cy="746.6666666666667" fill="hsla(34, 90%, 51%, 1.00)" stroke="none"></circle><circle r="7.2368421052631575" cx="100" cy="746.6666666666667" fill="hsla(28, 54%, 37%, 1.00)" stroke="none"></circle><circle r="7.2368421052631575" cx="150" cy="746.6666666666667" fill="hsla(34, 90%, 51%, 1.00)" stroke="none"></circle><circle r="7.2368421052631575" cx="200" cy="746.6666666666667" fill="hsla(28, 54%, 37%, 1.00)" stroke="none"></circle><circle r="7.2368421052631575" cx="250" cy="746.6666666666667" fill="hsla(34, 90%, 51%, 1.00)" stroke="none"></circle><circle r="7.2368421052631575" cx="300" cy="746.6666666666667" fill="hsla(28, 54%, 37%, 1.00)" stroke="none"></circle><circle r="7.2368421052631575" cx="350" cy="746.6666666666667" fill="hsla(34, 90%, 51%, 1.00)" stroke="none"></circle><circle r="7.2368421052631575" cx="400" cy="746.6666666666667" fill="hsla(28, 54%, 37%, 1.00)" stroke="none"></circle><circle r="7.2368421052631575" cx="450" cy="746.6666666666667" fill="hsla(34, 90%, 51%, 1.00)" stroke="none"></circle><circle r="7.2368421052631575" cx="500" cy="746.6666666666667" fill="hsla(28, 54%, 37%, 1.00)" stroke="none"></circle><circle r="7.2368421052631575" cx="550" cy="746.6666666666667" fill="hsla(34, 90%, 51%, 1.00)" stroke="none"></circle><circle r="7.2368421052631575" cx="600" cy="746.6666666666667" fill="hsla(28, 54%, 37%, 1.00)" stroke="none"></circle><circle r="7.2368421052631575" cx="650" cy="746.6666666666667" fill="hsla(34, 90%, 51%, 1.00)" stroke="none"></circle><circle r="7.2368421052631575" cx="700" cy="746.6666666666667" fill="hsla(28, 54%, 37%, 1.00)" stroke="none"></circle><circle r="7.2368421052631575" cx="750" cy="746.6666666666667" fill="hsla(34, 90%, 51%, 1.00)" stroke="none"></circle><circle r="7.2368421052631575" cx="800" cy="746.6666666666667" fill="hsla(28, 54%, 37%, 1.00)" stroke="none"></circle><circle r="7.2368421052631575" cx="0" cy="800.0000000000001" fill="hsla(34, 90%, 51%, 1.00)" stroke="none"></circle><circle r="7.2368421052631575" cx="50" cy="800.0000000000001" fill="hsla(28, 54%, 37%, 1.00)" stroke="none"></circle><circle r="7.2368421052631575" cx="100" cy="800.0000000000001" fill="hsla(34, 90%, 51%, 1.00)" stroke="none"></circle><circle r="7.2368421052631575" cx="150" cy="800.0000000000001" fill="hsla(28, 54%, 37%, 1.00)" stroke="none"></circle><circle r="7.2368421052631575" cx="200" cy="800.0000000000001" fill="hsla(34, 90%, 51%, 1.00)" stroke="none"></circle><circle r="7.2368421052631575" cx="250" cy="800.0000000000001" fill="hsla(28, 54%, 37%, 1.00)" stroke="none"></circle><circle r="7.2368421052631575" cx="300" cy="800.0000000000001" fill="hsla(34, 90%, 51%, 1.00)" stroke="none"></circle><circle r="7.2368421052631575" cx="350" cy="800.0000000000001" fill="hsla(28, 54%, 37%, 1.00)" stroke="none"></circle><circle r="7.2368421052631575" cx="400" cy="800.0000000000001" fill="hsla(34, 90%, 51%, 1.00)" stroke="none"></circle><circle r="7.2368421052631575" cx="450" cy="800.0000000000001" fill="hsla(28, 54%, 37%, 1.00)" stroke="none"></circle><circle r="7.2368421052631575" cx="500" cy="800.0000000000001" fill="hsla(34, 90%, 51%, 1.00)" stroke="none"></circle><circle r="7.2368421052631575" cx="550" cy="800.0000000000001" fill="hsla(28, 54%, 37%, 1.00)" stroke="none"></circle><circle r="7.2368421052631575" cx="600" cy="800.0000000000001" fill="hsla(34, 90%, 51%, 1.00)" stroke="none"></circle><circle r="7.2368421052631575" cx="650" cy="800.0000000000001" fill="hsla(28, 54%, 37%, 1.00)" stroke="none"></circle><circle r="7.2368421052631575" cx="700" cy="800.0000000000001" fill="hsla(34, 90%, 51%, 1.00)" stroke="none"></circle><circle r="7.2368421052631575" cx="750" cy="800.0000000000001" fill="hsla(28, 54%, 37%, 1.00)" stroke="none"></circle><circle r="7.2368421052631575" cx="800" cy="800.0000000000001" fill="hsla(34, 90%, 51%, 1.00)" stroke="none"></circle></g></svg>