<svg xmlns="http://www.w3.org/2000/svg" version="1.1" xmlns:xlink="http://www.w3.org/1999/xlink" xmlns:svgjs="http://svgjs.dev/svgjs" viewBox="0 0 800 800" opacity="1"><defs><linearGradient x1="50%" y1="0%" x2="50%" y2="100%" id="ggglitch-grad"><stop stop-color="hsla(30, 99%, 50%, 1.00)" stop-opacity="1" offset="45%"></stop><stop stop-color="hsla(30, 100%, 70%, 0.53)" stop-opacity="1" offset="100%"></stop></linearGradient><clipPath id="SvgjsClipPath2330"><rect width="57.142857142857146" height="800" x="0" y="0"></rect><rect width="57.142857142857146" height="800" x="114.28571428571429" y="0"></rect><rect width="57.142857142857146" height="800" x="228.57142857142858" y="0"></rect><rect width="57.142857142857146" height="800" x="342.8571428571429" y="0"></rect><rect width="57.142857142857146" height="800" x="457.14285714285717" y="0"></rect><rect width="57.142857142857146" height="800" x="571.4285714285714" y="0"></rect><rect width="57.142857142857146" height="800" x="685.7142857142858" y="0"></rect><rect width="57.142857142857146" height="800" x="800" y="0"></rect><rect width="57.142857142857146" height="800" x="914.2857142857143" y="0"></rect><rect width="57.142857142857146" height="800" x="1028.5714285714287" y="0"></rect><rect width="57.142857142857146" height="800" x="1142.857142857143" y="0"></rect><rect width="57.142857142857146" height="800" x="1257.142857142857" y="0"></rect><rect width="57.142857142857146" height="800" x="1371.4285714285716" y="0"></rect><rect width="57.142857142857146" height="800" x="1485.7142857142858" y="0"></rect><rect width="57.142857142857146" height="800" x="1600" y="0"></rect></clipPath><clipPath id="SvgjsClipPath2331"><rect width="57.142857142857146" height="800" x="57.142857142857146" y="0"></rect><rect width="57.142857142857146" height="800" x="171.42857142857144" y="0"></rect><rect width="57.142857142857146" height="800" x="285.7142857142857" y="0"></rect><rect width="57.142857142857146" height="800" x="400" y="0"></rect><rect width="57.142857142857146" height="800" x="514.2857142857143" y="0"></rect><rect width="57.142857142857146" height="800" x="628.5714285714287" y="0"></rect><rect width="57.142857142857146" height="800" x="742.8571428571429" y="0"></rect><rect width="57.142857142857146" height="800" x="857.1428571428572" y="0"></rect><rect width="57.142857142857146" height="800" x="971.4285714285716" y="0"></rect><rect width="57.142857142857146" height="800" x="1085.7142857142858" y="0"></rect><rect width="57.142857142857146" height="800" x="1200" y="0"></rect><rect width="57.142857142857146" height="800" x="1314.2857142857144" y="0"></rect><rect width="57.142857142857146" height="800" x="1428.5714285714287" y="0"></rect><rect width="57.142857142857146" height="800" x="1542.857142857143" y="0"></rect></clipPath></defs><g stroke-width="49" stroke="url(#ggglitch-grad)" fill="none"><circle r="373.5" cx="400" cy="400" fill="none" opacity="0.43" clip-path="url(&quot;#SvgjsClipPath2330&quot;)"></circle><circle r="294.5" cx="400" cy="400" fill="none" opacity="0.43" clip-path="url(&quot;#SvgjsClipPath2330&quot;)"></circle><circle r="215.5" cx="400" cy="400" fill="none" opacity="0.43" clip-path="url(&quot;#SvgjsClipPath2330&quot;)"></circle><circle r="136.5" cx="400" cy="400" fill="none" opacity="0.43" clip-path="url(&quot;#SvgjsClipPath2330&quot;)"></circle><circle r="57.5" cx="400" cy="400" fill="none" opacity="0.43" clip-path="url(&quot;#SvgjsClipPath2330&quot;)"></circle><circle r="375.5" cx="400" cy="400" fill="none" clip-path="url(&quot;#SvgjsClipPath2331&quot;)"></circle><circle r="296.5" cx="400" cy="400" fill="none" clip-path="url(&quot;#SvgjsClipPath2331&quot;)"></circle><circle r="217.5" cx="400" cy="400" fill="none" clip-path="url(&quot;#SvgjsClipPath2331&quot;)"></circle><circle r="138.5" cx="400" cy="400" fill="none" clip-path="url(&quot;#SvgjsClipPath2331&quot;)"></circle><circle r="59.5" cx="400" cy="400" fill="none" clip-path="url(&quot;#SvgjsClipPath2331&quot;)"></circle></g></svg>