<svg xmlns="http://www.w3.org/2000/svg" version="1.1" xmlns:xlink="http://www.w3.org/1999/xlink" xmlns:svgjs="http://svgjs.dev/svgjs" viewBox="0 0 800 800" opacity="0.93"><defs><linearGradient x1="50%" y1="0%" x2="50%" y2="100%" id="nnneon-grad"><stop stop-color="hsl(30, 100%, 50%)" stop-opacity="1" offset="0%"></stop><stop stop-color="hsl(30, 100%, 70%)" stop-opacity="1" offset="100%"></stop></linearGradient><filter id="nnneon-filter" x="-100%" y="-100%" width="400%" height="400%" filterUnits="objectBoundingBox" primitiveUnits="userSpaceOnUse" color-interpolation-filters="sRGB">
	<feGaussianBlur stdDeviation="30 40" x="0%" y="0%" width="100%" height="100%" in="SourceGraphic" edgeMode="none" result="blur"></feGaussianBlur></filter><filter id="nnneon-filter2" x="-100%" y="-100%" width="400%" height="400%" filterUnits="objectBoundingBox" primitiveUnits="userSpaceOnUse" color-interpolation-filters="sRGB">
	<feGaussianBlur stdDeviation="18 41" x="0%" y="0%" width="100%" height="100%" in="SourceGraphic" edgeMode="none" result="blur"></feGaussianBlur></filter></defs><g stroke-width="29.5" stroke="url(#nnneon-grad)" fill="none" transform="rotate(141, 400, 400)"><path d="M382.94894582509335 154.07777826812855C393.5001381485256 147.98714171685188 406.4998618514744 147.98714171685188 417.05105417490665 154.07948337354605L604.4489599788004 262.27353742958104C615.0001523022327 268.3641739808577 621.5000141537071 279.62298505254853 621.5000141537071 291.8059632605194V508.1940713725894C621.5000141537071 520.3770495805602 615.0001523022327 531.635860652251 604.4489599788004 537.7282023089451L417.05105417490665 645.9222563649802C406.4998618514744 652.0128929162568 393.5001381485256 652.0128929162568 382.94894582509335 645.9205512595627L195.55104002119958 537.7264972035277C184.99984769776734 531.635860652251 178.49998584629293 520.3770495805602 178.49998584629293 508.1940713725894V291.8059632605194C178.49998584629293 279.62298505254853 184.99984769776734 268.3641739808577 195.55104002119958 262.2718323241636L382.94894582509335 154.07777826812855Z " filter="url(#nnneon-filter)"></path><path d="M411.94894582509335 154.07777826812855C422.5001381485256 147.98714171685188 435.4998618514744 147.98714171685188 446.05105417490665 154.07948337354605L633.4489599788004 262.27353742958104C644.0001523022327 268.3641739808577 650.5000141537071 279.62298505254853 650.5000141537071 291.8059632605194V508.1940713725894C650.5000141537071 520.3770495805602 644.0001523022327 531.635860652251 633.4489599788004 537.7282023089451L446.05105417490665 645.9222563649802C435.4998618514744 652.0128929162568 422.5001381485256 652.0128929162568 411.94894582509335 645.9205512595627L224.55104002119958 537.7264972035277C213.99984769776734 531.635860652251 207.49998584629293 520.3770495805602 207.49998584629293 508.1940713725894V291.8059632605194C207.49998584629293 279.62298505254853 213.99984769776734 268.3641739808577 224.55104002119958 262.2718323241636L411.94894582509335 154.07777826812855Z " filter="url(#nnneon-filter2)" opacity="0"></path><path d="M353.94894582509335 154.07777826812855C364.5001381485256 147.98714171685188 377.4998618514744 147.98714171685188 388.05105417490665 154.07948337354605L575.4489599788004 262.27353742958104C586.0001523022327 268.3641739808577 592.5000141537071 279.62298505254853 592.5000141537071 291.8059632605194V508.1940713725894C592.5000141537071 520.3770495805602 586.0001523022327 531.635860652251 575.4489599788004 537.7282023089451L388.05105417490665 645.9222563649802C377.4998618514744 652.0128929162568 364.5001381485256 652.0128929162568 353.94894582509335 645.9205512595627L166.55104002119958 537.7264972035277C155.99984769776734 531.635860652251 149.49998584629293 520.3770495805602 149.49998584629293 508.1940713725894V291.8059632605194C149.49998584629293 279.62298505254853 155.99984769776734 268.3641739808577 166.55104002119958 262.2718323241636L353.94894582509335 154.07777826812855Z " filter="url(#nnneon-filter2)" opacity="0"></path><path d="M382.94894582509335 154.07777826812855C393.5001381485256 147.98714171685188 406.4998618514744 147.98714171685188 417.05105417490665 154.07948337354605L604.4489599788004 262.27353742958104C615.0001523022327 268.3641739808577 621.5000141537071 279.62298505254853 621.5000141537071 291.8059632605194V508.1940713725894C621.5000141537071 520.3770495805602 615.0001523022327 531.635860652251 604.4489599788004 537.7282023089451L417.05105417490665 645.9222563649802C406.4998618514744 652.0128929162568 393.5001381485256 652.0128929162568 382.94894582509335 645.9205512595627L195.55104002119958 537.7264972035277C184.99984769776734 531.635860652251 178.49998584629293 520.3770495805602 178.49998584629293 508.1940713725894V291.8059632605194C178.49998584629293 279.62298505254853 184.99984769776734 268.3641739808577 195.55104002119958 262.2718323241636L382.94894582509335 154.07777826812855Z "></path></g></svg>