<svg xmlns="http://www.w3.org/2000/svg" version="1.1" xmlns:xlink="http://www.w3.org/1999/xlink" xmlns:svgjs="http://svgjs.dev/svgjs" viewBox="0 0 800 800"><circle r="14" cx="368" cy="685" fill="hsl(321, 76%, 77%)" opacity="0.50"></circle><circle r="8.5" cx="781" cy="501" fill="hsl(303, 76%, 77%)" opacity="0.98"></circle><circle r="14.5" cx="430" cy="600" fill="hsl(329, 76%, 77%)" opacity="0.28"></circle><circle r="11" cx="153" cy="503" fill="hsl(308, 76%, 77%)" opacity="0.89"></circle><circle r="13" cx="737" cy="476" fill="hsl(321, 76%, 77%)" opacity="0.62"></circle><circle r="17" cx="581" cy="283" fill="hsl(341, 76%, 77%)" opacity="0.19"></circle><circle r="12" cx="686" cy="116" fill="hsl(313, 76%, 77%)" opacity="0.11"></circle><circle r="11.5" cx="310" cy="776" fill="hsl(309, 76%, 77%)" opacity="0.57"></circle><circle r="13" cx="420" cy="691" fill="hsl(328, 76%, 77%)" opacity="0.59"></circle><circle r="11.5" cx="744" cy="527" fill="hsl(316, 76%, 77%)" opacity="0.34"></circle><circle r="13" cx="730" cy="639" fill="hsl(321, 76%, 77%)" opacity="0.40"></circle><circle r="15.5" cx="152" cy="24" fill="hsl(341, 76%, 77%)" opacity="0.86"></circle><circle r="11.5" cx="23" cy="679" fill="hsl(308, 76%, 77%)" opacity="0.70"></circle><circle r="14" cx="719" cy="210" fill="hsl(325, 76%, 77%)" opacity="0.47"></circle><circle r="9.5" cx="164" cy="779" fill="hsl(307, 76%, 77%)" opacity="0.96"></circle><circle r="12.5" cx="262" cy="127" fill="hsl(309, 76%, 77%)" opacity="0.19"></circle><circle r="14" cx="489" cy="539" fill="hsl(334, 76%, 77%)" opacity="0.77"></circle><circle r="16" cx="533" cy="562" fill="hsl(337, 76%, 77%)" opacity="0.61"></circle><circle r="12" cx="275" cy="178" fill="hsl(306, 76%, 77%)" opacity="0.56"></circle><circle r="11.5" cx="590" cy="79" fill="hsl(316, 76%, 77%)" opacity="0.67"></circle><circle r="15.5" cx="679" cy="711" fill="hsl(335, 76%, 77%)" opacity="0.60"></circle><circle r="13" cx="370" cy="375" fill="hsl(321, 76%, 77%)" opacity="0.97"></circle><circle r="16" cx="473" cy="334" fill="hsl(332, 76%, 77%)" opacity="0.63"></circle><circle r="12" cx="730" cy="350" fill="hsl(321, 76%, 77%)" opacity="0.93"></circle><circle r="12.5" cx="733" cy="303" fill="hsl(321, 76%, 77%)" opacity="0.17"></circle><circle r="13" cx="410" cy="777" fill="hsl(326, 76%, 77%)" opacity="0.83"></circle><circle r="14.5" cx="456" cy="443" fill="hsl(331, 76%, 77%)" opacity="0.88"></circle><circle r="11" cx="26" cy="229" fill="hsl(310, 76%, 77%)" opacity="0.51"></circle><circle r="11.5" cx="29" cy="583" fill="hsl(310, 76%, 77%)" opacity="0.28"></circle><circle r="11" cx="259" cy="25" fill="hsl(305, 76%, 77%)" opacity="0.50"></circle><circle r="12" cx="111" cy="647" fill="hsl(314, 76%, 77%)" opacity="0.38"></circle><circle r="15.5" cx="632" cy="588" fill="hsl(341, 76%, 77%)" opacity="0.14"></circle><circle r="13.5" cx="444" cy="551" fill="hsl(330, 76%, 77%)" opacity="0.96"></circle><circle r="13" cx="338" cy="729" fill="hsl(316, 76%, 77%)" opacity="0.82"></circle><circle r="12" cx="66" cy="776" fill="hsl(314, 76%, 77%)" opacity="0.67"></circle><circle r="11" cx="113" cy="317" fill="hsl(313, 76%, 77%)" opacity="0.59"></circle><circle r="13" cx="426" cy="139" fill="hsl(314, 76%, 77%)" opacity="1.00"></circle><circle r="14" cx="390" cy="328" fill="hsl(325, 76%, 77%)" opacity="0.99"></circle><circle r="14" cx="404" cy="240" fill="hsl(326, 76%, 77%)" opacity="0.23"></circle><circle r="10.5" cx="250" cy="607" fill="hsl(302, 76%, 77%)" opacity="0.25"></circle><circle r="11.5" cx="286" cy="727" fill="hsl(305, 76%, 77%)" opacity="0.42"></circle><circle r="10.5" cx="188" cy="575" fill="hsl(304, 76%, 77%)" opacity="0.51"></circle><circle r="11" cx="736" cy="428" fill="hsl(321, 76%, 77%)" opacity="0.18"></circle><circle r="14" cx="519" cy="505" fill="hsl(336, 76%, 77%)" opacity="0.97"></circle><circle r="13.5" cx="211" cy="119" fill="hsl(320, 76%, 77%)" opacity="0.92"></circle><circle r="13.5" cx="72" cy="103" fill="hsl(329, 76%, 77%)" opacity="0.31"></circle><circle r="9.5" cx="778" cy="560" fill="hsl(303, 76%, 77%)" opacity="0.77"></circle><circle r="11.5" cx="163" cy="417" fill="hsl(307, 76%, 77%)" opacity="0.55"></circle><circle r="13" cx="534" cy="124" fill="hsl(317, 76%, 77%)" opacity="0.15"></circle><circle r="9.5" cx="779" cy="616" fill="hsl(303, 76%, 77%)" opacity="0.50"></circle><circle r="10" cx="182" cy="698" fill="hsl(305, 76%, 77%)" opacity="0.83"></circle><circle r="13.5" cx="486" cy="589" fill="hsl(333, 76%, 77%)" opacity="0.72"></circle><circle r="11.5" cx="61" cy="506" fill="hsl(313, 76%, 77%)" opacity="0.55"></circle><circle r="12.5" cx="293" cy="230" fill="hsl(307, 76%, 77%)" opacity="0.65"></circle><circle r="12" cx="738" cy="255" fill="hsl(316, 76%, 77%)" opacity="0.68"></circle><circle r="15.5" cx="592" cy="627" fill="hsl(341, 76%, 77%)" opacity="0.25"></circle><circle r="11.5" cx="476" cy="123" fill="hsl(310, 76%, 77%)" opacity="0.43"></circle><circle r="12.5" cx="369" cy="422" fill="hsl(321, 76%, 77%)" opacity="0.58"></circle><circle r="16.5" cx="540" cy="616" fill="hsl(338, 76%, 77%)" opacity="0.22"></circle><circle r="14.5" cx="699" cy="507" fill="hsl(332, 76%, 77%)" opacity="0.90"></circle><circle r="15" cx="503" cy="454" fill="hsl(335, 76%, 77%)" opacity="0.21"></circle><circle r="14.5" cx="593" cy="775" fill="hsl(341, 76%, 77%)" opacity="0.31"></circle><circle r="11.5" cx="67" cy="309" fill="hsl(314, 76%, 77%)" opacity="0.81"></circle><circle r="10.5" cx="141" cy="735" fill="hsl(310, 76%, 77%)" opacity="0.60"></circle><circle r="13" cx="78" cy="363" fill="hsl(315, 76%, 77%)" opacity="0.45"></circle><circle r="13" cx="137" cy="555" fill="hsl(312, 76%, 77%)" opacity="0.97"></circle><circle r="12" cx="774" cy="390" fill="hsl(308, 76%, 77%)" opacity="0.68"></circle><circle r="14" cx="116" cy="126" fill="hsl(329, 76%, 77%)" opacity="0.56"></circle><circle r="13" cx="97" cy="410" fill="hsl(315, 76%, 77%)" opacity="0.52"></circle><circle r="10" cx="200" cy="621" fill="hsl(303, 76%, 77%)" opacity="0.27"></circle><circle r="9" cx="779" cy="445" fill="hsl(303, 76%, 77%)" opacity="0.31"></circle><circle r="10.5" cx="21" cy="775" fill="hsl(308, 76%, 77%)" opacity="0.98"></circle><circle r="13.5" cx="638" cy="779" fill="hsl(340, 76%, 77%)" opacity="0.27"></circle><circle r="12.5" cx="314" cy="384" fill="hsl(312, 76%, 77%)" opacity="0.48"></circle><circle r="10.5" cx="263" cy="774" fill="hsl(304, 76%, 77%)" opacity="0.98"></circle><circle r="14.5" cx="553" cy="471" fill="hsl(339, 76%, 77%)" opacity="0.15"></circle><circle r="11" cx="196" cy="524" fill="hsl(304, 76%, 77%)" opacity="0.96"></circle><circle r="7.5" cx="777" cy="133" fill="hsl(286, 76%, 77%)" opacity="0.77"></circle><circle r="11" cx="311" cy="593" fill="hsl(309, 76%, 77%)" opacity="0.35"></circle><circle r="12" cx="316" cy="131" fill="hsl(305, 76%, 77%)" opacity="0.40"></circle><circle r="14.5" cx="584" cy="437" fill="hsl(341, 76%, 77%)" opacity="0.76"></circle><circle r="13.5" cx="313" cy="281" fill="hsl(312, 76%, 77%)" opacity="0.50"></circle><circle r="8" cx="307" cy="28" fill="hsl(286, 76%, 77%)" opacity="0.62"></circle><circle r="15.5" cx="563" cy="222" fill="hsl(340, 76%, 77%)" opacity="0.54"></circle><circle r="10.5" cx="235" cy="330" fill="hsl(302, 76%, 77%)" opacity="0.23"></circle><circle r="15.5" cx="691" cy="454" fill="hsl(332, 76%, 77%)" opacity="0.87"></circle><circle r="11" cx="271" cy="447" fill="hsl(304, 76%, 77%)" opacity="0.77"></circle><circle r="12" cx="634" cy="93" fill="hsl(317, 76%, 77%)" opacity="0.79"></circle><circle r="15" cx="682" cy="660" fill="hsl(335, 76%, 77%)" opacity="0.75"></circle><circle r="13.5" cx="305" cy="496" fill="hsl(309, 76%, 77%)" opacity="0.95"></circle><circle r="11" cx="23" cy="328" fill="hsl(308, 76%, 77%)" opacity="0.25"></circle><circle r="14" cx="162" cy="114" fill="hsl(329, 76%, 77%)" opacity="0.73"></circle><circle r="14" cx="691" cy="258" fill="hsl(332, 76%, 77%)" opacity="0.35"></circle><circle r="10.5" cx="163" cy="656" fill="hsl(307, 76%, 77%)" opacity="0.75"></circle><circle r="11" cx="775" cy="721" fill="hsl(303, 76%, 77%)" opacity="0.94"></circle><circle r="15" cx="658" cy="220" fill="hsl(339, 76%, 77%)" opacity="0.44"></circle><circle r="9" cx="774" cy="26" fill="hsl(287, 76%, 77%)" opacity="0.19"></circle><circle r="13.5" cx="458" cy="777" fill="hsl(331, 76%, 77%)" opacity="0.41"></circle><circle r="11.5" cx="114" cy="777" fill="hsl(313, 76%, 77%)" opacity="0.17"></circle><circle r="15" cx="678" cy="356" fill="hsl(335, 76%, 77%)" opacity="0.27"></circle><circle r="10.5" cx="193" cy="469" fill="hsl(304, 76%, 77%)" opacity="0.62"></circle><circle r="12.5" cx="711" cy="558" fill="hsl(328, 76%, 77%)" opacity="0.94"></circle><circle r="10" cx="235" cy="556" fill="hsl(302, 76%, 77%)" opacity="0.31"></circle><circle r="14" cx="495" cy="168" fill="hsl(327, 76%, 77%)" opacity="0.22"></circle><circle r="9.5" cx="157" cy="305" fill="hsl(308, 76%, 77%)" opacity="0.47"></circle><circle r="16" cx="540" cy="714" fill="hsl(338, 76%, 77%)" opacity="0.26"></circle><circle r="13" cx="88" cy="261" fill="hsl(315, 76%, 77%)" opacity="0.91"></circle><circle r="12" cx="576" cy="25" fill="hsl(314, 76%, 77%)" opacity="0.89"></circle><circle r="15" cx="477" cy="395" fill="hsl(333, 76%, 77%)" opacity="0.40"></circle><circle r="12" cx="132" cy="457" fill="hsl(312, 76%, 77%)" opacity="0.39"></circle><circle r="11" cx="293" cy="79" fill="hsl(299, 76%, 77%)" opacity="0.47"></circle><circle r="13" cx="393" cy="557" fill="hsl(325, 76%, 77%)" opacity="0.89"></circle><circle r="9.5" cx="672" cy="21" fill="hsl(309, 76%, 77%)" opacity="0.91"></circle><circle r="9.5" cx="779" cy="284" fill="hsl(303, 76%, 77%)" opacity="0.67"></circle><circle r="10" cx="777" cy="230" fill="hsl(303, 76%, 77%)" opacity="0.78"></circle><circle r="9" cx="722" cy="22" fill="hsl(297, 76%, 77%)" opacity="0.88"></circle><circle r="15" cx="429" cy="294" fill="hsl(329, 76%, 77%)" opacity="0.26"></circle><circle r="12.5" cx="316" cy="683" fill="hsl(312, 76%, 77%)" opacity="0.78"></circle><circle r="15" cx="588" cy="133" fill="hsl(325, 76%, 77%)" opacity="0.79"></circle><circle r="11" cx="236" cy="721" fill="hsl(302, 76%, 77%)" opacity="0.35"></circle><circle r="13.5" cx="390" cy="732" fill="hsl(325, 76%, 77%)" opacity="0.39"></circle><circle r="14.5" cx="640" cy="273" fill="hsl(340, 76%, 77%)" opacity="0.46"></circle><circle r="12.5" cx="360" cy="776" fill="hsl(319, 76%, 77%)" opacity="0.78"></circle><circle r="13" cx="164" cy="166" fill="hsl(314, 76%, 77%)" opacity="0.96"></circle><circle r="14.5" cx="683" cy="771" fill="hsl(335, 76%, 77%)" opacity="0.36"></circle><circle r="14" cx="444" cy="732" fill="hsl(330, 76%, 77%)" opacity="0.33"></circle><circle r="13.5" cx="486" cy="634" fill="hsl(333, 76%, 77%)" opacity="0.39"></circle><circle r="13" cx="70" cy="56" fill="hsl(333, 76%, 77%)" opacity="0.56"></circle><circle r="15.5" cx="504" cy="217" fill="hsl(335, 76%, 77%)" opacity="0.46"></circle><circle r="9.5" cx="398" cy="89" fill="hsl(295, 76%, 77%)" opacity="0.76"></circle><circle r="13" cx="67" cy="154" fill="hsl(322, 76%, 77%)" opacity="0.86"></circle><circle r="11" cx="28" cy="276" fill="hsl(310, 76%, 77%)" opacity="0.58"></circle><circle r="13" cx="139" cy="367" fill="hsl(310, 76%, 77%)" opacity="0.84"></circle><circle r="10" cx="20" cy="630" fill="hsl(308, 76%, 77%)" opacity="0.97"></circle><circle r="13" cx="331" cy="183" fill="hsl(313, 76%, 77%)" opacity="0.30"></circle><circle r="16.5" cx="589" cy="723" fill="hsl(341, 76%, 77%)" opacity="0.63"></circle><circle r="11.5" cx="28" cy="727" fill="hsl(310, 76%, 77%)" opacity="0.58"></circle><circle r="14" cx="482" cy="278" fill="hsl(333, 76%, 77%)" opacity="0.65"></circle><circle r="12" cx="238" cy="225" fill="hsl(302, 76%, 77%)" opacity="0.25"></circle><circle r="14" cx="430" cy="358" fill="hsl(329, 76%, 77%)" opacity="0.93"></circle><circle r="13.5" cx="207" cy="24" fill="hsl(326, 76%, 77%)" opacity="0.64"></circle><circle r="9" cx="724" cy="67" fill="hsl(296, 76%, 77%)" opacity="0.34"></circle><circle r="10.5" cx="673" cy="65" fill="hsl(308, 76%, 77%)" opacity="0.31"></circle><circle r="12" cx="71" cy="686" fill="hsl(314, 76%, 77%)" opacity="0.91"></circle><circle r="14" cx="414" cy="509" fill="hsl(328, 76%, 77%)" opacity="0.32"></circle><circle r="15" cx="533" cy="416" fill="hsl(337, 76%, 77%)" opacity="0.13"></circle><circle r="13.5" cx="409" cy="461" fill="hsl(326, 76%, 77%)" opacity="0.45"></circle><circle r="12" cx="258" cy="278" fill="hsl(303, 76%, 77%)" opacity="0.80"></circle><circle r="14" cx="596" cy="333" fill="hsl(341, 76%, 77%)" opacity="0.96"></circle><circle r="12" cx="24" cy="179" fill="hsl(311, 76%, 77%)" opacity="0.41"></circle><circle r="12" cx="147" cy="608" fill="hsl(310, 76%, 77%)" opacity="0.53"></circle><circle r="12.5" cx="729" cy="688" fill="hsl(321, 76%, 77%)" opacity="0.42"></circle><circle r="14.5" cx="654" cy="499" fill="hsl(339, 76%, 77%)" opacity="0.99"></circle><circle r="10" cx="221" cy="664" fill="hsl(302, 76%, 77%)" opacity="0.39"></circle><circle r="13.5" cx="442" cy="650" fill="hsl(330, 76%, 77%)" opacity="0.16"></circle><circle r="14.5" cx="666" cy="551" fill="hsl(337, 76%, 77%)" opacity="0.78"></circle><circle r="12.5" cx="220" cy="171" fill="hsl(308, 76%, 77%)" opacity="0.74"></circle><circle r="10.5" cx="223" cy="431" fill="hsl(302, 76%, 77%)" opacity="0.12"></circle><circle r="11.5" cx="23" cy="474" fill="hsl(308, 76%, 77%)" opacity="0.28"></circle><circle r="11.5" cx="107" cy="511" fill="hsl(314, 76%, 77%)" opacity="0.31"></circle><circle r="12.5" cx="725" cy="735" fill="hsl(325, 76%, 77%)" opacity="0.43"></circle><circle r="11.5" cx="285" cy="333" fill="hsl(305, 76%, 77%)" opacity="0.25"></circle><circle r="11" cx="186" cy="335" fill="hsl(305, 76%, 77%)" opacity="0.26"></circle><circle r="16" cx="627" cy="682" fill="hsl(341, 76%, 77%)" opacity="0.37"></circle><circle r="14" cx="496" cy="734" fill="hsl(334, 76%, 77%)" opacity="0.38"></circle><circle r="12" cx="86" cy="732" fill="hsl(315, 76%, 77%)" opacity="0.76"></circle><circle r="12" cx="281" cy="549" fill="hsl(305, 76%, 77%)" opacity="0.39"></circle><circle r="16" cx="686" cy="605" fill="hsl(335, 76%, 77%)" opacity="0.71"></circle><circle r="11.5" cx="715" cy="393" fill="hsl(325, 76%, 77%)" opacity="0.24"></circle><circle r="11.5" cx="125" cy="693" fill="hsl(313, 76%, 77%)" opacity="0.57"></circle><circle r="13" cx="505" cy="779" fill="hsl(335, 76%, 77%)" opacity="0.48"></circle><circle r="14.5" cx="637" cy="318" fill="hsl(341, 76%, 77%)" opacity="0.62"></circle><circle r="17.5" cx="124" cy="71" fill="hsl(340, 76%, 77%)" opacity="0.93"></circle><circle r="9" cx="735" cy="112" fill="hsl(296, 76%, 77%)" opacity="0.52"></circle><circle r="10" cx="777" cy="773" fill="hsl(303, 76%, 77%)" opacity="0.27"></circle><circle r="15.5" cx="533" cy="261" fill="hsl(337, 76%, 77%)" opacity="1.00"></circle><circle r="12" cx="246" cy="497" fill="hsl(302, 76%, 77%)" opacity="0.39"></circle><circle r="10.5" cx="203" cy="381" fill="hsl(303, 76%, 77%)" opacity="0.22"></circle><circle r="10.5" cx="265" cy="676" fill="hsl(304, 76%, 77%)" opacity="0.75"></circle><circle r="13" cx="554" cy="334" fill="hsl(339, 76%, 77%)" opacity="0.63"></circle><circle r="13" cx="341" cy="639" fill="hsl(316, 76%, 77%)" opacity="0.76"></circle><circle r="13.5" cx="520" cy="308" fill="hsl(336, 76%, 77%)" opacity="0.73"></circle><circle r="11.5" cx="355" cy="470" fill="hsl(319, 76%, 77%)" opacity="0.76"></circle><circle r="15" cx="551" cy="175" fill="hsl(336, 76%, 77%)" opacity="0.30"></circle><circle r="13" cx="78" cy="458" fill="hsl(315, 76%, 77%)" opacity="0.99"></circle><circle r="15" cx="389" cy="188" fill="hsl(325, 76%, 77%)" opacity="0.66"></circle><circle r="11" cx="739" cy="592" fill="hsl(316, 76%, 77%)" opacity="0.34"></circle><circle r="12" cx="184" cy="218" fill="hsl(305, 76%, 77%)" opacity="0.43"></circle><circle r="11.5" cx="260" cy="387" fill="hsl(303, 76%, 77%)" opacity="0.95"></circle><circle r="12" cx="624" cy="30" fill="hsl(315, 76%, 77%)" opacity="0.74"></circle><circle r="13" cx="95" cy="21" fill="hsl(340, 76%, 77%)" opacity="0.11"></circle><circle r="13" cx="72" cy="211" fill="hsl(314, 76%, 77%)" opacity="0.54"></circle><circle r="16.5" cx="611" cy="185" fill="hsl(338, 76%, 77%)" opacity="0.13"></circle><circle r="11" cx="730" cy="780" fill="hsl(321, 76%, 77%)" opacity="0.66"></circle><circle r="15" cx="640" cy="452" fill="hsl(340, 76%, 77%)" opacity="0.36"></circle><circle r="15.5" cx="609" cy="237" fill="hsl(341, 76%, 77%)" opacity="0.47"></circle><circle r="9" cx="481" cy="27" fill="hsl(294, 76%, 77%)" opacity="0.37"></circle><circle r="15.5" cx="642" cy="635" fill="hsl(340, 76%, 77%)" opacity="0.30"></circle><circle r="14" cx="548" cy="770" fill="hsl(338, 76%, 77%)" opacity="0.32"></circle><circle r="16.5" cx="568" cy="524" fill="hsl(340, 76%, 77%)" opacity="0.27"></circle><circle r="14" cx="619" cy="409" fill="hsl(341, 76%, 77%)" opacity="0.29"></circle><circle r="11" cx="22" cy="532" fill="hsl(308, 76%, 77%)" opacity="0.17"></circle><circle r="11.5" cx="724" cy="159" fill="hsl(312, 76%, 77%)" opacity="0.83"></circle><circle r="15" cx="183" cy="69" fill="hsl(333, 76%, 77%)" opacity="0.78"></circle><circle r="12" cx="111" cy="174" fill="hsl(321, 76%, 77%)" opacity="0.45"></circle><circle r="14.5" cx="638" cy="733" fill="hsl(340, 76%, 77%)" opacity="0.75"></circle><circle r="10" cx="777" cy="337" fill="hsl(303, 76%, 77%)" opacity="0.42"></circle><circle r="16.5" cx="574" cy="383" fill="hsl(340, 76%, 77%)" opacity="0.36"></circle><circle r="16.5" cx="603" cy="487" fill="hsl(341, 76%, 77%)" opacity="0.42"></circle><circle r="15" cx="518" cy="366" fill="hsl(336, 76%, 77%)" opacity="0.31"></circle><circle r="13.5" cx="394" cy="640" fill="hsl(325, 76%, 77%)" opacity="0.73"></circle><circle r="14" cx="675" cy="176" fill="hsl(331, 76%, 77%)" opacity="0.48"></circle><circle r="15" cx="669" cy="407" fill="hsl(337, 76%, 77%)" opacity="0.28"></circle><circle r="16.5" cx="581" cy="577" fill="hsl(341, 76%, 77%)" opacity="0.80"></circle><circle r="12.5" cx="368" cy="595" fill="hsl(321, 76%, 77%)" opacity="0.50"></circle><circle r="9.5" cx="347" cy="80" fill="hsl(291, 76%, 77%)" opacity="0.42"></circle><circle r="14" cx="420" cy="406" fill="hsl(328, 76%, 77%)" opacity="0.79"></circle><circle r="10.5" cx="777" cy="669" fill="hsl(303, 76%, 77%)" opacity="0.50"></circle><circle r="11" cx="128" cy="216" fill="hsl(312, 76%, 77%)" opacity="0.40"></circle><circle r="13" cx="23" cy="74" fill="hsl(319, 76%, 77%)" opacity="0.16"></circle><circle r="13" cx="239" cy="73" fill="hsl(313, 76%, 77%)" opacity="0.83"></circle><circle r="11.5" cx="75" cy="555" fill="hsl(314, 76%, 77%)" opacity="0.76"></circle><circle r="13.5" cx="348" cy="233" fill="hsl(316, 76%, 77%)" opacity="0.74"></circle><circle r="13.5" cx="23" cy="126" fill="hsl(317, 76%, 77%)" opacity="0.36"></circle><circle r="11.5" cx="96" cy="596" fill="hsl(315, 76%, 77%)" opacity="0.38"></circle><circle r="12.5" cx="29" cy="22" fill="hsl(323, 76%, 77%)" opacity="0.77"></circle><circle r="6.5" cx="394" cy="33" fill="hsl(279, 76%, 77%)" opacity="0.43"></circle><circle r="15.5" cx="463" cy="494" fill="hsl(332, 76%, 77%)" opacity="0.71"></circle><circle r="10.5" cx="546" cy="74" fill="hsl(310, 76%, 77%)" opacity="0.67"></circle><circle r="7.5" cx="776" cy="78" fill="hsl(281, 76%, 77%)" opacity="0.96"></circle><circle r="15.5" cx="574" cy="671" fill="hsl(340, 76%, 77%)" opacity="0.18"></circle><circle r="11" cx="26" cy="378" fill="hsl(310, 76%, 77%)" opacity="0.40"></circle><circle r="15.5" cx="524" cy="666" fill="hsl(336, 76%, 77%)" opacity="0.72"></circle><circle r="10.5" cx="498" cy="77" fill="hsl(302, 76%, 77%)" opacity="0.14"></circle><circle r="13.5" cx="370" cy="283" fill="hsl(321, 76%, 77%)" opacity="0.37"></circle><circle r="12" cx="63" cy="633" fill="hsl(314, 76%, 77%)" opacity="0.64"></circle><circle r="9.5" cx="217" cy="777" fill="hsl(302, 76%, 77%)" opacity="0.38"></circle><circle r="12.5" cx="317" cy="435" fill="hsl(312, 76%, 77%)" opacity="0.62"></circle><circle r="11.5" cx="334" cy="549" fill="hsl(314, 76%, 77%)" opacity="0.61"></circle><circle r="12" cx="204" cy="274" fill="hsl(303, 76%, 77%)" opacity="0.14"></circle><circle r="14" cx="454" cy="240" fill="hsl(331, 76%, 77%)" opacity="0.82"></circle><circle r="14.5" cx="685" cy="308" fill="hsl(335, 76%, 77%)" opacity="0.29"></circle><circle r="13" cx="337" cy="331" fill="hsl(314, 76%, 77%)" opacity="0.45"></circle><circle r="7.5" cx="437" cy="25" fill="hsl(283, 76%, 77%)" opacity="0.24"></circle><circle r="15" cx="478" cy="689" fill="hsl(333, 76%, 77%)" opacity="0.39"></circle><circle r="10.5" cx="773" cy="182" fill="hsl(303, 76%, 77%)" opacity="0.30"></circle><circle r="13.5" cx="641" cy="143" fill="hsl(326, 76%, 77%)" opacity="0.24"></circle><circle r="11" cx="146" cy="260" fill="hsl(310, 76%, 77%)" opacity="0.85"></circle><circle r="10.5" cx="289" cy="636" fill="hsl(307, 76%, 77%)" opacity="0.39"></circle><circle r="12" cx="363" cy="514" fill="hsl(321, 76%, 77%)" opacity="0.83"></circle><circle r="10.5" cx="446" cy="78" fill="hsl(295, 76%, 77%)" opacity="0.13"></circle><circle r="11" cx="528" cy="25" fill="hsl(307, 76%, 77%)" opacity="0.98"></circle><circle r="11" cx="32" cy="424" fill="hsl(310, 76%, 77%)" opacity="0.50"></circle><circle r="14" cx="629" cy="367" fill="hsl(341, 76%, 77%)" opacity="0.39"></circle><circle r="15" cx="445" cy="189" fill="hsl(330, 76%, 77%)" opacity="0.31"></circle><circle r="9.5" cx="191" cy="740" fill="hsl(304, 76%, 77%)" opacity="0.20"></circle><circle r="12.5" cx="369" cy="137" fill="hsl(306, 76%, 77%)" opacity="0.66"></circle><circle r="6.5" cx="352" cy="25" fill="hsl(278, 76%, 77%)" opacity="0.48"></circle><circle r="16.5" cx="618" cy="537" fill="hsl(341, 76%, 77%)" opacity="0.47"></circle></svg>