<svg xmlns="http://www.w3.org/2000/svg" version="1.1" xmlns:xlink="http://www.w3.org/1999/xlink" xmlns:svgjs="http://svgjs.dev/svgjs" viewBox="0 0 800 800"><defs><linearGradient x1="50%" y1="0%" x2="50%" y2="100%" id="ffflurry-grad" gradientTransform="rotate(270)"><stop stop-color="hsl(0, 0%, 100%)" stop-opacity="1" offset="0%"></stop><stop stop-color="hsl(30, 100%, 50%)" stop-opacity="1" offset="45%"></stop><stop stop-color="hsl(30, 100%, 70%)" stop-opacity="1" offset="100%"></stop></linearGradient></defs><rect width="100%" height="100%" fill="hsl(0, 0%, 100%)"></rect><g fill="url(#ffflurry-grad)"><rect width="256" height="4" x="362" y="742" rx="2" transform="rotate(40, 490, 744)" opacity="0.08"></rect><rect width="221" height="4" x="401.5" y="565" rx="2" transform="rotate(40, 512, 567)" opacity="0.52"></rect><rect width="209" height="4" x="51.5" y="94" rx="2" transform="rotate(40, 156, 96)" opacity="0.57"></rect><rect width="256" height="4" x="-90" y="766" rx="2" transform="rotate(40, 38, 768)" opacity="0.24"></rect><rect width="63" height="4" x="486.5" y="208" rx="2" transform="rotate(40, 518, 210)" opacity="0.48"></rect><rect width="64" height="4" x="686" y="106" rx="2" transform="rotate(40, 718, 108)" opacity="0.52"></rect><rect width="271" height="4" x="629.5" y="46" rx="2" transform="rotate(40, 765, 48)" opacity="0.08"></rect><rect width="160" height="4" x="276" y="90" rx="2" transform="rotate(40, 356, 92)" opacity="0.32"></rect><rect width="162" height="4" x="296" y="647" rx="2" transform="rotate(40, 377, 649)" opacity="0.71"></rect><rect width="336" height="4" x="-132" y="42" rx="2" transform="rotate(40, 36, 44)" opacity="0.22"></rect><rect width="266" height="4" x="169" y="134" rx="2" transform="rotate(40, 302, 136)" opacity="0.67"></rect><rect width="92" height="4" x="-18" y="465" rx="2" transform="rotate(40, 28, 467)" opacity="0.07"></rect><rect width="220" height="4" x="-21" y="190" rx="2" transform="rotate(40, 89, 192)" opacity="0.40"></rect><rect width="154" height="4" x="168" y="601" rx="2" transform="rotate(40, 245, 603)" opacity="0.21"></rect><rect width="386" height="4" x="-159" y="137" rx="2" transform="rotate(40, 34, 139)" opacity="0.64"></rect><rect width="150" height="4" x="-47" y="235" rx="2" transform="rotate(40, 28, 237)" opacity="0.24"></rect><rect width="359" height="4" x="16.5" y="554" rx="2" transform="rotate(40, 196, 556)" opacity="0.28"></rect><rect width="136" height="4" x="190" y="780" rx="2" transform="rotate(40, 258, 782)" opacity="0.61"></rect><rect width="88" height="4" x="644" y="765" rx="2" transform="rotate(40, 688, 767)" opacity="0.84"></rect><rect width="135" height="4" x="187.5" y="736" rx="2" transform="rotate(40, 255, 738)" opacity="0.75"></rect><rect width="172" height="4" x="231" y="766" rx="2" transform="rotate(40, 317, 768)" opacity="0.33"></rect><rect width="95" height="4" x="333.5" y="25" rx="2" transform="rotate(40, 381, 27)" opacity="0.17"></rect><rect width="209" height="4" x="3.5" y="27" rx="2" transform="rotate(40, 108, 29)" opacity="0.46"></rect><rect width="330" height="4" x="-87" y="440" rx="2" transform="rotate(40, 78, 442)" opacity="0.87"></rect><rect width="164" height="4" x="168" y="194" rx="2" transform="rotate(40, 250, 196)" opacity="0.80"></rect><rect width="111" height="4" x="525.5" y="241" rx="2" transform="rotate(40, 581, 243)" opacity="0.22"></rect><rect width="54" height="4" x="595" y="351" rx="2" transform="rotate(40, 622, 353)" opacity="0.69"></rect><rect width="192" height="4" x="74" y="203" rx="2" transform="rotate(40, 170, 205)" opacity="0.69"></rect><rect width="78" height="4" x="178" y="130" rx="2" transform="rotate(40, 217, 132)" opacity="0.20"></rect><rect width="65" height="4" x="711.5" y="224" rx="2" transform="rotate(40, 744, 226)" opacity="0.95"></rect><rect width="75" height="4" x="517.5" y="55" rx="2" transform="rotate(40, 555, 57)" opacity="0.58"></rect><rect width="91" height="4" x="500.5" y="315" rx="2" transform="rotate(40, 546, 317)" opacity="0.72"></rect><rect width="79" height="4" x="460.5" y="36" rx="2" transform="rotate(40, 500, 38)" opacity="0.95"></rect><rect width="73" height="4" x="617.5" y="82" rx="2" transform="rotate(40, 654, 84)" opacity="0.78"></rect><rect width="339" height="4" x="519.5" y="534" rx="2" transform="rotate(40, 689, 536)" opacity="0.60"></rect><rect width="219" height="4" x="86.5" y="763" rx="2" transform="rotate(40, 196, 765)" opacity="0.75"></rect><rect width="262" height="4" x="310" y="229" rx="2" transform="rotate(40, 441, 231)" opacity="0.32"></rect><rect width="207" height="4" x="43.5" y="737" rx="2" transform="rotate(40, 147, 739)" opacity="0.46"></rect><rect width="165" height="4" x="577.5" y="150" rx="2" transform="rotate(40, 660, 152)" opacity="0.42"></rect><rect width="73" height="4" x="525.5" y="705" rx="2" transform="rotate(40, 562, 707)" opacity="0.61"></rect><rect width="171" height="4" x="433.5" y="493" rx="2" transform="rotate(40, 519, 495)" opacity="0.76"></rect><rect width="355" height="4" x="135.5" y="459" rx="2" transform="rotate(40, 313, 461)" opacity="0.31"></rect><rect width="79" height="4" x="676.5" y="621" rx="2" transform="rotate(40, 716, 623)" opacity="0.54"></rect><rect width="187" height="4" x="126.5" y="649" rx="2" transform="rotate(40, 220, 651)" opacity="0.64"></rect><rect width="162" height="4" x="410" y="402" rx="2" transform="rotate(40, 491, 404)" opacity="0.45"></rect><rect width="46" height="4" x="653" y="278" rx="2" transform="rotate(40, 676, 280)" opacity="0.40"></rect><rect width="179" height="4" x="430.5" y="651" rx="2" transform="rotate(40, 520, 653)" opacity="0.41"></rect><rect width="133" height="4" x="673.5" y="497" rx="2" transform="rotate(40, 740, 499)" opacity="0.41"></rect><rect width="171" height="4" x="86.5" y="23" rx="2" transform="rotate(40, 172, 25)" opacity="0.34"></rect><rect width="52" height="4" x="19" y="312" rx="2" transform="rotate(40, 45, 314)" opacity="0.97"></rect><rect width="262" height="4" x="-2" y="584" rx="2" transform="rotate(40, 129, 586)" opacity="0.86"></rect><rect width="34" height="4" x="418" y="298" rx="2" transform="rotate(40, 435, 300)" opacity="0.73"></rect><rect width="214" height="4" x="116" y="699" rx="2" transform="rotate(40, 223, 701)" opacity="0.50"></rect><rect width="278" height="4" x="352" y="118" rx="2" transform="rotate(40, 491, 120)" opacity="0.26"></rect><rect width="310" height="4" x="477" y="581" rx="2" transform="rotate(40, 632, 583)" opacity="0.39"></rect><rect width="147" height="4" x="564.5" y="208" rx="2" transform="rotate(40, 638, 210)" opacity="0.52"></rect><rect width="156" height="4" x="363" y="353" rx="2" transform="rotate(40, 441, 355)" opacity="0.28"></rect><rect width="234" height="4" x="638" y="729" rx="2" transform="rotate(40, 755, 731)" opacity="0.56"></rect><rect width="99" height="4" x="385.5" y="51" rx="2" transform="rotate(40, 435, 53)" opacity="0.91"></rect><rect width="155" height="4" x="-49.5" y="384" rx="2" transform="rotate(40, 28, 386)" opacity="0.16"></rect><rect width="253" height="4" x="562.5" y="27" rx="2" transform="rotate(40, 689, 29)" opacity="0.21"></rect><rect width="301" height="4" x="-53.5" y="105" rx="2" transform="rotate(40, 97, 107)" opacity="0.62"></rect><rect width="119" height="4" x="400.5" y="639" rx="2" transform="rotate(40, 460, 641)" opacity="0.39"></rect><rect width="223" height="4" x="437.5" y="772" rx="2" transform="rotate(40, 549, 774)" opacity="0.52"></rect><rect width="228" height="4" x="158" y="51" rx="2" transform="rotate(40, 272, 53)" opacity="0.63"></rect><rect width="220" height="4" x="444" y="165" rx="2" transform="rotate(40, 554, 167)" opacity="0.40"></rect><rect width="79" height="4" x="178.5" y="50" rx="2" transform="rotate(40, 218, 52)" opacity="0.83"></rect><rect width="212" height="4" x="223" y="573" rx="2" transform="rotate(40, 329, 575)" opacity="0.17"></rect><rect width="46" height="4" x="631" y="668" rx="2" transform="rotate(40, 654, 670)" opacity="0.79"></rect><rect width="240" height="4" x="550" y="450" rx="2" transform="rotate(40, 670, 452)" opacity="0.11"></rect><rect width="160" height="4" x="259" y="193" rx="2" transform="rotate(40, 339, 195)" opacity="0.83"></rect><rect width="160" height="4" x="73" y="424" rx="2" transform="rotate(40, 153, 426)" opacity="0.14"></rect><rect width="303" height="4" x="237.5" y="406" rx="2" transform="rotate(40, 389, 408)" opacity="0.72"></rect><rect width="69" height="4" x="90.5" y="499" rx="2" transform="rotate(40, 125, 501)" opacity="0.29"></rect><rect width="239" height="4" x="324.5" y="490" rx="2" transform="rotate(40, 444, 492)" opacity="0.33"></rect><rect width="45" height="4" x="581.5" y="505" rx="2" transform="rotate(40, 604, 507)" opacity="0.58"></rect><rect width="170" height="4" x="304" y="761" rx="2" transform="rotate(40, 389, 763)" opacity="0.11"></rect><rect width="287" height="4" x="133.5" y="534" rx="2" transform="rotate(40, 277, 536)" opacity="0.92"></rect><rect width="276" height="4" x="248" y="564" rx="2" transform="rotate(40, 386, 566)" opacity="0.56"></rect><rect width="51" height="4" x="282.5" y="696" rx="2" transform="rotate(40, 308, 698)" opacity="0.35"></rect><rect width="200" height="4" x="6" y="260" rx="2" transform="rotate(40, 106, 262)" opacity="0.75"></rect><rect width="214" height="4" x="390" y="262" rx="2" transform="rotate(40, 497, 264)" opacity="0.13"></rect><rect width="200" height="4" x="339" y="581" rx="2" transform="rotate(40, 439, 583)" opacity="0.72"></rect><rect width="152" height="4" x="217" y="644" rx="2" transform="rotate(40, 293, 646)" opacity="0.77"></rect><rect width="74" height="4" x="408" y="776" rx="2" transform="rotate(40, 445, 778)" opacity="0.72"></rect><rect width="159" height="4" x="82.5" y="297" rx="2" transform="rotate(40, 162, 299)" opacity="0.80"></rect><rect width="135" height="4" x="-30.5" y="703" rx="2" transform="rotate(40, 37, 705)" opacity="0.28"></rect><rect width="365" height="4" x="86.5" y="262" rx="2" transform="rotate(40, 269, 264)" opacity="0.24"></rect><rect width="170" height="4" x="20" y="365" rx="2" transform="rotate(40, 105, 367)" opacity="0.78"></rect><rect width="116" height="4" x="564" y="745" rx="2" transform="rotate(40, 622, 747)" opacity="0.86"></rect><rect width="368" height="4" x="228" y="138" rx="2" transform="rotate(40, 412, 140)" opacity="0.63"></rect><rect width="165" height="4" x="12.5" y="661" rx="2" transform="rotate(40, 95, 663)" opacity="0.15"></rect><rect width="159" height="4" x="228.5" y="356" rx="2" transform="rotate(40, 308, 358)" opacity="0.30"></rect><rect width="227" height="4" x="100.5" y="341" rx="2" transform="rotate(40, 214, 343)" opacity="0.25"></rect><rect width="329" height="4" x="422.5" y="121" rx="2" transform="rotate(40, 587, 123)" opacity="0.92"></rect><rect width="192" height="4" x="474" y="423" rx="2" transform="rotate(40, 570, 425)" opacity="0.18"></rect><rect width="104" height="4" x="325" y="249" rx="2" transform="rotate(40, 377, 251)" opacity="0.59"></rect><rect width="159" height="4" x="-60.5" y="535" rx="2" transform="rotate(40, 19, 537)" opacity="0.55"></rect><rect width="150" height="4" x="322" y="202" rx="2" transform="rotate(40, 397, 204)" opacity="0.42"></rect><rect width="119" height="4" x="708.5" y="547" rx="2" transform="rotate(40, 768, 549)" opacity="0.77"></rect><rect width="210" height="4" x="248" y="297" rx="2" transform="rotate(40, 353, 299)" opacity="0.39"></rect><rect width="200" height="4" x="278" y="486" rx="2" transform="rotate(40, 378, 488)" opacity="0.87"></rect><rect width="150" height="4" x="701" y="627" rx="2" transform="rotate(40, 776, 629)" opacity="0.67"></rect><rect width="55" height="4" x="135.5" y="656" rx="2" transform="rotate(40, 163, 658)" opacity="0.57"></rect><rect width="272" height="4" x="80" y="486" rx="2" transform="rotate(40, 216, 488)" opacity="0.70"></rect><rect width="62" height="4" x="726" y="316" rx="2" transform="rotate(40, 757, 318)" opacity="0.14"></rect><rect width="93" height="4" x="-15.5" y="624" rx="2" transform="rotate(40, 31, 626)" opacity="0.97"></rect><rect width="292" height="4" x="295" y="699" rx="2" transform="rotate(40, 441, 701)" opacity="0.19"></rect><rect width="186" height="4" x="10" y="763" rx="2" transform="rotate(40, 103, 765)" opacity="0.25"></rect><rect width="81" height="4" x="26.5" y="549" rx="2" transform="rotate(40, 67, 551)" opacity="0.40"></rect><rect width="146" height="4" x="625" y="383" rx="2" transform="rotate(40, 698, 385)" opacity="0.33"></rect><rect width="40" height="4" x="453" y="179" rx="2" transform="rotate(40, 473, 181)" opacity="0.90"></rect><rect width="73" height="4" x="730.5" y="402" rx="2" transform="rotate(40, 767, 404)" opacity="0.71"></rect><rect width="165" height="4" x="236.5" y="26" rx="2" transform="rotate(40, 319, 28)" opacity="0.69"></rect><rect width="304" height="4" x="458" y="34" rx="2" transform="rotate(40, 610, 36)" opacity="0.41"></rect><rect width="233" height="4" x="651.5" y="463" rx="2" transform="rotate(40, 768, 465)" opacity="0.30"></rect><rect width="288" height="4" x="94" y="417" rx="2" transform="rotate(40, 238, 419)" opacity="0.91"></rect><rect width="128" height="4" x="513" y="619" rx="2" transform="rotate(40, 577, 621)" opacity="0.64"></rect><rect width="60" height="4" x="330" y="715" rx="2" transform="rotate(40, 360, 717)" opacity="0.17"></rect><rect width="243" height="4" x="643.5" y="153" rx="2" transform="rotate(40, 765, 155)" opacity="0.96"></rect></g></svg>