<svg id="visual" viewBox="0 0 900 600" width="900" height="600" xmlns="http://www.w3.org/2000/svg" xmlns:xlink="http://www.w3.org/1999/xlink" version="1.1"><g stroke-width="1" stroke-linejoin="bevel"><path d="M474 288.1L442 330.9L552 359.9Z" fill="#a95006" stroke="#a95006"></path><path d="M442 330.9L448 417.6L552 359.9Z" fill="#9f4b05" stroke="#9f4b05"></path><path d="M552 359.9L510 242.1L474 288.1Z" fill="#e06c0c" stroke="#e06c0c"></path><path d="M448 417.6L557 428.6L552 359.9Z" fill="#e06c0c" stroke="#e06c0c"></path><path d="M613 399.6L619 352.9L552 359.9Z" fill="#a95006" stroke="#a95006"></path><path d="M552 359.9L617 232.1L510 242.1Z" fill="#a95006" stroke="#a95006"></path><path d="M354 285.1L372 348.9L442 330.9Z" fill="#ec710e" stroke="#ec710e"></path><path d="M442 330.9L372 348.9L448 417.6Z" fill="#bf5b08" stroke="#bf5b08"></path><path d="M354 285.1L442 330.9L474 288.1Z" fill="#ca6109" stroke="#ca6109"></path><path d="M557 428.6L613 399.6L552 359.9Z" fill="#e06c0c" stroke="#e06c0c"></path><path d="M617 232.1L540 194.4L510 242.1Z" fill="#ca6109" stroke="#ca6109"></path><path d="M430 191.4L354 285.1L474 288.1Z" fill="#8a4004" stroke="#8a4004"></path><path d="M372 348.9L370 419.6L448 417.6Z" fill="#944505" stroke="#944505"></path><path d="M448 417.6L513 508.3L557 428.6Z" fill="#b45507" stroke="#b45507"></path><path d="M430 191.4L474 288.1L510 242.1Z" fill="#ca6109" stroke="#ca6109"></path><path d="M372 348.9L301 413.6L370 419.6Z" fill="#a95006" stroke="#a95006"></path><path d="M619 352.9L617 232.1L552 359.9Z" fill="#ec710e" stroke="#ec710e"></path><path d="M540 194.4L430 191.4L510 242.1Z" fill="#e06c0c" stroke="#e06c0c"></path><path d="M439 526.3L513 508.3L448 417.6Z" fill="#d5660b" stroke="#d5660b"></path><path d="M557 428.6L605 526.3L613 399.6Z" fill="#8a4004" stroke="#8a4004"></path><path d="M430 191.4L363 202.4L354 285.1Z" fill="#d5660b" stroke="#d5660b"></path><path d="M370 419.6L439 526.3L448 417.6Z" fill="#9f4b05" stroke="#9f4b05"></path><path d="M240 320.9L301 413.6L372 348.9Z" fill="#f7770f" stroke="#f7770f"></path><path d="M370 419.6L343 490.3L439 526.3Z" fill="#ec710e" stroke="#ec710e"></path><path d="M240 320.9L372 348.9L354 285.1Z" fill="#ca6109" stroke="#ca6109"></path><path d="M534 600L605 526.3L513 508.3Z" fill="#9f4b05" stroke="#9f4b05"></path><path d="M513 508.3L605 526.3L557 428.6Z" fill="#f7770f" stroke="#f7770f"></path><path d="M713 234.1L617 232.1L619 352.9Z" fill="#bf5b08" stroke="#bf5b08"></path><path d="M301 413.6L343 490.3L370 419.6Z" fill="#f7770f" stroke="#f7770f"></path><path d="M617 232.1L658 190.4L540 194.4Z" fill="#d5660b" stroke="#d5660b"></path><path d="M540 194.4L451 115.7L430 191.4Z" fill="#e06c0c" stroke="#e06c0c"></path><path d="M713 234.1L658 190.4L617 232.1Z" fill="#a95006" stroke="#a95006"></path><path d="M736 319.9L619 352.9L613 399.6Z" fill="#bf5b08" stroke="#bf5b08"></path><path d="M363 202.4L292 244.1L354 285.1Z" fill="#a95006" stroke="#a95006"></path><path d="M567 101.7L451 115.7L540 194.4Z" fill="#9f4b05" stroke="#9f4b05"></path><path d="M430 191.4L377 76.7L363 202.4Z" fill="#b45507" stroke="#b45507"></path><path d="M363 202.4L273 181.4L292 244.1Z" fill="#b45507" stroke="#b45507"></path><path d="M746 457.6L736 319.9L613 399.6Z" fill="#f7770f" stroke="#f7770f"></path><path d="M736 319.9L713 234.1L619 352.9Z" fill="#a95006" stroke="#a95006"></path><path d="M598 97.7L540 194.4L658 190.4Z" fill="#ec710e" stroke="#ec710e"></path><path d="M598 97.7L567 101.7L540 194.4Z" fill="#ca6109" stroke="#ca6109"></path><path d="M292 244.1L240 320.9L354 285.1Z" fill="#b45507" stroke="#b45507"></path><path d="M301 413.6L282 541.3L343 490.3Z" fill="#bf5b08" stroke="#bf5b08"></path><path d="M743 73.7L598 97.7L658 190.4Z" fill="#b45507" stroke="#b45507"></path><path d="M420 0L377 76.7L451 115.7Z" fill="#944505" stroke="#944505"></path><path d="M451 600L513 508.3L439 526.3Z" fill="#e06c0c" stroke="#e06c0c"></path><path d="M451 600L534 600L513 508.3Z" fill="#9f4b05" stroke="#9f4b05"></path><path d="M349 600L451 600L439 526.3Z" fill="#b45507" stroke="#b45507"></path><path d="M737 524.3L746 457.6L605 526.3Z" fill="#d5660b" stroke="#d5660b"></path><path d="M605 526.3L746 457.6L613 399.6Z" fill="#a95006" stroke="#a95006"></path><path d="M377 76.7L273 181.4L363 202.4Z" fill="#ec710e" stroke="#ec710e"></path><path d="M292 244.1L170 284.1L240 320.9Z" fill="#ca6109" stroke="#ca6109"></path><path d="M831 282.1L742 197.4L713 234.1Z" fill="#8a4004" stroke="#8a4004"></path><path d="M713 234.1L742 197.4L658 190.4Z" fill="#ec710e" stroke="#ec710e"></path><path d="M831 282.1L713 234.1L736 319.9Z" fill="#f7770f" stroke="#f7770f"></path><path d="M451 115.7L377 76.7L430 191.4Z" fill="#9f4b05" stroke="#9f4b05"></path><path d="M555 0L451 115.7L567 101.7Z" fill="#bf5b08" stroke="#bf5b08"></path><path d="M191 495.3L282 541.3L301 413.6Z" fill="#ec710e" stroke="#ec710e"></path><path d="M343 490.3L349 600L439 526.3Z" fill="#8a4004" stroke="#8a4004"></path><path d="M282 541.3L349 600L343 490.3Z" fill="#bf5b08" stroke="#bf5b08"></path><path d="M534 600L649 600L605 526.3Z" fill="#e06c0c" stroke="#e06c0c"></path><path d="M649 600L737 524.3L605 526.3Z" fill="#9f4b05" stroke="#9f4b05"></path><path d="M170 284.1L187 367.9L240 320.9Z" fill="#f7770f" stroke="#f7770f"></path><path d="M240 320.9L187 367.9L301 413.6Z" fill="#8a4004" stroke="#8a4004"></path><path d="M812 445.6L825 323.9L736 319.9Z" fill="#b45507" stroke="#b45507"></path><path d="M812 445.6L736 319.9L746 457.6Z" fill="#f7770f" stroke="#f7770f"></path><path d="M295 68.7L206 187.4L273 181.4Z" fill="#f7770f" stroke="#f7770f"></path><path d="M273 181.4L206 187.4L292 244.1Z" fill="#8a4004" stroke="#8a4004"></path><path d="M832 501.3L812 445.6L746 457.6Z" fill="#b45507" stroke="#b45507"></path><path d="M206 187.4L170 284.1L292 244.1Z" fill="#e06c0c" stroke="#e06c0c"></path><path d="M76 431.6L178 439.6L187 367.9Z" fill="#e06c0c" stroke="#e06c0c"></path><path d="M187 367.9L178 439.6L301 413.6Z" fill="#a95006" stroke="#a95006"></path><path d="M900 315.9L831 282.1L825 323.9Z" fill="#ec710e" stroke="#ec710e"></path><path d="M825 323.9L831 282.1L736 319.9Z" fill="#9f4b05" stroke="#9f4b05"></path><path d="M379 0L295 68.7L377 76.7Z" fill="#f7770f" stroke="#f7770f"></path><path d="M377 76.7L295 68.7L273 181.4Z" fill="#944505" stroke="#944505"></path><path d="M648 0L555 0L598 97.7Z" fill="#ca6109" stroke="#ca6109"></path><path d="M598 97.7L555 0L567 101.7Z" fill="#ca6109" stroke="#ca6109"></path><path d="M743 73.7L658 190.4L742 197.4Z" fill="#ec710e" stroke="#ec710e"></path><path d="M178 439.6L191 495.3L301 413.6Z" fill="#ca6109" stroke="#ca6109"></path><path d="M282 541.3L249 600L349 600Z" fill="#e06c0c" stroke="#e06c0c"></path><path d="M555 0L420 0L451 115.7Z" fill="#a95006" stroke="#a95006"></path><path d="M649 600L741 600L737 524.3Z" fill="#d5660b" stroke="#d5660b"></path><path d="M737 524.3L832 501.3L746 457.6Z" fill="#944505" stroke="#944505"></path><path d="M420 0L379 0L377 76.7Z" fill="#bf5b08" stroke="#bf5b08"></path><path d="M191 495.3L249 600L282 541.3Z" fill="#bf5b08" stroke="#bf5b08"></path><path d="M786 75.7L743 73.7L742 197.4Z" fill="#b45507" stroke="#b45507"></path><path d="M811 600L832 501.3L737 524.3Z" fill="#b45507" stroke="#b45507"></path><path d="M900 450.6L900 315.9L825 323.9Z" fill="#9f4b05" stroke="#9f4b05"></path><path d="M743 73.7L648 0L598 97.7Z" fill="#9f4b05" stroke="#9f4b05"></path><path d="M900 236.1L834 163.4L831 282.1Z" fill="#bf5b08" stroke="#bf5b08"></path><path d="M831 282.1L834 163.4L742 197.4Z" fill="#bf5b08" stroke="#bf5b08"></path><path d="M834 163.4L786 75.7L742 197.4Z" fill="#ec710e" stroke="#ec710e"></path><path d="M743 73.7L740 0L648 0Z" fill="#b45507" stroke="#b45507"></path><path d="M84 274.1L108 311.9L170 284.1Z" fill="#e06c0c" stroke="#e06c0c"></path><path d="M170 284.1L108 311.9L187 367.9Z" fill="#d5660b" stroke="#d5660b"></path><path d="M105 600L180 600L191 495.3Z" fill="#d5660b" stroke="#d5660b"></path><path d="M84 274.1L170 284.1L106 181.4Z" fill="#bf5b08" stroke="#bf5b08"></path><path d="M900 450.6L825 323.9L812 445.6Z" fill="#ec710e" stroke="#ec710e"></path><path d="M741 600L811 600L737 524.3Z" fill="#d5660b" stroke="#d5660b"></path><path d="M832 501.3L900 450.6L812 445.6Z" fill="#d5660b" stroke="#d5660b"></path><path d="M191 495.3L180 600L249 600Z" fill="#b45507" stroke="#b45507"></path><path d="M86 482.3L191 495.3L178 439.6Z" fill="#d5660b" stroke="#d5660b"></path><path d="M900 315.9L900 236.1L831 282.1Z" fill="#bf5b08" stroke="#bf5b08"></path><path d="M900 74.7L786 0L786 75.7Z" fill="#bf5b08" stroke="#bf5b08"></path><path d="M900 504.3L900 450.6L832 501.3Z" fill="#e06c0c" stroke="#e06c0c"></path><path d="M786 0L743 73.7L786 75.7Z" fill="#ec710e" stroke="#ec710e"></path><path d="M786 0L740 0L743 73.7Z" fill="#ec710e" stroke="#ec710e"></path><path d="M106 181.4L170 284.1L206 187.4Z" fill="#9f4b05" stroke="#9f4b05"></path><path d="M108 311.9L76 431.6L187 367.9Z" fill="#8a4004" stroke="#8a4004"></path><path d="M153 75.7L106 181.4L206 187.4Z" fill="#944505" stroke="#944505"></path><path d="M153 75.7L206 187.4L295 68.7Z" fill="#d5660b" stroke="#d5660b"></path><path d="M379 0L240 0L295 68.7Z" fill="#ca6109" stroke="#ca6109"></path><path d="M0 330.9L76 431.6L108 311.9Z" fill="#944505" stroke="#944505"></path><path d="M900 600L900 504.3L832 501.3Z" fill="#ec710e" stroke="#ec710e"></path><path d="M240 0L153 75.7L295 68.7Z" fill="#9f4b05" stroke="#9f4b05"></path><path d="M76 431.6L86 482.3L178 439.6Z" fill="#e06c0c" stroke="#e06c0c"></path><path d="M900 74.7L786 75.7L834 163.4Z" fill="#e06c0c" stroke="#e06c0c"></path><path d="M900 236.1L900 141.4L834 163.4Z" fill="#d5660b" stroke="#d5660b"></path><path d="M0 531.3L105 600L86 482.3Z" fill="#e06c0c" stroke="#e06c0c"></path><path d="M86 482.3L105 600L191 495.3Z" fill="#944505" stroke="#944505"></path><path d="M240 0L162 0L153 75.7Z" fill="#ca6109" stroke="#ca6109"></path><path d="M153 75.7L80 90.7L106 181.4Z" fill="#9f4b05" stroke="#9f4b05"></path><path d="M811 600L900 600L832 501.3Z" fill="#ec710e" stroke="#ec710e"></path><path d="M900 141.4L900 74.7L834 163.4Z" fill="#9f4b05" stroke="#9f4b05"></path><path d="M0 243.1L0 330.9L84 274.1Z" fill="#ca6109" stroke="#ca6109"></path><path d="M84 274.1L0 330.9L108 311.9Z" fill="#bf5b08" stroke="#bf5b08"></path><path d="M60 0L80 90.7L153 75.7Z" fill="#a95006" stroke="#a95006"></path><path d="M0 243.1L84 274.1L106 181.4Z" fill="#a95006" stroke="#a95006"></path><path d="M76 431.6L0 407.6L86 482.3Z" fill="#bf5b08" stroke="#bf5b08"></path><path d="M0 330.9L0 407.6L76 431.6Z" fill="#8a4004" stroke="#8a4004"></path><path d="M0 140.4L0 243.1L106 181.4Z" fill="#8a4004" stroke="#8a4004"></path><path d="M900 74.7L900 0L786 0Z" fill="#8a4004" stroke="#8a4004"></path><path d="M0 407.6L0 531.3L86 482.3Z" fill="#ca6109" stroke="#ca6109"></path><path d="M0 86.7L0 140.4L80 90.7Z" fill="#8a4004" stroke="#8a4004"></path><path d="M80 90.7L0 140.4L106 181.4Z" fill="#9f4b05" stroke="#9f4b05"></path><path d="M162 0L60 0L153 75.7Z" fill="#d5660b" stroke="#d5660b"></path><path d="M60 0L0 86.7L80 90.7Z" fill="#ec710e" stroke="#ec710e"></path><path d="M0 531.3L0 600L105 600Z" fill="#bf5b08" stroke="#bf5b08"></path><path d="M60 0L0 0L0 86.7Z" fill="#8a4004" stroke="#8a4004"></path></g></svg>